<?xml version="1.0" encoding="utf-8"?>
<svg version="1.1" id="Logo" xmlns="http://www.w3.org/2000/svg" xmlns:xlink="http://www.w3.org/1999/xlink" x="0px" y="0px"
	 viewBox="-64 190.5 661.5 232.5" style="enable-background:new -64 190.5 661.5 232.5;" xml:space="preserve">
<style type="text/css">
	.st0{fill:#21292E;}
	.st1{fill:#6CA743;}
	.st2{fill:#9FC874;}
</style>
<g>
	<path id="Shadow" class="st0" d="M417.4,352.4l34.7,2.7l-5.2-20.3c0-14.4-0.4-24.3-1.1-30.5c-1.8-15.5-5.9-26.1-12.7-32.3
		c-4.7-4.3-10-6.5-15.6-6.4l1.1-5.4l-38.9-0.5l1,6.7c-6.3-5-14.2-7.6-23.8-7.6c-1.4,0-3.8,0.2-15,2.1l-18.9,1.5l0.6,1.7
		c-4.5-4-9.1-6.2-14-6.7c-0.8-0.1-1.6-0.1-2.3-0.1c-5.7,0-15.7,2.5-21,18.4c-5.8-5.4-13.7-7.9-23-7.1v-5.2l3.4-17.1l-40.6,0.8
		l4.3,16.8l0.1,12.2c-2.1-1.3-4.4-2.2-7.1-2.5c-0.7-0.1-1.4-0.1-2-0.1c-3.1,0-7.1,0.8-11.2,3.9l1.2-1.7l-44.6-7
		c-5.8-7-11.7-10.6-18-11.3c-0.8-0.1-1.6-0.1-2.3-0.1c-5.9,0-16.5,2.7-21.5,20.3c-0.5,1.6-0.9,3.2-1.2,4.9c-3-4.6-7.3-8.2-13.5-8.9
		c-0.6-0.1-1.1-0.1-1.7-0.1l0,0c-3.1,0-7.1,0.8-11.2,3.9l1.2-1.7L50,268l0,0l5.2,19.5l-1.5,54.3l-3.2,21.5l43.8-8.7l-1.3-2.2
		l15.1,2.2l0-0.1l28.3,8.3l-2.2-15c3.3,2.7,7.5,4.4,12.7,4.4c7.2,0,13.8-3,19.6-9l-3,20.1l43.8-8.7l-1.3-2.2l15.1,2.2l0-0.1
		l28.3,8.3l-1.2-8.2h15.6h0V353c1.1,0.1,2.3,0.2,3.4,0.2c7.2,0,15.5-2.8,21.6-13.2c3.7,7,9.5,12.2,18.8,12.2
		c7.9,0,15.1-3.7,21.5-10.9c1.3-1.5,2.4-2.8,3.3-4.1l1.1-0.7c1.4,1.7,2.9,3.3,4.7,4.9c4.2,3.9,8.8,6.7,13.6,8.4l-1.6,4l38.4,9.5
		l-0.6-11.2l29.5,0.6L417.4,352.4z"/>
	<g id="Green_6_">
		<g id="g443_4_">
			<path id="path445_5_" class="st1" d="M174.5,299.1l-2.3,8l-28.4,2.6c0.8,9.8,2.4,15.5,4.8,17.1c2.7,0.3,4.8-1.9,6.4-6.4
				c-0.2-1.3-0.4-2.3-0.4-3.2c0-0.8,0.1-1.4,0.4-1.8l18.7,8.8l-8.1,6.7c-0.9,1.3-2.2,2.9-3.8,4.8c-4.6,5.3-9.6,8-15,8
				c-11,0-16.5-13.5-16.5-40.6c0-9.2,0.9-16.9,2.8-23.2c2.9-10.2,7.8-14.9,14.8-14.1C156.3,266.6,165.2,277.7,174.5,299.1z
				 M155.9,296.1c-0.5-1.3-1.2-3.1-2.1-5.6c-0.8-2.2-2.2-3.5-4.2-3.9c-2,0.9-3.4,4.3-4,10.2L155.9,296.1z"/>
			<path id="path447_5_" class="st1" d="M239.1,350.9l-20.7-6.1l3.3-4.9c0.6-4.8,0.9-9.6,0.9-14.4c0-7.9-0.9-14-2.8-18.2
				c-2.3,0.3-4.3,2.8-6.2,7.6c0,6.3-0.5,14.6-1.5,24.8c1.1,2.7,1.6,4.5,1.5,5.3l-19.3-2.8c0.1-0.7,0.9-1.7,2.5-3
				c1.9-10,2.8-17,2.8-21c0-3.9-0.6-6.4-1.9-7.6c-2.2,0-3.6,0.7-4,2.1l-2.1,7.6l-0.6,22.7l3.2,5.6l-20.5,4l1.5-10.1l1.5-56.1
				l-2.1-8.1l21.7,3.4l-3.8,5.2v1.4c2.9-3.2,5.8-4.8,8.7-4.8c4,0,6.9,2.1,9,6.2c3.6-5.7,7.7-8.3,12.3-7.8
				c6.7,0.8,11.2,9.3,13.4,25.5c0.9,6.6,1.5,17.4,1.6,32.5L239.1,350.9L239.1,350.9z"/>
			<path id="path449_5_" class="st1" d="M287.7,314.1c-2.4,20.4-9.3,30.6-20.5,30.6c-3.7,0-7.7-1.2-11.9-3.7v5.1h-17.2l1.4-7.7
				l-0.8-75.7l-1.9-7.5l19.3-0.4l-1.5,7.6V279c4.2-1.4,8.1-2.1,11.7-2.1c7.7,0,13.3,2.9,17.1,8.7c3.1,4.9,4.7,11.4,4.7,19.5
				C288.2,308.3,288,311.3,287.7,314.1L287.7,314.1z M267.1,328.7c1.6-1.6,3-5.3,4.1-11.2c0.9-4.8,1.4-8.9,1.4-12.4
				c0-8.3-2-12.4-6.1-12.4c-3.3,0-7,1.1-11.2,3.4v22.4l1.4,2.8C261,326.5,264.5,329,267.1,328.7L267.1,328.7z"/>
			<path id="path451_5_" class="st1" d="M334.7,297l-6.6,11l-23.5,1.8c0.8,9.8,2.4,15.5,4.8,17.1c2.1,0.2,4-1.2,5.6-4.2
				c0.9-2.4,1.9-4.7,2.9-7.1l15.3,11.1l-6.7,4.3c-0.9,1.3-2.2,2.9-3.8,4.8c-4.6,5.3-9.6,8-15,8c-11,0-16.5-13.5-16.5-40.6
				c0-9.2,0.9-16.9,2.7-23.2c2.9-10.2,7.9-14.9,14.9-14.1C317.2,266.7,325.9,277.1,334.7,297L334.7,297z M315.1,293
				c-1.2-3.3-1.9-5.2-2.2-5.7c-1.1-2.2-2.5-3.5-4.2-3.8c-2,0.9-3.4,4.3-4.1,10.2L315.1,293L315.1,293z"/>
			<path id="path453_5_" class="st1" d="M385.1,302.8c-2.3,25.2-4.3,39.2-5.9,42.1l0.4,7.5l-17.9-4.4l1.8-4.5
				c-7.1-0.1-13.6-2.8-19.5-8.2c-6.1-5.5-9.2-11.7-9.2-18.7c0-12.7,10.7-22.4,32.2-29.1c-2.6-3.7-6.2-5.6-10.9-5.6
				c-2.9,0-5.7,0.8-8.2,2.5l-6.4,4.3l-6.7-18.7l8.2-0.6c7.9-1.3,12.6-2,14-2c9.2,0,16.3,2.8,21.3,8.3c4.8,5.4,7.2,12.7,7.2,22
				C385.3,299.2,385.3,300.9,385.1,302.8L385.1,302.8z M369.2,303.3c-12.7,4.2-18.9,8.7-18.7,13.4c0.2,3.5,2,6.3,5.6,8.3
				c2.6,1.5,5.3,2.3,8.1,2.3c0.7,0,1.1,0,1.3-0.1c0.7-0.5,1.3-1,1.9-1.5C367.7,320.1,368.3,312.6,369.2,303.3L369.2,303.3z"/>
			<path id="path455_5_" class="st1" d="M440.9,345.7l-19.6-1.5l1.3-8.3v-0.6c0-1.9,0-4.8,0.1-8.7c0.1-3.8,0.1-6.7,0.1-8.7
				c0-15-1.9-24.1-5.6-27.3c-3.5,0.3-7.3,4.5-11.5,12.6l-0.9,31.2l2,9.5l-20.2-0.4l2.4-9.6l1.6-57l-1.3-8.7l18.8,0.3l-1.8,9v1.8
				c3.9-3.5,7.7-5.2,11.4-5.2c3.3,0,6.4,1.4,9.5,4.2c5.1,4.7,8.5,13.7,10,27c0.7,5.8,1,15.8,1,29.9v0.6L440.9,345.7z"/>
			<path id="path457_6_" class="st1" d="M60.6,352.8l1.5-10.1l1.5-56l-2.1-8.1l21.7,3.4l-3.8,5.2v1.4c2.7-1.1,5.8-4.8,8.7-4.8
				c4,0,6.9,2.1,9,6.2c3.6-5.7,7.7-8.3,12.2-7.8c6.7,0.8,11.2,9.3,13.4,25.5c0.9,6.6,1.5,17.4,1.6,32.4l1.6,11l-20.7-6.1l3.3-4.9
				c0.6-4.8,0.9-9.6,0.9-14.4c0-7.9-0.9-14-2.8-18.2c-2.3,0.3-4.3,2.8-6.2,7.6c0,6.3-0.5,14.6-1.5,24.7c1.1,2.7,1.6,4.5,1.5,5.3
				l-19.3-2.8c0.1-0.7,0.9-1.7,2.5-3c1.8-10,2.8-17,2.8-20.9c0-3.9-0.6-6.4-1.9-7.6c-2.2,0-3.6,0.7-4,2.1l-2.1,7.6l-0.6,22.7
				l3.2,5.6"/>
		</g>
	</g>
	<g id="hilight_6_">
		<path id="path460_7_" class="st2" d="M97.1,289.9c3.6-5.7,7.7-8.3,12.2-7.8l0,0c6.7,0.8,11.2,9.3,13.4,25.5
			c0.5,3.8,0.9,9,1.2,15.5c-4.9,0.9-9.7,1.8-14.5,2.8c0-0.1,0-0.2,0-0.3c0-7.9-0.9-14-2.8-18.2c-2.3,0.3-4.3,2.8-6.2,7.6
			c0,3.6-0.2,7.9-0.5,12.9c-5.1,1.1-10.1,2.3-14.9,3.5c0.9-5.9,1.4-10.2,1.4-13.1c0-3.9-0.6-6.4-1.9-7.6c-2.2,0-3.6,0.7-4,2.1
			l-2.1,7.6l-0.3,12.7c-5.5,1.4-10.8,2.9-15.9,4.4l1.4-50.9l-2.1-8.1l21.7,3.4l-3.8,5.2v1.4c0,0,5.4-4.8,8.7-4.8
			C91.5,283.8,94.9,285.4,97.1,289.9z"/>
		<path id="path462_5_" class="st2" d="M222.4,281.9c-4.5-0.5-8.6,2.1-12.3,7.8c-2-4.1-5-6.2-9-6.2c-3,0-5.9,1.6-8.7,4.8V287
			l3.8-5.2l-21.7-3.4l2.1,8.1l-0.8,28.6c5.8-0.7,11.7-1.4,17.7-2l0.1-0.3c0.4-1.4,1.7-2.1,4-2.1c0.5,0.4,0.8,1.1,1.1,1.9
			c5.5-0.6,11-1.1,16.7-1.6c1.3-2.2,2.8-3.4,4.3-3.6c0.4,0.9,0.8,2,1.1,3.1c5-0.4,10.1-0.8,15.2-1.1c-0.1-0.6-0.1-1.3-0.2-1.9
			C233.6,291.2,229.1,282.7,222.4,281.9L222.4,281.9z"/>
		<path id="path464_4_" class="st2" d="M154.7,317.2c0,0.2,0,0.5,0,0.7c1.4-0.2,2.9-0.4,4.3-0.6l-4-1.9
			C154.8,315.7,154.7,316.3,154.7,317.2L154.7,317.2z"/>
		<path id="path466_5_" class="st2" d="M147.8,265.8c-7-0.8-11.9,4-14.8,14.1c-1.9,6.3-2.8,14.1-2.8,23.2c0,7.1,0.4,13.2,1.1,18.5
			c4.5-0.8,9-1.5,13.7-2.3c-0.6-2.6-1-5.8-1.3-9.6l28.4-2.6l2.3-8C165.2,277.7,156.3,266.6,147.8,265.8L147.8,265.8z M145.6,296.8
			c0.7-5.9,2-9.3,4-10.2c1.9,0.4,3.3,1.7,4.2,3.9c0.9,2.4,1.6,4.3,2.1,5.6L145.6,296.8z"/>
		<path id="path468_5_" class="st2" d="M437.4,305.3c-1.5-13.3-4.8-22.3-10-27c-3-2.8-6.2-4.2-9.5-4.2c-3.7,0-7.5,1.7-11.4,5.2v-1.8
			l1.8-9l-18.8-0.3l1.3,8.7l-0.9,30.9c5.3,0.3,10.6,0.6,15.8,0.9l0.2-5.5c4.2-8.1,8-12.3,11.5-12.6c3,2.6,4.8,9,5.4,19.3
			c5.1,0.4,10.2,0.8,15.2,1.3C437.7,308.9,437.6,306.9,437.4,305.3L437.4,305.3z"/>
		<path id="path470_5_" class="st2" d="M356.9,267.3c-1.4,0-6.1,0.7-14,2l-8.2,0.6l6.7,18.7l6.4-4.3c2.5-1.7,5.2-2.5,8.2-2.5
			c4.7,0,8.3,1.9,10.9,5.6c-15.4,4.8-25.3,11.1-29.6,19c7.7,0.1,15.4,0.2,22.9,0.4c2.5-1.2,5.5-2.4,9-3.5c-0.1,1.3-0.2,2.5-0.3,3.8
			c5.3,0.2,10.6,0.4,15.8,0.6c0.1-1.6,0.3-3.2,0.5-4.9c0.2-1.9,0.3-3.6,0.3-5.2c0-9.3-2.4-16.6-7.2-22
			C373.1,270.1,366,267.3,356.9,267.3L356.9,267.3z"/>
		<path id="path472_5_" class="st2" d="M308.7,265.8c-7-0.8-12,4-14.9,14.1c-1.8,6.3-2.7,14.1-2.7,23.2c0,1.2,0,2.4,0,3.6
			c11.1-0.3,22.4-0.4,33.7-0.4c1.4,0,2.8,0,4.2,0l5.6-9.4C325.9,277.1,317.2,266.7,308.7,265.8L308.7,265.8z M304.6,293.8
			c0.7-5.9,2-9.3,4.1-10.2c1.7,0.3,3.1,1.6,4.2,3.8c0.3,0.5,1,2.4,2.2,5.7L304.6,293.8L304.6,293.8z"/>
		<path id="path474_5_" class="st2" d="M266.5,276.9c-3.6,0-7.5,0.7-11.7,2.1v-16.5l1.5-7.6l-19.3,0.4l1.9,7.5l0.5,46.4
			c5.3-0.4,10.7-0.7,16.1-1v-12.1c4.2-2.3,8-3.4,11.2-3.4c4,0,6.1,4.1,6.1,12.4c0,0.7,0,1.5-0.1,2.3c5.2-0.2,10.3-0.4,15.6-0.5
			c0-0.6,0.1-1.2,0.1-1.8c0-8.1-1.6-14.6-4.7-19.5C279.8,279.8,274.1,276.9,266.5,276.9z"/>
	</g>
</g>
</svg>
