<svg version="1.1" id="Logo" xmlns="http://www.w3.org/2000/svg" x="0" y="0" viewBox="-64 190.5 661.5 232.5" xml:space="preserve"><style>.st1{fill:#6ca743}.st2{fill:#9fc874}</style><path id="Shadow" d="M417.4 352.4l34.7 2.7-5.2-20.3c0-14.4-.4-24.3-1.1-30.5-1.8-15.5-5.9-26.1-12.7-32.3-4.7-4.3-10-6.5-15.6-6.4l1.1-5.4-38.9-.5 1 6.7c-6.3-5-14.2-7.6-23.8-7.6-1.4 0-3.8.2-15 2.1l-18.9 1.5.6 1.7c-4.5-4-9.1-6.2-14-6.7-.8-.1-1.6-.1-2.3-.1-5.7 0-15.7 2.5-21 18.4-5.8-5.4-13.7-7.9-23-7.1v-5.2l3.4-17.1-40.6.8 4.3 16.8.1 12.2c-2.1-1.3-4.4-2.2-7.1-2.5-.7-.1-1.4-.1-2-.1-3.1 0-7.1.8-11.2 3.9l1.2-1.7-44.6-7c-5.8-7-11.7-10.6-18-11.3-.8-.1-1.6-.1-2.3-.1-5.9 0-16.5 2.7-21.5 20.3-.5 1.6-.9 3.2-1.2 4.9-3-4.6-7.3-8.2-13.5-8.9-.6-.1-1.1-.1-1.7-.1-3.1 0-7.1.8-11.2 3.9l1.2-1.7L50 268l5.2 19.5-1.5 54.3-3.2 21.5 43.8-8.7-1.3-2.2 15.1 2.2v-.1l28.3 8.3-2.2-15c3.3 2.7 7.5 4.4 12.7 4.4 7.2 0 13.8-3 19.6-9l-3 20.1 43.8-8.7-1.3-2.2 15.1 2.2v-.1l28.3 8.3-1.2-8.2h15.6V353c1.1.1 2.3.2 3.4.2 7.2 0 15.5-2.8 21.6-13.2 3.7 7 9.5 12.2 18.8 12.2 7.9 0 15.1-3.7 21.5-10.9 1.3-1.5 2.4-2.8 3.3-4.1l1.1-.7c1.4 1.7 2.9 3.3 4.7 4.9 4.2 3.9 8.8 6.7 13.6 8.4l-1.6 4 38.4 9.5-.6-11.2 29.5.6-.1-.3z" fill="#21292e"/><g id="Green_6_"><g id="g443_4_"><path id="path445_5_" class="st1" d="M174.5 299.1l-2.3 8-28.4 2.6c.8 9.8 2.4 15.5 4.8 17.1 2.7.3 4.8-1.9 6.4-6.4-.2-1.3-.4-2.3-.4-3.2 0-.8.1-1.4.4-1.8l18.7 8.8-8.1 6.7c-.9 1.3-2.2 2.9-3.8 4.8-4.6 5.3-9.6 8-15 8-11 0-16.5-13.5-16.5-40.6 0-9.2.9-16.9 2.8-23.2 2.9-10.2 7.8-14.9 14.8-14.1 8.4.8 17.3 11.9 26.6 33.3zm-18.6-3c-.5-1.3-1.2-3.1-2.1-5.6-.8-2.2-2.2-3.5-4.2-3.9-2 .9-3.4 4.3-4 10.2l10.3-.7z"/><path id="path447_5_" class="st1" d="M239.1 350.9l-20.7-6.1 3.3-4.9c.6-4.8.9-9.6.9-14.4 0-7.9-.9-14-2.8-18.2-2.3.3-4.3 2.8-6.2 7.6 0 6.3-.5 14.6-1.5 24.8 1.1 2.7 1.6 4.5 1.5 5.3l-19.3-2.8c.1-.7.9-1.7 2.5-3 1.9-10 2.8-17 2.8-21 0-3.9-.6-6.4-1.9-7.6-2.2 0-3.6.7-4 2.1l-2.1 7.6-.6 22.7 3.2 5.6-20.5 4 1.5-10.1 1.5-56.1-2.1-8.1 21.7 3.4-3.8 5.2v1.4c2.9-3.2 5.8-4.8 8.7-4.8 4 0 6.9 2.1 9 6.2 3.6-5.7 7.7-8.3 12.3-7.8 6.7.8 11.2 9.3 13.4 25.5.9 6.6 1.5 17.4 1.6 32.5l1.6 11z"/><path id="path449_5_" class="st1" d="M287.7 314.1c-2.4 20.4-9.3 30.6-20.5 30.6-3.7 0-7.7-1.2-11.9-3.7v5.1h-17.2l1.4-7.7-.8-75.7-1.9-7.5 19.3-.4-1.5 7.6V279c4.2-1.4 8.1-2.1 11.7-2.1 7.7 0 13.3 2.9 17.1 8.7 3.1 4.9 4.7 11.4 4.7 19.5.1 3.2-.1 6.2-.4 9zm-20.6 14.6c1.6-1.6 3-5.3 4.1-11.2.9-4.8 1.4-8.9 1.4-12.4 0-8.3-2-12.4-6.1-12.4-3.3 0-7 1.1-11.2 3.4v22.4l1.4 2.8c4.3 5.2 7.8 7.7 10.4 7.4z"/><path id="path451_5_" class="st1" d="M334.7 297l-6.6 11-23.5 1.8c.8 9.8 2.4 15.5 4.8 17.1 2.1.2 4-1.2 5.6-4.2.9-2.4 1.9-4.7 2.9-7.1l15.3 11.1-6.7 4.3c-.9 1.3-2.2 2.9-3.8 4.8-4.6 5.3-9.6 8-15 8-11 0-16.5-13.5-16.5-40.6 0-9.2.9-16.9 2.7-23.2 2.9-10.2 7.9-14.9 14.9-14.1 8.4.8 17.1 11.2 25.9 31.1zm-19.6-4c-1.2-3.3-1.9-5.2-2.2-5.7-1.1-2.2-2.5-3.5-4.2-3.8-2 .9-3.4 4.3-4.1 10.2l10.5-.7z"/><path id="path453_5_" class="st1" d="M385.1 302.8c-2.3 25.2-4.3 39.2-5.9 42.1l.4 7.5-17.9-4.4 1.8-4.5c-7.1-.1-13.6-2.8-19.5-8.2-6.1-5.5-9.2-11.7-9.2-18.7 0-12.7 10.7-22.4 32.2-29.1-2.6-3.7-6.2-5.6-10.9-5.6-2.9 0-5.7.8-8.2 2.5l-6.4 4.3-6.7-18.7 8.2-.6c7.9-1.3 12.6-2 14-2 9.2 0 16.3 2.8 21.3 8.3 4.8 5.4 7.2 12.7 7.2 22-.2 1.5-.2 3.2-.4 5.1zm-15.9.5c-12.7 4.2-18.9 8.7-18.7 13.4.2 3.5 2 6.3 5.6 8.3 2.6 1.5 5.3 2.3 8.1 2.3.7 0 1.1 0 1.3-.1.7-.5 1.3-1 1.9-1.5.3-5.6.9-13.1 1.8-22.4z"/><path id="path455_5_" class="st1" d="M440.9 345.7l-19.6-1.5 1.3-8.3v-.6c0-1.9 0-4.8.1-8.7.1-3.8.1-6.7.1-8.7 0-15-1.9-24.1-5.6-27.3-3.5.3-7.3 4.5-11.5 12.6l-.9 31.2 2 9.5-20.2-.4 2.4-9.6 1.6-57-1.3-8.7 18.8.3-1.8 9v1.8c3.9-3.5 7.7-5.2 11.4-5.2 3.3 0 6.4 1.4 9.5 4.2 5.1 4.7 8.5 13.7 10 27 .7 5.8 1 15.8 1 29.9v.6l2.7 9.9z"/><path id="path457_6_" class="st1" d="M60.6 352.8l1.5-10.1 1.5-56-2.1-8.1 21.7 3.4-3.8 5.2v1.4c2.7-1.1 5.8-4.8 8.7-4.8 4 0 6.9 2.1 9 6.2 3.6-5.7 7.7-8.3 12.2-7.8 6.7.8 11.2 9.3 13.4 25.5.9 6.6 1.5 17.4 1.6 32.4l1.6 11-20.7-6.1 3.3-4.9c.6-4.8.9-9.6.9-14.4 0-7.9-.9-14-2.8-18.2-2.3.3-4.3 2.8-6.2 7.6 0 6.3-.5 14.6-1.5 24.7 1.1 2.7 1.6 4.5 1.5 5.3l-19.3-2.8c.1-.7.9-1.7 2.5-3 1.8-10 2.8-17 2.8-20.9 0-3.9-.6-6.4-1.9-7.6-2.2 0-3.6.7-4 2.1l-2.1 7.6-.6 22.7 3.2 5.6"/></g></g><g id="hilight_6_"><path id="path460_7_" class="st2" d="M97.1 289.9c3.6-5.7 7.7-8.3 12.2-7.8 6.7.8 11.2 9.3 13.4 25.5.5 3.8.9 9 1.2 15.5-4.9.9-9.7 1.8-14.5 2.8v-.3c0-7.9-.9-14-2.8-18.2-2.3.3-4.3 2.8-6.2 7.6 0 3.6-.2 7.9-.5 12.9-5.1 1.1-10.1 2.3-14.9 3.5.9-5.9 1.4-10.2 1.4-13.1 0-3.9-.6-6.4-1.9-7.6-2.2 0-3.6.7-4 2.1l-2.1 7.6-.3 12.7c-5.5 1.4-10.8 2.9-15.9 4.4l1.4-50.9-2.1-8.1 21.7 3.4-3.8 5.2v1.4s5.4-4.8 8.7-4.8c3.4.1 6.8 1.7 9 6.2z"/><path id="path462_5_" class="st2" d="M222.4 281.9c-4.5-.5-8.6 2.1-12.3 7.8-2-4.1-5-6.2-9-6.2-3 0-5.9 1.6-8.7 4.8V287l3.8-5.2-21.7-3.4 2.1 8.1-.8 28.6c5.8-.7 11.7-1.4 17.7-2l.1-.3c.4-1.4 1.7-2.1 4-2.1.5.4.8 1.1 1.1 1.9 5.5-.6 11-1.1 16.7-1.6 1.3-2.2 2.8-3.4 4.3-3.6.4.9.8 2 1.1 3.1 5-.4 10.1-.8 15.2-1.1-.1-.6-.1-1.3-.2-1.9-2.2-16.3-6.7-24.8-13.4-25.6z"/><path id="path464_4_" class="st2" d="M154.7 317.2v.7c1.4-.2 2.9-.4 4.3-.6l-4-1.9c-.2.3-.3.9-.3 1.8z"/><path id="path466_5_" class="st2" d="M147.8 265.8c-7-.8-11.9 4-14.8 14.1-1.9 6.3-2.8 14.1-2.8 23.2 0 7.1.4 13.2 1.1 18.5 4.5-.8 9-1.5 13.7-2.3-.6-2.6-1-5.8-1.3-9.6l28.4-2.6 2.3-8c-9.2-21.4-18.1-32.5-26.6-33.3zm-2.2 31c.7-5.9 2-9.3 4-10.2 1.9.4 3.3 1.7 4.2 3.9.9 2.4 1.6 4.3 2.1 5.6l-10.3.7z"/><path id="path468_5_" class="st2" d="M437.4 305.3c-1.5-13.3-4.8-22.3-10-27-3-2.8-6.2-4.2-9.5-4.2-3.7 0-7.5 1.7-11.4 5.2v-1.8l1.8-9-18.8-.3 1.3 8.7-.9 30.9c5.3.3 10.6.6 15.8.9l.2-5.5c4.2-8.1 8-12.3 11.5-12.6 3 2.6 4.8 9 5.4 19.3 5.1.4 10.2.8 15.2 1.3-.3-2.3-.4-4.3-.6-5.9z"/><path id="path470_5_" class="st2" d="M356.9 267.3c-1.4 0-6.1.7-14 2l-8.2.6 6.7 18.7 6.4-4.3c2.5-1.7 5.2-2.5 8.2-2.5 4.7 0 8.3 1.9 10.9 5.6-15.4 4.8-25.3 11.1-29.6 19 7.7.1 15.4.2 22.9.4 2.5-1.2 5.5-2.4 9-3.5-.1 1.3-.2 2.5-.3 3.8 5.3.2 10.6.4 15.8.6.1-1.6.3-3.2.5-4.9.2-1.9.3-3.6.3-5.2 0-9.3-2.4-16.6-7.2-22-5.2-5.5-12.3-8.3-21.4-8.3z"/><path id="path472_5_" class="st2" d="M308.7 265.8c-7-.8-12 4-14.9 14.1-1.8 6.3-2.7 14.1-2.7 23.2v3.6c11.1-.3 22.4-.4 33.7-.4h4.2l5.6-9.4c-8.7-19.8-17.4-30.2-25.9-31.1zm-4.1 28c.7-5.9 2-9.3 4.1-10.2 1.7.3 3.1 1.6 4.2 3.8.3.5 1 2.4 2.2 5.7l-10.5.7z"/><path id="path474_5_" class="st2" d="M266.5 276.9c-3.6 0-7.5.7-11.7 2.1v-16.5l1.5-7.6-19.3.4 1.9 7.5.5 46.4c5.3-.4 10.7-.7 16.1-1v-12.1c4.2-2.3 8-3.4 11.2-3.4 4 0 6.1 4.1 6.1 12.4 0 .7 0 1.5-.1 2.3 5.2-.2 10.3-.4 15.6-.5 0-.6.1-1.2.1-1.8 0-8.1-1.6-14.6-4.7-19.5-3.9-5.8-9.6-8.7-17.2-8.7z"/></g></svg>