<?xml version="1.0" standalone="no"?>
<!DOCTYPE svg PUBLIC "-//W3C//DTD SVG 20010904//EN"
 "http://www.w3.org/TR/2001/REC-SVG-20010904/DTD/svg10.dtd">
<svg version="1.0" xmlns="http://www.w3.org/2000/svg"
 width="700.000000pt" height="700.000000pt" viewBox="0 0 700.000000 700.000000"
 preserveAspectRatio="xMidYMid meet">
<metadata>
Created by potrace 1.11, written by Peter Selinger 2001-2013
</metadata>
<g transform="translate(0.000000,700.000000) scale(0.100000,-0.100000)"
fill="#000000" stroke="none">
<path d="M0 3500 l0 -3500 3500 0 3500 0 0 3500 0 3500 -3500 0 -3500 0 0
-3500z m3570 3145 c54 -28 60 -54 60 -268 0 -218 -4 -207 75 -207 65 0 255
-28 375 -55 457 -103 843 -303 1217 -632 l59 -52 110 111 c145 147 197 188
238 188 38 0 56 -15 56 -47 0 -42 -26 -75 -164 -213 -75 -74 -136 -138 -136
-143 0 -4 19 -29 43 -55 220 -239 419 -585 531 -924 71 -215 98 -357 132 -680
l5 -58 200 0 c159 0 206 -3 229 -15 32 -17 60 -61 60 -95 0 -34 -28 -78 -60
-95 -23 -12 -70 -15 -229 -15 l-199 0 -6 -37 c-3 -21 -8 -74 -11 -118 -10
-118 -50 -324 -90 -466 -94 -327 -274 -674 -480 -924 -36 -44 -77 -95 -92
-113 l-26 -33 155 -157 c97 -98 158 -167 162 -185 8 -33 -6 -63 -33 -72 -39
-12 -92 26 -239 169 l-149 146 -29 -31 c-52 -55 -257 -216 -374 -294 -130 -86
-387 -217 -531 -269 -197 -72 -419 -125 -614 -146 -55 -6 -119 -13 -142 -16
l-43 -5 0 -205 c0 -226 -5 -251 -60 -279 -37 -19 -63 -19 -100 0 -58 30 -60
40 -60 272 l0 213 -22 0 c-57 0 -304 31 -402 50 -412 80 -822 270 -1144 530
-53 43 -118 96 -143 118 l-46 41 -114 -116 c-151 -152 -202 -193 -243 -193
-38 0 -56 15 -56 48 0 40 18 62 168 214 l146 147 -76 88 c-255 299 -438 636
-543 1002 -40 142 -80 348 -90 466 -3 44 -8 97 -11 118 l-6 37 -199 0 c-221 0
-246 6 -274 60 -19 37 -19 63 0 100 28 54 53 60 274 60 l200 0 5 53 c35 358
76 546 171 797 96 254 284 571 459 775 47 55 86 102 86 105 0 3 -65 70 -145
149 -115 114 -146 150 -151 178 -9 49 12 67 75 64 16 -1 70 -47 172 -147 l148
-147 57 49 c187 163 379 296 564 392 291 152 679 266 975 287 44 3 99 8 123
11 l42 5 0 200 c0 123 4 208 11 220 14 26 68 59 97 59 13 0 36 -7 52 -15z"/>
<path d="M3484 6096 c-52 -23 -61 -90 -18 -133 21 -21 32 -24 62 -19 68 10 95
80 50 130 -30 32 -56 38 -94 22z"/>
<path d="M3210 5809 c-333 -43 -718 -184 -982 -362 -102 -68 -269 -199 -303
-237 l-20 -22 280 -274 c154 -151 393 -385 532 -520 l252 -245 59 40 c32 22
88 54 123 71 62 29 203 70 241 70 17 0 18 28 18 745 l0 745 -67 -1 c-38 -1
-97 -5 -133 -10z"/>
<path d="M3632 5074 l3 -746 71 -18 c93 -24 192 -69 269 -125 35 -25 67 -45
71 -45 4 0 190 181 413 403 223 221 460 455 526 519 l120 117 -25 26 c-14 15
-65 60 -115 100 -259 210 -575 369 -898 451 -105 27 -337 64 -400 64 l-37 0 2
-746z"/>
<path d="M1705 5348 c-50 -27 -60 -80 -22 -124 31 -35 77 -37 112 -4 67 63
-10 172 -90 128z"/>
<path d="M5247 5340 c-50 -39 -42 -110 15 -134 22 -10 40 -11 59 -4 35 12 47
27 55 66 5 26 1 36 -24 62 -35 35 -69 38 -105 10z"/>
<path d="M1720 4993 c-226 -273 -392 -607 -475 -953 -30 -126 -55 -294 -55
-372 l0 -58 743 0 742 0 22 91 c26 107 66 197 127 284 l44 64 -509 501 c-280
276 -520 511 -534 521 l-24 20 -81 -98z"/>
<path d="M4668 4557 l-527 -522 30 -40 c51 -67 108 -195 132 -292 l22 -93 742
0 743 0 0 56 c0 135 -55 406 -122 604 -49 147 -167 386 -256 518 -69 103 -219
292 -231 291 -3 0 -243 -235 -533 -522z"/>
<path d="M3424 3831 c-95 -25 -186 -100 -227 -189 -32 -68 -31 -197 2 -269 28
-62 102 -136 169 -166 69 -32 209 -31 270 1 67 35 129 98 159 161 24 48 28 68
28 141 0 72 -4 93 -28 141 -32 67 -100 132 -165 161 -50 23 -157 32 -208 19z"/>
<path d="M959 3577 c-64 -49 -36 -147 42 -147 41 0 58 10 75 42 18 36 12 70
-18 98 -24 22 -74 26 -99 7z"/>
<path d="M5972 3583 c-22 -9 -44 -63 -37 -94 16 -71 117 -83 151 -17 35 68
-39 141 -114 111z"/>
<path d="M1190 3346 c0 -99 35 -304 81 -467 56 -202 157 -429 273 -613 59 -93
198 -276 240 -315 l25 -24 530 523 529 523 -38 51 c-65 87 -116 206 -144 339
l-6 27 -745 0 -745 0 0 -44z"/>
<path d="M4314 3363 c-27 -126 -77 -246 -138 -332 l-31 -44 141 -136 c78 -75
315 -307 528 -516 213 -209 391 -381 396 -383 11 -4 163 187 232 293 201 308
340 713 365 1058 l6 87 -746 0 -747 0 -6 -27z"/>
<path d="M3995 2849 c-85 -67 -218 -127 -337 -153 l-28 -6 0 -745 0 -745 46 0
c26 0 94 7 153 16 354 52 678 177 973 375 88 60 244 185 286 231 l22 25 -282
279 c-156 153 -393 388 -528 521 -135 134 -248 243 -250 242 -3 0 -27 -18 -55
-40z"/>
<path d="M2934 2847 c-11 -12 -247 -246 -525 -521 l-504 -498 55 -51 c129
-119 326 -251 518 -347 239 -120 539 -205 792 -225 41 -3 90 -8 108 -11 l32
-5 0 746 c0 588 -3 746 -12 749 -7 2 -47 12 -88 21 -88 20 -222 80 -290 130
-26 19 -52 35 -56 34 -5 0 -18 -10 -30 -22z"/>
<path d="M5236 1819 c-29 -34 -32 -50 -14 -82 17 -32 39 -46 74 -47 41 0 72
26 80 67 5 27 1 37 -24 63 -41 41 -81 41 -116 -1z"/>
<path d="M1714 1800 c-42 -17 -65 -71 -48 -115 8 -19 55 -45 84 -45 33 0 70
44 70 83 0 53 -59 96 -106 77z"/>
<path d="M3484 1096 c-51 -23 -61 -90 -19 -131 72 -73 182 33 113 109 -30 32
-56 38 -94 22z"/>
</g>
</svg>
