<svg width="217" height="74" viewBox="0 0 217 74" xmlns="http://www.w3.org/2000/svg"><title>Logo</title><defs><filter x="-6.4%" y="-14.7%" width="113%" height="129.4%" filterUnits="objectBoundingBox" id="a"><feOffset in="SourceAlpha" result="shadowOffsetOuter1"/><feGaussianBlur stdDeviation="3" in="shadowOffsetOuter1" result="shadowBlurOuter1"/><feColorMatrix values="0 0 0 0 0 0 0 0 0 0 0 0 0 0 0 0 0 0 0.2 0" in="shadowBlurOuter1" result="shadowMatrixOuter1"/><feMerge><feMergeNode in="shadowMatrixOuter1"/><feMergeNode in="SourceGraphic"/></feMerge></filter></defs><g fill="none" fill-rule="evenodd"><path fill="#2087C8" d="M0 68.673h63.673V5H0z"/><path d="M47.397 50.978l-9.687-9.505a7.496 7.496 0 0 0 1.578-3.631h13.6a20.996 20.996 0 0 1-5.49 13.136m1.526 1.606a.755.755 0 0 1-.754.754c-.072 0-.137-.023-.204-.041a.736.736 0 0 1-.506-.497c-.02-.07-.044-.14-.044-.216 0-.417.337-.754.754-.754.042 0 .079.017.12.024.312.052.55.286.607.597.009.045.027.086.027.133M33.01 57.802v-13.61a7.496 7.496 0 0 0 3.831-1.813l9.69 9.51a21.016 21.016 0 0 1-13.521 5.913m-15.688-5.75l9.659-9.537a7.502 7.502 0 0 0 4.018 1.727v13.576a21.005 21.005 0 0 1-13.677-5.766m-1.484 1.704c-.07 0-.136-.022-.202-.04a.744.744 0 0 1-.55-.713c0-.417.337-.754.752-.754.349 0 .63.24.716.561.017.063.038.125.038.193a.754.754 0 0 1-.754.753m-5.053-15.914h13.6a7.493 7.493 0 0 0 1.707 3.784l-9.654 9.531a21.002 21.002 0 0 1-5.653-13.315m-.894-1.089a.754.754 0 1 1-1.507 0 .754.754 0 0 1 1.507 0m6.543-14.4l9.68 9.5a7.505 7.505 0 0 0-1.754 3.979H10.776a21 21 0 0 1 5.658-13.479m-.596-2.436c.417 0 .754.338.754.754 0 .023-.01.042-.013.065a.748.748 0 0 1-1.494-.065c0-.388.299-.698.676-.738.026-.003.05-.016.077-.016M31 15.687v13.577a7.498 7.498 0 0 0-3.992 1.704l-9.69-9.509a21.004 21.004 0 0 1 13.682-5.771m15.441 5.847l-9.66 9.537a7.5 7.5 0 0 0-3.77-1.757v-13.61a21.01 21.01 0 0 1 13.43 5.83m1.615-1.595c.04-.006.074-.023.115-.023.416 0 .754.338.754.754 0 .078-.023.15-.045.222a.739.739 0 0 1-.495.489c-.069.02-.139.043-.214.043a.754.754 0 0 1-.754-.754c0-.045.02-.083.025-.125a.736.736 0 0 1 .614-.606m-16.05-5.3a.754.754 0 1 1 0-1.508.754.754 0 0 1 0 1.508m0 43.974a.754.754 0 1 1-.001 1.51.754.754 0 0 1 0-1.51m2.848-21.86a2.997 2.997 0 0 1-.417 1.504 3.024 3.024 0 0 1-.84.936c-.183.132-.375.25-.585.338-.36.152-.757.237-1.173.237-.293 0-.57-.055-.838-.133a2.97 2.97 0 0 1-.763-.336 3.03 3.03 0 0 1-.905-.872 3.039 3.039 0 0 1-.299-.586 2.99 2.99 0 0 1-.21-1.089c0-.324.065-.63.158-.921.092-.284.214-.553.38-.794A3.014 3.014 0 0 1 31 33.87c.267-.077.544-.133.837-.133a2.999 2.999 0 0 1 1.706.532 3.02 3.02 0 0 1 1.15 1.563c.094.292.159.597.159.921m18.046-.921H39.314a7.499 7.499 0 0 0-1.652-3.864l9.653-9.532a20.996 20.996 0 0 1 5.583 13.396m2.559.921a.754.754 0 1 1-1.508 0 .754.754 0 0 1 1.508 0m4.105-.921h-3.459a24.193 24.193 0 0 0-6.509-15.645l2.413-2.382c.394-.39.518-.907.274-1.153-.245-.247-.761-.131-1.158.26l-2.41 2.379a24.197 24.197 0 0 0-15.703-6.798v-3.38a1.005 1.005 0 1 0-2.01 0v3.37a24.197 24.197 0 0 0-15.965 6.738l-2.379-2.335c-.396-.389-.914-.504-1.157-.256-.242.248-.119.763.277 1.153l2.374 2.33a24.191 24.191 0 0 0-6.58 15.719H4.112a1.005 1.005 0 1 0 0 2.01h3.463a24.19 24.19 0 0 0 6.586 15.564l-2.495 2.463c-.394.39-.516.906-.274 1.153.245.246.762.131 1.158-.259l2.497-2.465A24.195 24.195 0 0 0 31 61.022v3.54a1.005 1.005 0 1 0 2.01 0v-3.549a24.2 24.2 0 0 0 15.8-6.889l2.544 2.496c.395.388.914.504 1.157.256.242-.248.119-.764-.278-1.153l-2.547-2.5a24.184 24.184 0 0 0 6.414-15.381h3.463a1.005 1.005 0 0 0 0-2.01" fill="#F4F5F5"/><g filter="url(#a)" transform="translate(70.522 6.451)" fill="#FFF"><path d="M7.674 1.197c3.406 0 6.16 2.712 6.16 6.954 0 5.017-3.203 6.73-5.65 6.73-3.63 0-6.179-2.855-6.199-7.138 0-3.773 2.182-6.546 5.69-6.546m.122 14.846c4.935-.02 7.973-3.67 7.973-8.382C15.77 3.4 12.711.055 8.042.055 2.862.055.048 3.97.048 8.192c0 3.67 2.426 7.871 7.749 7.85M20.604 1.625c0-.081 0-.122.081-.142.286-.062.857-.082 1.49-.082 2.344 0 3.731 1.325 3.731 3.487 0 1.468-.734 2.529-1.55 3.12-.265.184-.591.245-1.183.245-1.08 0-2.1-.061-2.508-.143-.04-.02-.061-.061-.061-.183V1.625zM18.89 9.843c0 2.652-.082 5.221-.204 5.914.224-.04.836-.06 1.203-.06.347 0 .714 0 .898.04-.103-.897-.184-3.1-.184-5.67v-.631c0-.082 0-.123.061-.123.897.02 2.366.041 2.794.02.102 0 .183.041.265.144.938 1.264 2.835 4.078 3.956 5.2.836.876 1.326 1.141 2.243 1.141.49 0 1.06-.02 1.326-.122-.388-.163-1.02-.693-1.876-1.652-1.407-1.509-2.896-3.568-4.201-5.302C26.824 7.6 27.66 6.172 27.66 4.4a3.922 3.922 0 0 0-1.815-3.345C24.968.504 23.663.32 22.276.32c-.714 0-2.284.082-2.692.082-.306 0-.57 0-.938-.04.204.672.245 2.976.245 5.892v3.59zM32.249 9.844c0 2.875-.102 5.18-.163 5.893.224-.02.693-.04 1.284-.04.775 0 2.305.121 5.14.121.774 0 .958-.02 1.04-.04a17.91 17.91 0 0 1 .387-1.59c-.571.285-1.448.427-3.385.427-.877 0-1.49-.061-1.958-.102-.184-.02-.408-.06-.47-.122-.101-.102-.142-.673-.142-4.69V8.233c0-.041.04-.082.082-.082.367 0 2.753.04 3.446.082.775.06 1.101.142 1.387.285-.021-.408.06-1.223.163-1.692-.204.06-.693.122-1.754.163-.571.02-2.977.02-3.242.02-.041 0-.082-.04-.082-.102V1.625c0-.06.061-.081.082-.081 1.753 0 2.936.04 3.548.102.979.081 1.386.183 1.631.326 0-.673.102-1.366.164-1.672-.368.081-1.204.102-1.632.102h-4.527c-.408 0-.958 0-1.203-.041.122.57.204 2.59.204 5.893v3.59zM49.95 16.043c1.753 0 3.752-.286 5.098-.897-.02-.204-.02-.551-.02-1.448v-2.141c0-1.367.06-2.957.122-3.467-.245.04-.571.06-1.142.06-.306 0-.694 0-.98-.02.123.45.246 1.877.246 2.957v2.57c0 .449-.02.591-.082.632-.57.326-1.794.49-2.753.49-1.427 0-3.691-.429-5.322-2.183-1.02-1.02-1.876-2.712-1.876-5.057 0-2.12.876-3.813 1.998-4.792 1.203-1.06 2.794-1.489 4.384-1.489 3.202 0 4.936 1.122 5.404 1.673 0-.714.143-1.693.225-1.999-.49-.102-2.508-.877-4.996-.877-1.387 0-3.753.061-5.853 1.55-1.51 1.02-3.161 3.018-3.161 6.342 0 2.365.897 4.262 2.04 5.486 1.61 1.774 4.098 2.61 6.668 2.61M59.595 7.743c0-3.773 2.182-6.546 5.69-6.546 3.405 0 6.158 2.712 6.158 6.954 0 5.017-3.201 6.73-5.649 6.73-3.63 0-6.178-2.855-6.199-7.138m13.786-.081c0-4.263-3.06-7.607-7.73-7.607-5.179 0-7.993 3.915-7.993 8.137 0 3.67 2.427 7.871 7.749 7.85 4.935-.02 7.974-3.67 7.974-8.38M78.173 15.737c-.163-1.611-.224-7.851-.265-12.236 2.264 2.407 8.035 9.32 9.707 11.012 1.122 1.163 1.489 1.53 1.632 1.53.122 0 .163-.163.163-1.917 0-.918-.02-1.856-.02-3.59 0-4.139.122-8.972.224-10.195-.143.02-.653.06-1.02.06-.265 0-.612 0-.795-.04.163 2.162.204 8.769.245 12.072-1.611-1.488-8.749-9.788-10.686-11.807-.408-.408-.57-.57-.653-.57-.122 0-.163.101-.163 1.202 0 3.65-.061 12.807-.224 14.5.143-.021.795-.062.999-.062a6 6 0 0 1 .856.041M5.717 37.073c-1.163 0-1.958-.204-2.162-.408-.061-.081-.102-.958-.102-4.486v-1.754c0-.04.02-.061.082-.081.183-.02 1.142-.02 1.794.02.857.04 1.713.184 2.427.755 1.142.877 1.346 1.815 1.346 2.732 0 2.223-1.652 3.222-3.385 3.222zM3.453 23.941c0-.062.02-.102.061-.123.143-.04.612-.081 1.285-.081 2.06 0 3.12 1.162 3.12 2.895 0 .897-.408 1.876-1.244 2.427-.245.163-.408.184-.775.184-.326 0-1.978-.02-2.365-.041-.061-.02-.082-.061-.082-.102v-5.16zm4.14 5.567c.877-.49 1.957-1.57 1.957-3.284 0-1.509-.856-3.568-4.323-3.568-1.02 0-2.019.081-2.773.081-.286 0-.653-.02-.918-.04.143.734.204 2.977.204 5.893v3.589c0 2.651-.061 5.078-.143 5.893.306-.02.877-.04 1.183-.02.47.02 1.448.143 2.855.143 3.61 0 5.302-2.243 5.302-4.588 0-2.325-1.631-3.59-3.344-4.1zM20.807 37.216c-3.63 0-6.179-2.855-6.2-7.137 0-3.773 2.183-6.546 5.69-6.546 3.406 0 6.159 2.712 6.159 6.954 0 5.016-3.202 6.73-5.649 6.73m-.143-14.826c-5.18 0-7.994 3.915-7.994 8.136 0 3.671 2.427 7.872 7.75 7.851 4.935-.02 7.973-3.67 7.973-8.381 0-4.262-3.059-7.606-7.729-7.606M37.897 31.486h-4.548c-.04 0-.061-.02-.04-.082l2.222-5.934 2.406 5.934c.02.061 0 .082-.04.082m-1.652-8.26c-.286-.672-.388-.835-.49-.835-.122 0-.224.244-.469.836L31.25 33.239c-.816 1.979-1.591 3.773-2.1 4.854.162-.02.672-.061 1.08-.061.428 0 .612 0 .816.04.244-.958 1.182-3.568 1.815-5.342.02-.041.04-.061.102-.061h5.363c.061 0 .061.02.081.06.694 1.653 1.815 4.426 2.141 5.364.245-.04.816-.061 1.326-.061.225 0 .571.02.938.04-.53-.795-1.672-3.446-2.59-5.628a916.475 916.475 0 0 0-3.976-9.217M46.135 32.18c0 2.65-.06 5.22-.163 5.913.347-.04.775-.061 1.245-.061.305 0 .631 0 .835.04-.081-.733-.163-3.303-.163-5.893v-8.3c1.55 0 2.509.041 3.243.082 1.346.081 1.916.183 2.243.387.02-.611.102-1.325.204-1.774-.367.102-1.856.163-3.039.163h-6.627c-1.754 0-2.509-.06-2.998-.183-.04.428-.224 1.366-.326 1.692.53-.183 1.387-.265 2.733-.326 1.345-.04 1.876-.04 2.813-.04v8.3zM55.435 28.57v3.61c0 2.65-.061 5.22-.143 5.913.184-.02.775-.061 1.183-.061.326 0 .714.02.897.04-.122-.59-.183-3.303-.183-5.893v-3.59c0-2.895.081-5.158.142-5.913-.142.02-.652.061-1.223.061-.245 0-.673 0-.857-.02.143.51.184 2.957.184 5.853M63.408 25.837c2.264 2.406 8.035 9.32 9.707 11.012 1.122 1.162 1.489 1.53 1.632 1.53.122 0 .163-.164.163-1.918 0-.917-.02-1.855-.02-3.589 0-4.14.122-8.972.224-10.196-.143.02-.653.061-1.02.061-.265 0-.612 0-.795-.04.163 2.161.204 8.768.245 12.072-1.611-1.489-8.749-9.788-10.686-11.807-.408-.408-.571-.571-.653-.571-.122 0-.163.102-.163 1.203 0 3.65-.061 12.806-.224 14.499.143-.02.795-.061.999-.061.286 0 .571 0 .856.04-.162-1.61-.224-7.85-.265-12.235M81.967 25.083c1.203-1.06 2.794-1.49 4.384-1.49 3.202 0 4.935 1.122 5.404 1.673 0-.714.143-1.693.224-1.998-.49-.102-2.508-.877-4.996-.877-1.386 0-3.752.061-5.852 1.55-1.51 1.02-3.161 3.018-3.161 6.342 0 2.365.897 4.262 2.039 5.485 1.611 1.774 4.099 2.61 6.668 2.61 1.754 0 3.752-.285 5.098-.897-.02-.204-.02-.55-.02-1.448v-2.141c0-1.366.061-2.957.122-3.467-.244.041-.57.062-1.142.062-.306 0-.693 0-.978-.021.122.449.244 1.876.244 2.957v2.57c0 .448-.02.591-.081.632-.571.326-1.795.489-2.753.489-1.428 0-3.692-.428-5.323-2.182-1.02-1.02-1.876-2.712-1.876-5.057 0-2.121.877-3.814 1.999-4.792M2.8 45.268c-.407 0-.897-.02-1.243-.04.122.59.204 2.59.204 5.893v3.589c0 2.875-.102 5.302-.184 5.913.204-.02.816-.06 1.162-.06.51 0 .755.02.938.04-.101-.652-.183-4.506-.183-5.914v-1.325c0-.082.02-.102.061-.102 1.428 0 2.916.04 3.61.081.713.041 1.08.123 1.345.265.021-.55.103-1.427.164-1.692-.204.061-.612.122-1.734.143-.57.02-3.1.04-3.364.04-.062 0-.082-.02-.082-.102 0-1.774.02-3.731.04-5.505 0-.062.042-.082.062-.082 1.754 0 3.222.061 3.854.102 1.02.081 1.305.142 1.57.265.02-.367.062-1.101.143-1.611-.346.061-1.08.102-1.59.102H2.8zM18.625 59.747c-3.63 0-6.179-2.855-6.2-7.138 0-3.772 2.183-6.545 5.69-6.545 3.406 0 6.159 2.711 6.159 6.953 0 5.017-3.202 6.73-5.649 6.73m-.143-14.826c-5.18 0-7.994 3.916-7.994 8.137 0 3.67 2.427 7.871 7.75 7.85 4.935-.02 7.973-3.67 7.973-8.38 0-4.262-3.059-7.607-7.729-7.607M39.467 45.227c.102.734.224 2.978.224 5.894v2.406c0 2.345-.244 3.834-1.284 4.935-.775.856-2.04 1.101-2.957 1.101-.959 0-2.223-.143-3.181-1.06-.857-.796-1.448-1.856-1.448-4.548v-2.834c0-2.896.081-5.282.163-5.914-.245.04-.714.06-1.285.06-.306 0-.652 0-.836-.04.122.51.204 2.978.204 5.894v3.201c0 2.937.714 4.262 1.733 5.22 1.101 1.02 2.794 1.367 4.2 1.367 1.347 0 2.917-.204 4.14-1.285 1.714-1.509 1.938-3.752 1.938-6.138v-2.365c0-2.896.102-5.282.184-5.914-.102.02-.551.06-.98.06-.203 0-.59 0-.815-.04M57.433 45.268c-.265 0-.611 0-.795-.04.163 2.161.204 8.768.245 12.072-1.611-1.49-8.749-9.79-10.686-11.808-.408-.408-.57-.57-.652-.57-.123 0-.164.101-.164 1.202 0 3.65-.06 12.807-.224 14.5.143-.02.795-.062 1-.062.285 0 .57 0 .856.041-.163-1.61-.225-7.851-.265-12.235 2.263 2.406 8.034 9.319 9.707 11.012 1.121 1.162 1.488 1.529 1.63 1.529.123 0 .164-.163.164-1.917 0-.918-.02-1.856-.02-3.589 0-4.14.122-8.973.224-10.196-.143.02-.652.06-1.02.06M72.545 58.279c-1.142.978-2.753 1.386-4.425 1.386-1.673 0-2.896-.244-3.181-.47-.082-.06-.103-.284-.123-.692-.02-.551-.04-2.223-.04-4.385v-3.1c0-2.1 0-4.078.04-4.465 0-.061.02-.102.082-.143.306-.082 1.121-.163 1.876-.163 2.61 0 4.996.652 6.403 2.365 1.06 1.305 1.448 2.876 1.448 4.63 0 2.284-.918 4.058-2.08 5.037m-5.73-13.092c-1.346 0-2.509.08-2.998.08-.326 0-.775-.02-.979-.04.082.47.184 2.04.184 5.853v3.752c0 3.038-.082 4.894-.123 5.75.877-.06 1.693.041 2.672.144a28.1 28.1 0 0 0 2.365.101c3.549 0 5.465-1.366 6.444-2.365 1.142-1.203 2.141-3.12 2.141-5.73 0-2.427-.917-4.1-1.937-5.16-2.019-2.06-5.118-2.385-7.77-2.385M86.045 54.016h-4.547c-.041 0-.062-.02-.041-.081L83.68 48l2.406 5.935c.02.06 0 .081-.041.081m-1.652-8.259c-.285-.672-.387-.836-.49-.836-.122 0-.223.245-.468.836L79.397 55.77c-.816 1.978-1.59 3.773-2.1 4.854.163-.021.673-.062 1.08-.062.429 0 .612 0 .816.041.245-.958 1.183-3.569 1.815-5.343.02-.04.04-.06.102-.06h5.363c.062 0 .062.02.082.06.693 1.652 1.815 4.425 2.141 5.364.245-.041.816-.062 1.325-.062.225 0 .572.02.939.041-.53-.795-1.672-3.446-2.59-5.628a923.821 923.821 0 0 0-3.977-9.218M92.061 45.268c-1.754 0-2.508-.061-2.998-.184-.04.429-.224 1.367-.326 1.693.53-.184 1.387-.265 2.733-.326 1.346-.04 1.876-.04 2.814-.04v8.299c0 2.65-.062 5.22-.163 5.913.346-.04.775-.06 1.244-.06.306 0 .632 0 .836.04-.082-.734-.164-3.303-.164-5.893v-8.3c1.55 0 2.509.04 3.243.082 1.346.08 1.917.183 2.243.387.02-.612.102-1.326.204-1.774-.367.102-1.856.163-3.038.163H92.06zM105.337 51.12c0-2.895.081-5.159.143-5.913-.143.02-.653.06-1.224.06-.245 0-.673 0-.856-.02.142.51.183 2.958.183 5.853v3.61c0 2.65-.061 5.22-.142 5.913.183-.02.775-.06 1.182-.06.326 0 .714.02.898.04-.123-.591-.184-3.303-.184-5.893v-3.59zM116.573 59.747c-3.63 0-6.178-2.855-6.199-7.138 0-3.772 2.182-6.545 5.69-6.545 3.405 0 6.158 2.711 6.158 6.953 0 5.017-3.201 6.73-5.649 6.73m-.142-14.826c-5.18 0-7.994 3.916-7.994 8.137 0 3.67 2.427 7.871 7.749 7.85 4.935-.02 7.974-3.67 7.974-8.38 0-4.262-3.06-7.607-7.73-7.607M140.393 45.207c-.143.02-.653.06-1.02.06-.265 0-.612 0-.795-.04.163 2.162.204 8.769.245 12.073-1.611-1.49-8.749-9.79-10.686-11.808-.408-.408-.571-.57-.653-.57-.122 0-.163.101-.163 1.202 0 3.65-.061 12.807-.224 14.5.142-.02.795-.062.999-.062.285 0 .571 0 .857.041-.163-1.61-.225-7.851-.266-12.235 2.264 2.406 8.035 9.319 9.707 11.012 1.122 1.162 1.489 1.529 1.631 1.529.123 0 .164-.163.164-1.917 0-.918-.02-1.856-.02-3.589 0-4.14.121-8.973.224-10.196"/></g></g></svg>