<svg width="24" height="24" viewBox="0 0 24 24" xmlns="http://www.w3.org/2000/svg"><title>Logo</title><g fill="none" fill-rule="evenodd"><path fill="#2087C8" d="M0 23.935h23.935V0H0z"/><path d="M17.816 17.283l-3.641-3.573c.31-.385.519-.853.593-1.365h5.113a7.892 7.892 0 0 1-2.065 4.938m.574.604a.284.284 0 0 1-.283.283c-.027 0-.052-.008-.077-.015a.277.277 0 0 1-.19-.187c-.008-.026-.016-.053-.016-.081 0-.157.126-.284.283-.284.016 0 .03.006.045.01.117.019.207.107.228.224.003.016.01.032.01.05m-5.982 1.96v-5.115a2.818 2.818 0 0 0 1.44-.681l3.643 3.574a7.9 7.9 0 0 1-5.083 2.223m-5.897-2.162l3.631-3.584a2.82 2.82 0 0 0 1.51.65v5.102a7.896 7.896 0 0 1-5.14-2.168m-.558.641c-.027 0-.052-.008-.076-.015a.28.28 0 0 1-.208-.268c0-.157.127-.283.284-.283a.28.28 0 0 1 .268.21c.007.024.015.047.015.073a.283.283 0 0 1-.283.283m-1.9-5.982h5.112c.079.538.305 1.027.642 1.423L6.179 17.35a7.894 7.894 0 0 1-2.125-5.005m-.336-.409a.283.283 0 1 1-.567 0 .283.283 0 0 1 .567 0m2.46-5.413l3.638 3.57c-.353.414-.59.929-.66 1.497H4.052a7.894 7.894 0 0 1 2.126-5.067m-.223-.916c.156 0 .283.127.283.284 0 .008-.004.016-.005.024a.281.281 0 1 1-.308-.302c.01 0 .02-.006.03-.006m5.699-1.59v5.104a2.818 2.818 0 0 0-1.501.64L6.509 6.187a7.895 7.895 0 0 1 5.144-2.17m5.804 2.198L13.826 9.8a2.819 2.819 0 0 0-1.418-.66V4.024a7.898 7.898 0 0 1 5.049 2.191m.607-.599c.014-.002.027-.009.043-.009.156 0 .283.127.283.284 0 .03-.008.056-.017.083a.278.278 0 0 1-.185.184c-.026.008-.053.016-.081.016a.283.283 0 0 1-.283-.283c0-.017.007-.031.009-.047a.277.277 0 0 1 .23-.228M12.03 3.624a.283.283 0 1 1 0-.567.283.283 0 0 1 0 .567m0 16.53a.284.284 0 1 1 0 .567.284.284 0 0 1 0-.568m1.07-8.217a1.126 1.126 0 0 1-.156.566 1.137 1.137 0 0 1-.977.567c-.11 0-.214-.02-.314-.05a1.116 1.116 0 0 1-.74-.674 1.124 1.124 0 0 1-.079-.409c0-.122.024-.237.06-.346a1.13 1.13 0 0 1 .142-.299 1.133 1.133 0 0 1 .617-.439c.1-.029.204-.05.314-.05a1.127 1.127 0 0 1 .965.545c.046.076.081.157.109.243.035.11.06.224.06.346m6.783-.346h-5.106a2.819 2.819 0 0 0-.621-1.453l3.629-3.583a7.892 7.892 0 0 1 2.098 5.036m.962.346a.283.283 0 1 1-.567 0 .283.283 0 0 1 .567 0m1.543-.346h-1.3a9.094 9.094 0 0 0-2.447-5.881l.907-.896c.148-.146.195-.34.103-.433-.092-.093-.286-.05-.435.097l-.906.895a9.095 9.095 0 0 0-5.903-2.556v-1.27a.378.378 0 1 0-.755 0v1.267a9.096 9.096 0 0 0-6.001 2.532l-.895-.877c-.149-.146-.343-.19-.435-.096-.09.093-.044.287.105.433l.892.876a9.093 9.093 0 0 0-2.473 5.909h-1.3a.378.378 0 1 0 0 .755h1.301a9.093 9.093 0 0 0 2.476 5.85l-.938.927c-.148.146-.194.34-.103.433.092.093.287.05.436-.097l.938-.927a9.095 9.095 0 0 0 5.997 2.527v1.33a.378.378 0 1 0 .755 0v-1.333a9.096 9.096 0 0 0 5.939-2.59l.957.939c.148.146.343.19.434.096.091-.093.045-.287-.104-.433l-.958-.94a9.09 9.09 0 0 0 2.411-5.782h1.302a.378.378 0 0 0 0-.755" fill="#F4F5F5"/></g></svg>