<svg width="220" height="220" viewBox="0 0 220 220" xmlns="http://www.w3.org/2000/svg"><title>OBF Logo</title><g fill="none" fill-rule="evenodd"><path fill="#2087C8" d="M0 219.4h219.4V0H0z"/><path d="M163.317 158.428l-33.38-32.754a25.83 25.83 0 0 0 5.438-12.51h46.865c-.894 17.423-7.884 33.197-18.923 45.264m5.262 5.532a2.601 2.601 0 0 1-2.6 2.598c-.248 0-.472-.077-.703-.14a2.537 2.537 0 0 1-1.743-1.714c-.07-.239-.15-.479-.15-.744a2.597 2.597 0 0 1 2.597-2.599c.145 0 .27.06.412.085a2.525 2.525 0 0 1 2.093 2.056c.03.154.094.296.094.458m-54.837 17.98v-46.898a25.83 25.83 0 0 0 13.203-6.245l33.388 32.768c-12.19 11.834-28.505 19.377-46.591 20.374m-54.055-19.813l33.28-32.86a25.85 25.85 0 0 0 13.848 5.952v46.78c-18.245-.718-34.744-8.119-47.128-19.872M54.574 168c-.245 0-.47-.076-.696-.139-1.086-.31-1.9-1.269-1.9-2.457a2.597 2.597 0 0 1 2.596-2.598c1.2 0 2.167.83 2.465 1.935.059.217.134.43.134.663a2.598 2.598 0 0 1-2.6 2.596m-17.412-54.836h46.864a25.818 25.818 0 0 0 5.88 13.041l-33.264 32.84c-11.363-12.144-18.572-28.16-19.48-45.88m-3.08-3.75a2.597 2.597 0 1 1-5.194-.004 2.597 2.597 0 0 1 5.195.003m22.545-49.619l33.355 32.733a25.86 25.86 0 0 0-6.046 13.71H37.13c.778-17.94 8.016-34.169 19.496-46.443M54.574 51.4a2.598 2.598 0 0 1 2.599 2.597c0 .08-.038.147-.045.225-.12 1.324-1.197 2.375-2.554 2.375a2.598 2.598 0 0 1-2.595-2.6c0-1.338 1.03-2.404 2.328-2.544.092-.008.173-.053.267-.053m52.24-14.574v46.78a25.835 25.835 0 0 0-13.757 5.873L59.669 56.714c12.384-11.764 28.889-19.168 47.146-19.888m53.205 20.15l-33.284 32.86a25.84 25.84 0 0 0-12.994-6.055V36.885c17.933.99 34.122 8.423 46.278 20.09m5.565-5.495c.134-.023.253-.08.395-.08a2.6 2.6 0 0 1 2.599 2.597c0 .271-.08.518-.156.765a2.546 2.546 0 0 1-1.704 1.685c-.238.072-.48.15-.74.15a2.597 2.597 0 0 1-2.596-2.6c0-.153.065-.284.086-.43a2.535 2.535 0 0 1 2.116-2.087m-55.308-18.262a2.599 2.599 0 1 1 .005-5.197 2.599 2.599 0 0 1-.005 5.197m0 151.522a2.6 2.6 0 0 1 2.599 2.596 2.6 2.6 0 0 1-2.6 2.6 2.598 2.598 0 0 1 0-5.195m9.813-75.328c0 1.326-.272 2.583-.725 3.75-.196.503-.442.973-.711 1.436a10.419 10.419 0 0 1-2.891 3.223c-.633.454-1.296.86-2.02 1.164a10.333 10.333 0 0 1-4.042.817c-1.007 0-1.963-.189-2.885-.457a10.233 10.233 0 0 1-2.63-1.159 10.44 10.44 0 0 1-3.118-3.004 10.47 10.47 0 0 1-1.031-2.02 10.304 10.304 0 0 1-.724-3.75c0-1.117.223-2.17.546-3.176.316-.979.736-1.905 1.31-2.734.832-1.2 1.92-2.19 3.17-2.949.767-.466 1.6-.82 2.477-1.076.922-.267 1.878-.458 2.885-.458 1.436 0 2.8.291 4.042.817a10.15 10.15 0 0 1 1.836 1.016c1.206.828 2.198 1.915 2.964 3.164.42.69.748 1.434 1 2.22.324 1.006.547 2.06.547 3.176m62.18-3.176h-46.805a25.84 25.84 0 0 0-5.692-13.312l33.262-32.844c11.327 12.241 18.466 28.354 19.236 46.156m8.818 3.176a2.598 2.598 0 0 1-5.194 0 2.597 2.597 0 1 1 5.194 0m14.145-3.176h-11.917c-.777-20.813-9.146-39.675-22.43-53.908l8.315-8.208c1.357-1.34 1.786-3.124.945-3.972-.844-.85-2.624-.45-3.99.893l-8.307 8.2c-14.154-13.68-33.11-22.428-54.107-23.425V14.17a3.463 3.463 0 1 0-6.927 0v11.617c-21.33.725-40.622 9.423-55.01 23.214l-8.196-8.045c-1.365-1.339-3.15-1.735-3.987-.88-.835.852-.408 2.63.956 3.971l8.18 8.026c-13.423 14.262-21.893 33.226-22.673 54.165H14.168a3.462 3.462 0 0 0-3.462 3.463 3.462 3.462 0 0 0 3.462 3.463H26.1c.915 20.735 9.373 39.493 22.696 53.63l-8.597 8.488c-1.36 1.342-1.78 3.121-.945 3.972.844.85 2.626.452 3.99-.892l8.604-8.496c14.382 13.768 33.662 22.448 54.967 23.171v12.195a3.463 3.463 0 1 0 6.927 0v-12.225c21.16-1.006 40.25-9.874 54.438-23.739l8.769 8.6c1.359 1.34 3.149 1.736 3.986.882.835-.854.408-2.63-.957-3.97l-8.778-8.616c12.984-14.058 21.2-32.575 22.1-53h11.933a3.462 3.462 0 0 0 3.46-3.463 3.461 3.461 0 0 0-3.46-3.463" fill="#F4F5F5"/></g></svg>