<?xml version="1.0" encoding="UTF-8"?>
<svg width="727px" height="220px" viewBox="0 0 727 220" version="1.1" xmlns="http://www.w3.org/2000/svg" xmlns:xlink="http://www.w3.org/1999/xlink">
    <title>OBF Logo</title>
    <g id="Rack-Card" stroke="none" stroke-width="1" fill="none" fill-rule="evenodd" transform="translate(-10.000000, -10.000000)">
        <g id="Logo" transform="translate(10.000000, 10.000000)">
            <g id="Mark">
                <polygon id="Blue" fill="#2087C8" points="0 219.4 219.4 219.4 219.4 0 0 0"></polygon>
                <path d="M163.3169,158.4282 L129.9379,125.6742 C132.7789,122.1452 134.6939,117.8552 135.3749,113.1632 L182.2399,113.1632 C181.3459,130.5872 174.3559,146.3612 163.3169,158.4282 M168.5789,163.9602 C168.5789,165.3922 167.4139,166.5582 165.9799,166.5582 C165.7309,166.5582 165.5069,166.4812 165.2759,166.4172 C164.4319,166.1752 163.7889,165.5412 163.5329,164.7042 C163.4629,164.4652 163.3829,164.2252 163.3829,163.9602 C163.3829,162.5252 164.5439,161.3612 165.9799,161.3612 C166.1249,161.3612 166.2509,161.4202 166.3919,161.4462 C167.4679,161.6232 168.2879,162.4322 168.4849,163.5022 C168.5149,163.6562 168.5789,163.7982 168.5789,163.9602 M113.7419,181.9392 L113.7419,135.0422 C118.7689,134.2532 123.3119,132.0352 126.9449,128.7972 L160.3329,161.5652 C148.1429,173.3992 131.8279,180.9422 113.7419,181.9392 M59.6869,162.1262 L92.9679,129.2652 C96.7969,132.4942 101.5669,134.6382 106.8149,135.2182 L106.8149,181.9972 C88.5699,181.2802 72.0709,173.8792 59.6869,162.1262 M54.5739,167.9992 C54.3289,167.9992 54.1049,167.9232 53.8779,167.8602 C52.7919,167.5502 51.9789,166.5912 51.9789,165.4032 C51.9789,163.9672 53.1419,162.8052 54.5739,162.8052 C55.7749,162.8052 56.7409,163.6342 57.0389,164.7402 C57.0979,164.9572 57.1729,165.1692 57.1729,165.4032 C57.1729,166.8372 56.0089,167.9992 54.5739,167.9992 M37.1609,113.1632 L84.0249,113.1632 C84.7429,118.0962 86.8209,122.5792 89.9049,126.2042 L56.6409,159.0442 C45.2779,146.9002 38.0689,130.8832 37.1609,113.1632 M34.0819,109.4132 C34.0819,110.8452 32.9189,112.0092 31.4869,112.0092 C30.0519,112.0092 28.8869,110.8452 28.8869,109.4132 C28.8869,107.9772 30.0519,106.8152 31.4869,106.8152 C32.9189,106.8152 34.0819,107.9772 34.0819,109.4132 M56.6269,59.7942 L89.9819,92.5272 C86.7409,96.3122 84.5709,101.0332 83.9359,106.2372 L37.1309,106.2372 C37.9089,88.2962 45.1469,72.0682 56.6269,59.7942 M54.5739,51.4002 C56.0089,51.4002 57.1729,52.5632 57.1729,53.9972 C57.1729,54.0762 57.1349,54.1442 57.1279,54.2222 C57.0089,55.5462 55.9309,56.5972 54.5739,56.5972 C53.1419,56.5972 51.9789,55.4332 51.9789,53.9972 C51.9789,52.6592 53.0089,51.5932 54.3069,51.4532 C54.3989,51.4452 54.4799,51.4002 54.5739,51.4002 M106.8149,36.8262 L106.8149,83.6052 C101.6099,84.1812 96.8689,86.2902 93.0569,89.4792 L59.6689,56.7142 C72.0529,44.9502 88.5579,37.5462 106.8149,36.8262 M160.0199,56.9752 L126.7359,89.8352 C123.1389,86.7012 118.6709,84.5532 113.7419,83.7812 L113.7419,36.8852 C131.6749,37.8742 147.8639,45.3082 160.0199,56.9752 M165.5849,51.4802 C165.7189,51.4572 165.8379,51.4002 165.9799,51.4002 C167.4139,51.4002 168.5789,52.5632 168.5789,53.9972 C168.5789,54.2682 168.4999,54.5152 168.4229,54.7622 C168.1649,55.5802 167.5379,56.1982 166.7189,56.4472 C166.4809,56.5192 166.2399,56.5972 165.9799,56.5972 C164.5439,56.5972 163.3829,55.4332 163.3829,53.9972 C163.3829,53.8442 163.4479,53.7132 163.4689,53.5672 C163.6599,52.4812 164.4909,51.6542 165.5849,51.4802 M110.2769,33.2182 C108.8439,33.2182 107.6809,32.0532 107.6809,30.6202 C107.6809,29.1842 108.8439,28.0212 110.2769,28.0212 C111.7109,28.0212 112.8759,29.1842 112.8759,30.6202 C112.8759,32.0532 111.7109,33.2182 110.2769,33.2182 M110.2769,184.7402 C111.7109,184.7402 112.8759,185.9042 112.8759,187.3362 C112.8759,188.7702 111.7109,189.9352 110.2769,189.9352 C108.8439,189.9352 107.6809,188.7702 107.6809,187.3362 C107.6809,185.9042 108.8439,184.7402 110.2769,184.7402 M120.0889,109.4132 C120.0889,110.7392 119.8169,111.9962 119.3639,113.1632 C119.1679,113.6662 118.9219,114.1362 118.6529,114.5992 C117.9169,115.8672 116.9429,116.9662 115.7619,117.8222 C115.1289,118.2762 114.4659,118.6812 113.7419,118.9862 C112.4999,119.5122 111.1359,119.8032 109.6999,119.8032 C108.6929,119.8032 107.7369,119.6142 106.8149,119.3462 C105.8789,119.0742 104.9919,118.6972 104.1859,118.1872 C102.9519,117.4072 101.8779,116.3962 101.0669,115.1832 C100.6469,114.5572 100.3149,113.8742 100.0359,113.1632 C99.5819,111.9962 99.3119,110.7392 99.3119,109.4132 C99.3119,108.2962 99.5349,107.2432 99.8579,106.2372 C100.1739,105.2582 100.5939,104.3322 101.1679,103.5032 C101.9999,102.3022 103.0889,101.3122 104.3379,100.5542 C105.1049,100.0882 105.9379,99.7332 106.8149,99.4782 C107.7369,99.2112 108.6929,99.0202 109.6999,99.0202 C111.1359,99.0202 112.4999,99.3112 113.7419,99.8372 C114.3929,100.1122 115.0059,100.4562 115.5779,100.8532 C116.7839,101.6812 117.7759,102.7682 118.5419,104.0172 C118.9629,104.7072 119.2899,105.4512 119.5429,106.2372 C119.8659,107.2432 120.0889,108.2962 120.0889,109.4132 M182.2699,106.2372 L135.4639,106.2372 C134.8499,101.2182 132.8279,96.6382 129.7719,92.9252 L163.0339,60.0812 C174.3609,72.3222 181.4999,88.4352 182.2699,106.2372 M191.0879,109.4132 C191.0879,110.8452 189.9249,112.0092 188.4899,112.0092 C187.0579,112.0092 185.8939,110.8452 185.8939,109.4132 C185.8939,107.9772 187.0579,106.8152 188.4899,106.8152 C189.9249,106.8152 191.0879,107.9772 191.0879,109.4132 M205.2329,106.2372 L193.3159,106.2372 C192.5389,85.4242 184.1699,66.5622 170.8869,52.3292 L179.2009,44.1212 C180.5579,42.7802 180.9869,40.9972 180.1459,40.1492 C179.3019,39.2982 177.5219,39.6982 176.1569,41.0422 L167.8489,49.2422 C153.6949,35.5612 134.7389,26.8142 113.7419,25.8172 L113.7419,14.1692 C113.7419,12.2562 112.1919,10.7062 110.2769,10.7062 C108.3649,10.7062 106.8149,12.2562 106.8149,14.1692 L106.8149,25.7862 C85.4859,26.5112 66.1929,35.2092 51.8059,49.0002 L43.6089,40.9552 C42.2439,39.6162 40.4599,39.2202 39.6219,40.0752 C38.7869,40.9272 39.2139,42.7042 40.5779,44.0462 L48.7579,52.0722 C35.3349,66.3342 26.8649,85.2982 26.0849,106.2372 L14.1679,106.2372 C12.2559,106.2372 10.7059,107.7862 10.7059,109.7002 C10.7059,111.6132 12.2559,113.1632 14.1679,113.1632 L26.0999,113.1632 C27.0149,133.8982 35.4729,152.6562 48.7959,166.7922 L40.1989,175.2812 C38.8389,176.6232 38.4189,178.4022 39.2539,179.2532 C40.0979,180.1022 41.8799,179.7052 43.2439,178.3612 L51.8479,169.8652 C66.2299,183.6332 85.5099,192.3132 106.8149,193.0362 L106.8149,205.2312 C106.8149,207.1442 108.3649,208.6942 110.2769,208.6942 C112.1919,208.6942 113.7419,207.1442 113.7419,205.2312 L113.7419,193.0062 C134.9019,192.0002 153.9919,183.1322 168.1799,169.2672 L176.9489,177.8672 C178.3079,179.2062 180.0979,179.6032 180.9349,178.7492 C181.7699,177.8952 181.3429,176.1182 179.9779,174.7782 L171.1999,166.1632 C184.1839,152.1052 192.4009,133.5882 193.3009,113.1632 L205.2329,113.1632 C207.1439,113.1632 208.6939,111.6132 208.6939,109.7002 C208.6939,107.7862 207.1439,106.2372 205.2329,106.2372" id="Wheel" fill="#F4F5F5"></path>
            </g>
            <g id="Text" transform="translate(243.000000, 5.000000)" fill="#231F20">
                <path d="M26.4438,4.125 C38.1778,4.125 47.6648,13.47 47.6648,28.086 C47.6648,45.372 36.6328,51.274 28.2008,51.274 C15.6928,51.274 6.9098,41.437 6.8398,26.681 C6.8398,13.681 14.3578,4.125 26.4438,4.125 M26.8658,55.279 C43.8698,55.209 54.3398,42.631 54.3398,26.399 C54.3398,11.714 43.7998,0.19 27.7088,0.19 C9.8608,0.19 0.1638,13.681 0.1638,28.227 C0.1638,40.875 8.5258,55.349 26.8658,55.279" id="Fill-4"></path>
                <path d="M70.9951,5.6006 C70.9951,5.3196 70.9951,5.1786 71.2761,5.1086 C72.2601,4.8976 74.2271,4.8276 76.4061,4.8276 C84.4861,4.8276 89.2651,9.3946 89.2651,16.8436 C89.2651,21.9026 86.7351,25.5566 83.9241,27.5936 C83.0111,28.2266 81.8871,28.4366 79.8491,28.4366 C76.1251,28.4366 72.6111,28.2266 71.2061,27.9456 C71.0651,27.8746 70.9951,27.7346 70.9951,27.3126 L70.9951,5.6006 Z M65.0931,33.9176 C65.0931,43.0526 64.8121,51.9066 64.3901,54.2956 C65.1631,54.1546 67.2711,54.0846 68.5361,54.0846 C69.7301,54.0846 70.9951,54.0846 71.6281,54.2256 C71.2761,51.1336 70.9951,43.5446 70.9951,34.6906 L70.9951,32.5126 C70.9951,32.2316 70.9951,32.0906 71.2061,32.0906 C74.2981,32.1616 79.3571,32.2316 80.8321,32.1616 C81.1841,32.1616 81.4651,32.3016 81.7461,32.6536 C84.9781,37.0096 91.5131,46.7066 95.3781,50.5716 C98.2591,53.5926 99.9451,54.5056 103.1071,54.5056 C104.7931,54.5056 106.7611,54.4356 107.6751,54.0846 C106.3391,53.5226 104.1611,51.6956 101.2101,48.3926 C96.3621,43.1936 91.2321,36.0966 86.7351,30.1236 C92.4271,26.1886 95.3071,21.2696 95.3071,15.1566 C95.3071,10.0976 92.7071,5.9516 89.0541,3.6326 C86.0321,1.7356 81.5351,1.1036 76.7571,1.1036 C74.2981,1.1036 68.8871,1.3846 67.4821,1.3846 C66.4281,1.3846 65.5151,1.3846 64.2491,1.2446 C64.9521,3.5626 65.0931,11.5026 65.0931,21.5506 L65.0931,33.9176 Z" id="Fill-6"></path>
                <path d="M111.1196,33.918 C111.1196,43.826 110.7686,51.766 110.5576,54.225 C111.3306,54.155 112.9466,54.085 114.9846,54.085 C117.6546,54.085 122.9246,54.506 132.6916,54.506 C135.3616,54.506 135.9946,54.436 136.2756,54.366 C136.5566,52.96 137.1186,50.431 137.6106,48.885 C135.6426,49.869 132.6206,50.36 125.9466,50.36 C122.9246,50.36 120.8166,50.149 119.2006,50.009 C118.5676,49.939 117.7946,49.798 117.5846,49.587 C117.2326,49.236 117.0926,47.269 117.0926,33.426 L117.0926,28.367 C117.0926,28.227 117.2326,28.086 117.3736,28.086 C118.6386,28.086 126.8596,28.227 129.2486,28.367 C131.9186,28.578 133.0426,28.859 134.0266,29.351 C133.9556,27.945 134.2376,25.135 134.5886,23.519 C133.8856,23.73 132.2006,23.94 128.5456,24.081 C126.5776,24.151 118.2866,24.151 117.3736,24.151 C117.2326,24.151 117.0926,24.01 117.0926,23.799 L117.0926,5.601 C117.0926,5.39 117.3036,5.319 117.3736,5.319 C123.4166,5.319 127.4926,5.46 129.5996,5.671 C132.9726,5.952 134.3776,6.303 135.2216,6.795 C135.2216,4.476 135.5726,2.087 135.7836,1.033 C134.5186,1.314 131.6376,1.384 130.1616,1.384 L114.5626,1.384 C113.1576,1.384 111.2606,1.384 110.4166,1.244 C110.8386,3.211 111.1196,10.168 111.1196,21.551 L111.1196,33.918 Z" id="Fill-8"></path>
                <path d="M172.1123,55.2788 C178.1553,55.2788 185.0413,54.2958 189.6783,52.1878 C189.6083,51.4848 189.6083,50.2898 189.6083,47.1978 L189.6083,39.8208 C189.6083,35.1118 189.8193,29.6318 190.0303,27.8748 C189.1873,28.0158 188.0623,28.0858 186.0953,28.0858 C185.0413,28.0858 183.7063,28.0858 182.7223,28.0158 C183.1443,29.5618 183.5653,34.4798 183.5653,38.2038 L183.5653,47.0578 C183.5653,48.6038 183.4963,49.0958 183.2853,49.2358 C181.3173,50.3608 177.1013,50.9228 173.7993,50.9228 C168.8803,50.9228 161.0803,49.4468 155.4593,43.4038 C151.9463,39.8908 148.9953,34.0588 148.9953,25.9778 C148.9953,18.6698 152.0163,12.8378 155.8813,9.4658 C160.0263,5.8108 165.5083,4.3358 170.9883,4.3358 C182.0203,4.3358 187.9933,8.1998 189.6083,10.0978 C189.6083,7.6378 190.1003,4.2648 190.3823,3.2118 C188.6953,2.8598 181.7393,0.1898 173.1663,0.1898 C168.3883,0.1898 160.2373,0.4008 153.0003,5.5298 C147.8003,9.0438 142.1083,15.9298 142.1083,27.3828 C142.1083,35.5338 145.2003,42.0688 149.1343,46.2848 C154.6863,52.3978 163.2583,55.2788 172.1123,55.2788" id="Fill-10"></path>
                <path d="M205.3486,26.6807 C205.3486,13.6807 212.8676,4.1247 224.9526,4.1247 C236.6876,4.1247 246.1726,13.4707 246.1726,28.0857 C246.1726,45.3717 235.1416,51.2737 226.7086,51.2737 C214.2026,51.2737 205.4186,41.4367 205.3486,26.6807 M252.8486,26.3997 C252.8486,11.7137 242.3086,0.1897 226.2176,0.1897 C208.3696,0.1897 198.6726,13.6807 198.6726,28.2267 C198.6726,40.8747 207.0356,55.3487 225.3736,55.2787 C242.3786,55.2087 252.8486,42.6307 252.8486,26.3997" id="Fill-12"></path>
                <path d="M269.3633,54.2251 C268.8013,48.6741 268.5913,27.1721 268.4503,12.0651 C276.2503,20.3561 296.1353,44.1771 301.8973,50.0091 C305.7613,54.0141 307.0263,55.2791 307.5183,55.2791 C307.9403,55.2791 308.0813,54.7171 308.0813,48.6741 C308.0813,45.5121 308.0103,42.2801 308.0103,36.3071 C308.0103,22.0431 308.4313,5.3901 308.7833,1.1741 C308.2923,1.2441 306.5353,1.3841 305.2703,1.3841 C304.3563,1.3841 303.1623,1.3841 302.5293,1.2441 C303.0923,8.6921 303.2323,31.4581 303.3733,42.8421 C297.8223,37.7121 273.2283,9.1141 266.5523,2.1571 C265.1473,0.7521 264.5863,0.1901 264.3043,0.1901 C263.8833,0.1901 263.7423,0.5411 263.7423,4.3351 C263.7423,16.9131 263.5313,48.4631 262.9693,54.2951 C263.4613,54.2251 265.7103,54.0841 266.4123,54.0841 C267.3963,54.0841 268.3803,54.0841 269.3633,54.2251" id="Fill-14"></path>
                <path d="M19.6982,127.7437 C15.6932,127.7437 12.9522,127.0417 12.2502,126.3387 C12.0392,126.0577 11.8992,123.0367 11.8992,110.8797 L11.8992,104.8367 C11.8992,104.6967 11.9692,104.6257 12.1792,104.5557 C12.8122,104.4857 16.1152,104.4857 18.3632,104.6257 C21.3142,104.7667 24.2652,105.2587 26.7252,107.2257 C30.6602,110.2477 31.3632,113.4797 31.3632,116.6417 C31.3632,124.3017 25.6712,127.7437 19.6982,127.7437 Z M11.8992,82.4927 C11.8992,82.2817 11.9692,82.1407 12.1092,82.0707 C12.6012,81.9307 14.2172,81.7897 16.5362,81.7897 C23.6332,81.7897 27.2872,85.7947 27.2872,91.7667 C27.2872,94.8587 25.8822,98.2317 23.0012,100.1287 C22.1572,100.6917 21.5952,100.7617 20.3302,100.7617 C19.2062,100.7617 13.5142,100.6917 12.1792,100.6207 C11.9692,100.5507 11.8992,100.4107 11.8992,100.2697 L11.8992,82.4927 Z M26.1632,101.6747 C29.1842,99.9887 32.9082,96.2647 32.9082,90.3617 C32.9082,85.1617 29.9572,78.0657 18.0112,78.0657 C14.4982,78.0657 11.0552,78.3467 8.4552,78.3467 C7.4712,78.3467 6.2072,78.2757 5.2932,78.2057 C5.7852,80.7357 5.9962,88.4647 5.9962,98.5127 L5.9962,110.8797 C5.9962,120.0147 5.7852,128.3767 5.5042,131.1867 C6.5582,131.1167 8.5262,131.0467 9.5802,131.1167 C11.1962,131.1867 14.5692,131.6087 19.4172,131.6087 C31.8542,131.6087 37.6862,123.8797 37.6862,115.7987 C37.6862,107.7877 32.0652,103.4317 26.1632,101.6747 Z" id="Fill-16"></path>
                <path d="M71.6958,128.2359 C59.1878,128.2359 50.4048,118.3989 50.3348,103.6429 C50.3348,90.6429 57.8528,81.0869 69.9388,81.0869 C81.6738,81.0869 91.1598,90.4319 91.1598,105.0479 C91.1598,122.3339 80.1278,128.2359 71.6958,128.2359 M71.2038,77.1519 C53.3558,77.1519 43.6588,90.6429 43.6588,105.1889 C43.6588,117.8369 52.0208,132.3109 70.3608,132.2409 C87.3648,132.1719 97.8348,119.5929 97.8348,103.3609 C97.8348,88.6759 87.2948,77.1519 71.2038,77.1519" id="Fill-18"></path>
                <path d="M130.5811,108.4907 L114.9111,108.4907 C114.7701,108.4907 114.7001,108.4207 114.7701,108.2097 L122.4301,87.7617 L130.7211,108.2097 C130.7911,108.4207 130.7211,108.4907 130.5811,108.4907 M124.8891,80.0327 C123.9051,77.7137 123.5541,77.1517 123.2031,77.1517 C122.7811,77.1517 122.4301,77.9947 121.5861,80.0327 L107.6741,114.5337 C104.8631,121.3497 102.1931,127.5337 100.4361,131.2577 C100.9981,131.1867 102.7551,131.0467 104.1601,131.0467 C105.6361,131.0467 106.2691,131.0467 106.9711,131.1867 C107.8141,127.8847 111.0461,118.8897 113.2251,112.7767 C113.2951,112.6367 113.3651,112.5667 113.5761,112.5667 L132.0571,112.5667 C132.2671,112.5667 132.2671,112.6367 132.3371,112.7767 C134.7271,118.4697 138.5911,128.0247 139.7151,131.2577 C140.5591,131.1167 142.5261,131.0467 144.2821,131.0467 C145.0561,131.0467 146.2501,131.1167 147.5151,131.1867 C145.6881,128.4467 141.7531,119.3117 138.5911,111.7937 C132.5481,97.5297 125.6621,81.7897 124.8891,80.0327" id="Fill-20"></path>
                <path d="M158.9697,110.8799 C158.9697,120.0149 158.7587,128.8689 158.4077,131.2569 C159.6027,131.1169 161.0777,131.0469 162.6947,131.0469 C163.7477,131.0469 164.8717,131.0469 165.5747,131.1869 C165.2937,128.6579 165.0127,119.8039 165.0127,110.8799 L165.0127,82.2809 C170.3527,82.2809 173.6557,82.4219 176.1857,82.5629 C180.8227,82.8429 182.7897,83.1949 183.9137,83.8979 C183.9847,81.7899 184.2657,79.3299 184.6167,77.7839 C183.3527,78.1359 178.2227,78.3459 174.1477,78.3459 L151.3107,78.3459 C145.2677,78.3459 142.6677,78.1359 140.9817,77.7139 C140.8407,79.1899 140.2087,82.4219 139.8577,83.5459 C141.6847,82.9139 144.6357,82.6329 149.2737,82.4219 C153.9097,82.2809 155.7377,82.2809 158.9697,82.2809 L158.9697,110.8799 Z" id="Fill-22"></path>
                <path d="M191.0127,98.4424 L191.0127,110.8804 C191.0127,120.0154 190.8017,128.8684 190.5217,131.2574 C191.1537,131.1874 193.1917,131.0464 194.5967,131.0464 C195.7207,131.0464 197.0557,131.1164 197.6887,131.1874 C197.2667,129.1504 197.0557,119.8044 197.0557,110.8804 L197.0557,98.5124 C197.0557,88.5354 197.3367,80.7354 197.5477,78.1354 C197.0557,78.2064 195.2987,78.3464 193.3317,78.3464 C192.4887,78.3464 191.0127,78.3464 190.3807,78.2754 C190.8717,80.0324 191.0127,88.4644 191.0127,98.4424" id="Fill-24"></path>
                <path d="M218.4873,89.0269 C226.2873,97.3189 246.1733,121.1389 251.9343,126.9709 C255.7993,130.9759 257.0633,132.2409 257.5553,132.2409 C257.9773,132.2409 258.1183,131.6789 258.1183,125.6359 C258.1183,122.4739 258.0483,119.2419 258.0483,113.2689 C258.0483,99.0049 258.4683,82.3519 258.8203,78.1359 C258.3293,78.2059 256.5723,78.3459 255.3073,78.3459 C254.3933,78.3459 253.1993,78.3459 252.5663,78.2059 C253.1293,85.6539 253.2693,108.4209 253.4103,119.8039 C247.8593,114.6739 223.2653,86.0759 216.5903,79.1189 C215.1843,77.7139 214.6233,77.1519 214.3413,77.1519 C213.9203,77.1519 213.7793,77.5029 213.7793,81.2979 C213.7793,93.8759 213.5683,125.4249 213.0073,131.2569 C213.4983,131.1869 215.7473,131.0469 216.4493,131.0469 C217.4333,131.0469 218.4173,131.0469 219.4003,131.1869 C218.8393,125.6359 218.6283,104.1339 218.4873,89.0269" id="Fill-26"></path>
                <path d="M282.4336,86.4273 C286.5796,82.7733 292.0606,81.2973 297.5406,81.2973 C308.5736,81.2973 314.5456,85.1623 316.1616,87.0593 C316.1616,84.6003 316.6536,81.2273 316.9346,80.1733 C315.2476,79.8223 308.2916,77.1523 299.7186,77.1523 C294.9416,77.1523 286.7896,77.3633 279.5526,82.4923 C274.3526,86.0053 268.6616,92.8913 268.6616,104.3453 C268.6616,112.4963 271.7526,119.0313 275.6876,123.2463 C281.2396,129.3603 289.8116,132.2403 298.6646,132.2403 C304.7076,132.2403 311.5936,131.2573 316.2316,129.1503 C316.1616,128.4473 316.1616,127.2523 316.1616,124.1603 L316.1616,116.7823 C316.1616,112.0743 316.3716,106.5943 316.5826,104.8373 C315.7406,104.9773 314.6156,105.0483 312.6486,105.0483 C311.5936,105.0483 310.2586,105.0483 309.2756,104.9773 C309.6976,106.5233 310.1186,111.4423 310.1186,115.1663 L310.1186,124.0203 C310.1186,125.5663 310.0486,126.0583 309.8376,126.1983 C307.8706,127.3233 303.6546,127.8843 300.3516,127.8843 C295.4326,127.8843 287.6326,126.4083 282.0116,120.3653 C278.4986,116.8533 275.5476,111.0203 275.5476,102.9393 C275.5476,95.6323 278.5696,89.8003 282.4336,86.4273" id="Fill-28"></path>
                <path d="M9.6504,155.98 C8.2444,155.98 6.5584,155.91 5.3634,155.84 C5.7854,157.877 6.0664,164.764 6.0664,176.147 L6.0664,188.514 C6.0664,198.421 5.7154,206.784 5.4344,208.891 C6.1364,208.821 8.2444,208.68 9.4394,208.68 C11.1954,208.68 12.0394,208.751 12.6714,208.821 C12.3204,206.573 12.0394,193.293 12.0394,188.444 L12.0394,183.876 C12.0394,183.595 12.1094,183.525 12.2504,183.525 C17.1694,183.525 22.2984,183.666 24.6874,183.806 C27.1464,183.947 28.4114,184.228 29.3244,184.719 C29.3954,182.823 29.6764,179.801 29.8874,178.887 C29.1844,179.098 27.7784,179.309 23.9144,179.379 C21.9464,179.45 13.2334,179.52 12.3204,179.52 C12.1094,179.52 12.0394,179.45 12.0394,179.168 C12.0394,173.055 12.1094,166.31 12.1794,160.197 C12.1794,159.986 12.3204,159.916 12.3904,159.916 C18.4334,159.916 23.4924,160.126 25.6714,160.267 C29.1844,160.547 30.1684,160.758 31.0814,161.18 C31.1514,159.916 31.2924,157.385 31.5734,155.629 C30.3794,155.84 27.8494,155.98 26.0924,155.98 L9.6504,155.98 Z" id="Fill-30"></path>
                <path d="M64.1772,205.8697 C51.6692,205.8697 42.8862,196.0327 42.8162,181.2767 C42.8162,168.2767 50.3342,158.7217 62.4202,158.7217 C74.1552,158.7217 83.6412,168.0657 83.6412,182.6827 C83.6412,199.9677 72.6092,205.8697 64.1772,205.8697 M63.6852,154.7857 C45.8372,154.7857 36.1402,168.2767 36.1402,182.8227 C36.1402,195.4707 44.5022,209.9447 62.8422,209.8747 C79.8462,209.8057 90.3162,197.2267 90.3162,180.9957 C90.3162,166.3097 79.7762,154.7857 63.6852,154.7857" id="Fill-32"></path>
                <path d="M135.9922,155.8404 C136.3442,158.3694 136.7642,166.0994 136.7642,176.1474 L136.7642,184.4384 C136.7642,192.5194 135.9222,197.6494 132.3382,201.4434 C129.6682,204.3944 125.3112,205.2374 122.1492,205.2374 C118.8472,205.2374 114.4902,204.7454 111.1882,201.5834 C108.2372,198.8434 106.1992,195.1894 106.1992,185.9134 L106.1992,176.1474 C106.1992,166.1694 106.4802,157.9474 106.7612,155.7704 C105.9182,155.9094 104.3022,155.9804 102.3342,155.9804 C101.2802,155.9804 100.0862,155.9804 99.4532,155.8404 C99.8752,157.5964 100.1562,166.0994 100.1562,176.1474 L100.1562,187.1794 C100.1562,197.2974 102.6152,201.8644 106.1292,205.1674 C109.9232,208.6804 115.7552,209.8744 120.6032,209.8744 C125.2412,209.8744 130.6512,209.1724 134.8682,205.4474 C140.7702,200.2484 141.5432,192.5194 141.5432,184.2984 L141.5432,176.1474 C141.5432,166.1694 141.8942,157.9474 142.1762,155.7704 C141.8242,155.8404 140.2782,155.9804 138.8032,155.9804 C138.0992,155.9804 136.7642,155.9804 135.9922,155.8404" id="Fill-34"></path>
                <path d="M197.8994,155.98 C196.9854,155.98 195.7914,155.98 195.1584,155.84 C195.7204,163.289 195.8614,186.054 196.0024,197.438 C190.4514,192.308 165.8574,163.709 159.1814,156.753 C157.7764,155.348 157.2144,154.786 156.9334,154.786 C156.5114,154.786 156.3714,155.137 156.3714,158.931 C156.3714,171.509 156.1604,203.059 155.5984,208.891 C156.0894,208.821 158.3384,208.68 159.0414,208.68 C160.0254,208.68 161.0084,208.68 161.9924,208.821 C161.4304,203.27 161.2194,181.768 161.0794,166.661 C168.8784,174.953 188.7644,198.773 194.5264,204.605 C198.3904,208.61 199.6554,209.875 200.1474,209.875 C200.5694,209.875 200.7104,209.313 200.7104,203.27 C200.7104,200.108 200.6394,196.876 200.6394,190.903 C200.6394,176.639 201.0604,159.986 201.4124,155.77 C200.9204,155.84 199.1644,155.98 197.8994,155.98" id="Fill-36"></path>
                <path d="M249.9687,200.8111 C246.0337,204.1831 240.4837,205.5881 234.7207,205.5881 C228.9587,205.5881 224.7427,204.7461 223.7597,203.9721 C223.4787,203.7621 223.4077,202.9891 223.3377,201.5831 C223.2677,199.6861 223.1977,193.9241 223.1977,186.4761 L223.1977,175.7951 C223.1977,168.5581 223.1977,161.7431 223.3377,160.4071 C223.3377,160.1971 223.4077,160.0561 223.6187,159.9151 C224.6727,159.6341 227.4837,159.3531 230.0837,159.3531 C239.0777,159.3531 247.2987,161.6021 252.1477,167.5041 C255.8007,172.0011 257.1367,177.4121 257.1367,183.4551 C257.1367,191.3251 253.9747,197.4381 249.9687,200.8111 M230.2237,155.7001 C225.5867,155.7001 221.5807,155.9801 219.8947,155.9801 C218.7707,155.9801 217.2247,155.9101 216.5227,155.8401 C216.8027,157.4561 217.1547,162.8671 217.1547,176.0061 L217.1547,188.9351 C217.1547,199.4051 216.8727,205.7991 216.7327,208.7501 C219.7537,208.5401 222.5657,208.8911 225.9377,209.2431 C228.4677,209.4541 231.1377,209.5941 234.0887,209.5941 C246.3157,209.5941 252.9197,204.8861 256.2927,201.4431 C260.2277,197.2971 263.6707,190.6921 263.6707,181.6981 C263.6707,173.3361 260.5087,167.5751 256.9957,163.9201 C250.0387,156.8241 239.3587,155.7001 230.2237,155.7001" id="Fill-38"></path>
                <path d="M296.4863,186.1245 L280.8173,186.1245 C280.6763,186.1245 280.6063,186.0545 280.6763,185.8435 L288.3363,165.3955 L296.6273,185.8435 C296.6973,186.0545 296.6273,186.1245 296.4863,186.1245 M290.7953,157.6665 C289.8113,155.3485 289.4603,154.7855 289.1083,154.7855 C288.6863,154.7855 288.3363,155.6295 287.4923,157.6665 L273.5793,192.1675 C270.7683,198.9835 268.0983,205.1675 266.3413,208.8915 C266.9043,208.8205 268.6613,208.6805 270.0663,208.6805 C271.5423,208.6805 272.1743,208.6805 272.8773,208.8205 C273.7193,205.5185 276.9523,196.5235 279.1313,190.4105 C279.2013,190.2705 279.2713,190.2005 279.4813,190.2005 L297.9623,190.2005 C298.1733,190.2005 298.1733,190.2705 298.2433,190.4105 C300.6323,196.1035 304.4973,205.6585 305.6213,208.8915 C306.4643,208.7505 308.4313,208.6805 310.1883,208.6805 C310.9613,208.6805 312.1563,208.7505 313.4213,208.8205 C311.5933,206.0805 307.6593,196.9455 304.4973,189.4275 C298.4543,175.1635 291.5673,159.4235 290.7953,157.6665" id="Fill-40"></path>
                <path d="M317.2158,155.98 C311.1728,155.98 308.5728,155.77 306.8868,155.348 C306.7458,156.824 306.1138,160.056 305.7628,161.18 C307.5898,160.547 310.5408,160.267 315.1788,160.056 C319.8158,159.916 321.6428,159.916 324.8748,159.916 L324.8748,188.514 C324.8748,197.649 324.6638,206.502 324.3128,208.891 C325.5078,208.751 326.9838,208.68 328.5998,208.68 C329.6538,208.68 330.7778,208.68 331.4808,208.821 C331.1988,206.292 330.9178,197.438 330.9178,188.514 L330.9178,159.916 C336.2578,159.916 339.5608,160.056 342.0908,160.197 C346.7278,160.477 348.6948,160.829 349.8198,161.532 C349.8898,159.423 350.1708,156.964 350.5228,155.418 C349.2578,155.77 344.1278,155.98 340.0528,155.98 L317.2158,155.98 Z" id="Fill-42"></path>
                <path d="M362.9609,176.147 C362.9609,166.169 363.2419,158.37 363.4529,155.77 C362.9609,155.84 361.2039,155.98 359.2369,155.98 C358.3939,155.98 356.9179,155.98 356.2859,155.91 C356.7769,157.667 356.9179,166.099 356.9179,176.077 L356.9179,188.514 C356.9179,197.649 356.7069,206.502 356.4269,208.891 C357.0589,208.821 359.0969,208.68 360.5019,208.68 C361.6259,208.68 362.9609,208.751 363.5939,208.821 C363.1719,206.784 362.9609,197.438 362.9609,188.514 L362.9609,176.147 Z" id="Fill-44"></path>
                <path d="M401.6787,205.8697 C389.1717,205.8697 380.3887,196.0327 380.3187,181.2767 C380.3187,168.2767 387.8367,158.7217 399.9227,158.7217 C411.6577,158.7217 421.1427,168.0657 421.1427,182.6827 C421.1427,199.9677 410.1117,205.8697 401.6787,205.8697 M401.1877,154.7857 C383.3397,154.7857 373.6427,168.2767 373.6427,182.8227 C373.6427,195.4707 382.0047,209.9447 400.3437,209.8747 C417.3487,209.8057 427.8187,197.2267 427.8187,180.9957 C427.8187,166.3097 417.2787,154.7857 401.1877,154.7857" id="Fill-46"></path>
                <path d="M483.7529,155.77 C483.2619,155.84 481.5049,155.98 480.2399,155.98 C479.3259,155.98 478.1319,155.98 477.4989,155.84 C478.0619,163.289 478.2019,186.054 478.3429,197.438 C472.7919,192.308 448.1979,163.709 441.5229,156.753 C440.1169,155.348 439.5559,154.786 439.2739,154.786 C438.8529,154.786 438.7119,155.137 438.7119,158.931 C438.7119,171.509 438.5009,203.059 437.9399,208.891 C438.4309,208.821 440.6799,208.68 441.3819,208.68 C442.3659,208.68 443.3499,208.68 444.3339,208.821 C443.7719,203.27 443.5609,181.768 443.4199,166.661 C451.2199,174.953 471.1059,198.773 476.8669,204.605 C480.7319,208.61 481.9959,209.874 482.4879,209.874 C482.9099,209.874 483.0509,209.313 483.0509,203.27 C483.0509,200.108 482.9809,196.875 482.9809,190.903 C482.9809,176.639 483.4009,159.986 483.7529,155.77" id="Fill-48"></path>
            </g>
        </g>
    </g>
</svg>
