<svg width="727" height="220" xmlns="http://www.w3.org/2000/svg"><g fill="none" fill-rule="evenodd"><path fill="#2087C8" d="M0 219.4h219.4V0H0z"/><path d="M163.317 158.428l-33.38-32.754a25.83 25.83 0 005.438-12.51h46.865c-.894 17.423-7.884 33.197-18.923 45.264m5.262 5.532a2.601 2.601 0 01-2.6 2.598c-.248 0-.472-.077-.703-.14a2.537 2.537 0 01-1.743-1.714c-.07-.239-.15-.479-.15-.744a2.597 2.597 0 012.597-2.599c.145 0 .27.06.412.085a2.525 2.525 0 012.093 2.056c.03.154.094.296.094.458m-54.837 17.98v-46.898a25.83 25.83 0 0013.203-6.245l33.388 32.768c-12.19 11.834-28.505 19.377-46.591 20.374m-54.055-19.813l33.28-32.86a25.85 25.85 0 0013.848 5.952v46.78c-18.245-.718-34.744-8.119-47.128-19.872M54.574 168c-.245 0-.47-.076-.696-.139-1.086-.31-1.9-1.269-1.9-2.457a2.597 2.597 0 012.596-2.598c1.2 0 2.167.83 2.465 1.935.059.217.134.43.134.663a2.598 2.598 0 01-2.6 2.596m-17.412-54.836h46.864a25.818 25.818 0 005.88 13.041l-33.264 32.84c-11.363-12.144-18.572-28.16-19.48-45.88m-3.08-3.75a2.597 2.597 0 11-5.194-.004 2.597 2.597 0 015.195.003m22.545-49.619l33.355 32.733a25.86 25.86 0 00-6.046 13.71H37.13c.778-17.94 8.016-34.169 19.496-46.443M54.574 51.4a2.598 2.598 0 012.599 2.597c0 .08-.038.147-.045.225-.12 1.324-1.197 2.375-2.554 2.375a2.598 2.598 0 01-2.595-2.6c0-1.338 1.03-2.404 2.328-2.544.092-.008.173-.053.267-.053m52.24-14.574v46.78a25.835 25.835 0 00-13.757 5.873L59.669 56.714c12.384-11.764 28.889-19.168 47.146-19.888m53.205 20.15l-33.284 32.86a25.84 25.84 0 00-12.994-6.055V36.885c17.933.99 34.122 8.423 46.278 20.09m5.565-5.495c.134-.023.253-.08.395-.08a2.6 2.6 0 012.599 2.597c0 .271-.08.518-.156.765a2.546 2.546 0 01-1.704 1.685c-.238.072-.48.15-.74.15a2.597 2.597 0 01-2.596-2.6c0-.153.065-.284.086-.43a2.535 2.535 0 012.116-2.087m-55.308-18.262a2.599 2.599 0 11.005-5.197 2.599 2.599 0 01-.005 5.197m0 151.522a2.6 2.6 0 012.599 2.596 2.6 2.6 0 01-2.6 2.6 2.598 2.598 0 010-5.195m9.813-75.328c0 1.326-.272 2.583-.725 3.75-.196.503-.442.973-.711 1.436a10.419 10.419 0 01-2.891 3.223c-.633.454-1.296.86-2.02 1.164a10.333 10.333 0 01-4.042.817c-1.007 0-1.963-.189-2.885-.457a10.233 10.233 0 01-2.63-1.159 10.44 10.44 0 01-3.118-3.004 10.47 10.47 0 01-1.031-2.02 10.304 10.304 0 01-.724-3.75c0-1.117.223-2.17.546-3.176.316-.979.736-1.905 1.31-2.734a10.398 10.398 0 015.647-4.025c.922-.267 1.878-.458 2.885-.458 1.436 0 2.8.291 4.042.817a10.15 10.15 0 011.836 1.016c1.206.828 2.198 1.915 2.964 3.164.42.69.748 1.434 1 2.22.324 1.006.547 2.06.547 3.176m62.18-3.176h-46.805a25.84 25.84 0 00-5.692-13.312l33.262-32.844c11.327 12.241 18.466 28.354 19.236 46.156m8.818 3.176a2.598 2.598 0 01-5.194 0 2.597 2.597 0 115.194 0m14.145-3.176h-11.917c-.777-20.813-9.146-39.675-22.43-53.908l8.315-8.208c1.357-1.34 1.786-3.124.945-3.972-.844-.85-2.624-.45-3.99.893l-8.307 8.2c-14.154-13.68-33.11-22.428-54.107-23.425V14.17a3.463 3.463 0 10-6.927 0v11.617c-21.33.725-40.622 9.423-55.01 23.214l-8.196-8.045c-1.365-1.339-3.15-1.735-3.987-.88-.835.852-.408 2.63.956 3.971l8.18 8.026c-13.423 14.262-21.893 33.226-22.673 54.165H14.168a3.462 3.462 0 00-3.462 3.463 3.462 3.462 0 003.462 3.463H26.1c.915 20.735 9.373 39.493 22.696 53.63l-8.597 8.488c-1.36 1.342-1.78 3.121-.945 3.972.844.85 2.626.452 3.99-.892l8.604-8.496c14.382 13.768 33.662 22.448 54.967 23.171v12.195a3.463 3.463 0 106.927 0v-12.225c21.16-1.006 40.25-9.874 54.438-23.739l8.769 8.6c1.359 1.34 3.149 1.736 3.986.882.835-.854.408-2.63-.957-3.97l-8.778-8.616c12.984-14.058 21.2-32.575 22.1-53h11.933a3.462 3.462 0 003.46-3.463 3.461 3.461 0 00-3.46-3.463" fill="#F4F5F5"/><path d="M269.444 9.125c11.734 0 21.22 9.345 21.22 23.961 0 17.286-11.031 23.188-19.463 23.188-12.508 0-21.291-9.837-21.361-24.593 0-13 7.518-22.556 19.604-22.556m.422 51.154c17.004-.07 27.474-12.648 27.474-28.88 0-14.685-10.54-26.209-26.631-26.209-17.848 0-27.545 13.491-27.545 28.037 0 12.648 8.362 27.122 26.702 27.052M313.995 10.6c0-.28 0-.421.281-.491.984-.211 2.951-.281 5.13-.281 8.08 0 12.86 4.567 12.86 12.016 0 5.059-2.53 8.713-5.342 10.75-.913.633-2.037.843-4.075.843-3.724 0-7.238-.21-8.643-.491-.14-.071-.21-.211-.21-.633V10.6zm-5.902 28.318c0 9.135-.28 17.989-.703 20.378.773-.141 2.881-.211 4.146-.211 1.194 0 2.46 0 3.092.14-.352-3.091-.633-10.68-.633-19.534v-2.178c0-.281 0-.422.211-.422 3.092.07 8.151.14 9.626.07.352 0 .633.14.914.493 3.232 4.356 9.767 14.053 13.632 17.918 2.881 3.02 4.567 3.934 7.73 3.934 1.685 0 3.653-.07 4.567-.421-1.336-.562-3.514-2.39-6.465-5.692-4.848-5.2-9.978-12.296-14.475-18.27 5.692-3.934 8.572-8.853 8.572-14.966 0-5.06-2.6-9.205-6.253-11.524-3.022-1.897-7.519-2.53-12.297-2.53-2.459 0-7.87.282-9.275.282-1.054 0-1.967 0-3.233-.14.703 2.318.844 10.258.844 20.306v12.367zm46.027 0c0 9.908-.351 17.848-.562 20.307.773-.07 2.389-.14 4.427-.14 2.67 0 7.94.421 17.707.421 2.67 0 3.303-.07 3.584-.14.28-1.406.843-3.935 1.335-5.481-1.968.984-4.99 1.475-11.664 1.475-3.022 0-5.13-.211-6.746-.351-.633-.07-1.406-.211-1.616-.422-.352-.351-.492-2.318-.492-16.161v-5.059c0-.14.14-.281.28-.281 1.266 0 9.487.141 11.876.281 2.67.211 3.794.492 4.778.984-.071-1.406.21-4.216.562-5.832-.703.211-2.388.421-6.043.562-1.968.07-10.26.07-11.172.07-.141 0-.281-.141-.281-.352V10.601c0-.211.21-.282.28-.282 6.044 0 10.12.141 12.227.352 3.373.281 4.778.632 5.622 1.124 0-2.319.35-4.708.562-5.762-1.265.281-4.146.351-5.622.351h-15.6c-1.404 0-3.301 0-4.145-.14.422 1.967.703 8.924.703 20.307v12.367zm60.992 21.361c6.043 0 12.93-.983 17.566-3.091-.07-.703-.07-1.898-.07-4.99V44.82c0-4.71.211-10.19.422-11.946-.843.14-1.968.21-3.935.21-1.054 0-2.389 0-3.373-.07.422 1.547.843 6.465.843 10.189v8.854c0 1.546-.069 2.038-.28 2.178-1.968 1.125-6.184 1.687-9.486 1.687-4.919 0-12.719-1.476-18.34-7.52-3.513-3.512-6.464-9.344-6.464-17.425 0-7.308 3.021-13.14 6.886-16.512 4.145-3.655 9.627-5.13 15.107-5.13 11.032 0 17.005 3.864 18.62 5.762 0-2.46.492-5.833.774-6.886-1.687-.352-8.643-3.022-17.216-3.022-4.778 0-12.929.21-20.166 5.34-5.2 3.514-10.892 10.4-10.892 21.853 0 8.15 3.092 14.686 7.026 18.902 5.552 6.113 14.124 8.994 22.978 8.994m33.237-28.598c0-13 7.519-22.555 19.604-22.555 11.735 0 21.22 9.346 21.22 23.96 0 17.287-11.031 23.189-19.464 23.189-12.506 0-21.29-9.837-21.36-24.593m47.5-.281c0-14.686-10.54-26.21-26.631-26.21-17.848 0-27.545 13.49-27.545 28.037 0 12.648 8.363 27.122 26.7 27.052 17.006-.07 27.476-12.648 27.476-28.88m16.514 27.826c-.562-5.55-.772-27.053-.913-42.16 7.8 8.291 27.685 32.112 33.447 37.944 3.864 4.005 5.13 5.27 5.621 5.27.422 0 .563-.562.563-6.605 0-3.162-.07-6.394-.07-12.367 0-14.264.42-30.917.772-35.133-.49.07-2.248.21-3.513.21-.914 0-2.108 0-2.74-.14.562 7.448.702 30.214.843 41.598-5.55-5.13-30.145-33.728-36.82-40.685-1.406-1.405-1.967-1.967-2.249-1.967-.42 0-.562.351-.562 4.145 0 12.578-.21 44.128-.773 49.96.492-.07 2.741-.21 3.443-.21.984 0 1.968 0 2.951.14m-249.665 73.519c-4.005 0-6.746-.702-7.448-1.405-.21-.281-.35-3.302-.35-15.46v-6.042c0-.14.07-.211.28-.281.632-.07 3.935-.07 6.183.07 2.951.14 5.902.633 8.362 2.6 3.935 3.022 4.638 6.254 4.638 9.416 0 7.66-5.692 11.102-11.665 11.102zM254.9 87.493c0-.211.07-.352.21-.422.492-.14 2.108-.281 4.427-.281 7.097 0 10.751 4.005 10.751 9.977 0 3.092-1.405 6.465-4.286 8.362-.844.563-1.406.633-2.67.633-1.125 0-6.817-.07-8.152-.141-.21-.07-.28-.21-.28-.351V87.493zm14.264 19.182c3.021-1.686 6.745-5.41 6.745-11.313 0-5.2-2.95-12.296-14.897-12.296-3.513 0-6.956.28-9.556.28-.984 0-2.248-.07-3.162-.14.492 2.53.703 10.259.703 20.307v12.367c0 9.135-.21 17.497-.492 20.307 1.054-.07 3.022-.14 4.076-.07 1.616.07 4.99.492 9.837.492 12.437 0 18.27-7.73 18.27-15.81 0-8.011-5.622-12.367-11.524-14.124zm45.532 26.561c-12.508 0-21.291-9.837-21.361-24.593 0-13 7.518-22.556 19.604-22.556 11.735 0 21.22 9.345 21.22 23.96 0 17.287-11.031 23.189-19.463 23.189m-.492-51.084c-17.848 0-27.545 13.49-27.545 28.037 0 12.648 8.362 27.122 26.702 27.052 17.004-.07 27.474-12.648 27.474-28.88 0-14.685-10.54-26.21-26.631-26.21m59.377 31.339h-15.67c-.14 0-.21-.07-.14-.28l7.66-20.448 8.29 20.448c.07.21 0 .28-.14.28m-5.692-28.457c-.984-2.32-1.335-2.881-1.686-2.881-.422 0-.773.843-1.617 2.88l-13.912 34.502c-2.81 6.816-5.48 13-7.238 16.724a38.025 38.025 0 013.724-.211c1.476 0 2.11 0 2.811.14.843-3.302 4.075-12.297 6.254-18.41.07-.14.14-.21.351-.21h18.481c.21 0 .21.07.28.21 2.39 5.693 6.254 15.248 7.378 18.48.844-.14 2.811-.21 4.567-.21.774 0 1.968.07 3.233.14-1.827-2.74-5.762-11.875-8.924-19.393a3157.91 3157.91 0 00-13.702-31.761m34.081 30.847c0 9.135-.211 17.989-.562 20.377 1.195-.14 2.67-.21 4.287-.21 1.053 0 2.177 0 2.88.14-.281-2.53-.562-11.383-.562-20.307v-28.6c5.34 0 8.643.142 11.173.283 4.637.28 6.604.632 7.728 1.335.07-2.108.352-4.568.703-6.114-1.264.352-6.394.562-10.47.562h-22.836c-6.043 0-8.643-.21-10.33-.632-.14 1.476-.772 4.708-1.123 5.832 1.827-.632 4.778-.913 9.416-1.124 4.636-.141 6.464-.141 9.696-.141v28.599zm32.043-12.438v12.438c0 9.135-.211 17.988-.491 20.377.632-.07 2.67-.21 4.075-.21 1.124 0 2.459.07 3.092.14-.422-2.037-.633-11.383-.633-20.307v-12.368c0-9.977.28-17.777.492-20.377-.492.071-2.25.211-4.216.211-.843 0-2.32 0-2.951-.07.49 1.756.632 10.188.632 20.166m27.474-9.415c7.8 8.292 27.686 32.112 33.447 37.944 3.865 4.005 5.13 5.27 5.621 5.27.422 0 .563-.562.563-6.605 0-3.162-.07-6.394-.07-12.367 0-14.264.42-30.917.772-35.133-.49.07-2.248.21-3.513.21-.914 0-2.108 0-2.74-.14.562 7.448.702 30.215.843 41.598-5.55-5.13-30.145-33.728-36.82-40.685-1.406-1.405-1.967-1.967-2.249-1.967-.42 0-.562.35-.562 4.146 0 12.578-.21 44.127-.772 49.959.491-.07 2.74-.21 3.442-.21.984 0 1.968 0 2.951.14-.56-5.551-.772-27.053-.913-42.16m63.947-2.6c4.146-3.654 9.627-5.13 15.107-5.13 11.033 0 17.005 3.865 18.62 5.762 0-2.459.493-5.832.774-6.886-1.687-.35-8.643-3.02-17.216-3.02-4.777 0-12.93.21-20.166 5.34-5.2 3.512-10.891 10.398-10.891 21.852 0 8.151 3.09 14.686 7.026 18.901 5.552 6.114 14.124 8.994 22.977 8.994 6.043 0 12.929-.983 17.567-3.09-.07-.703-.07-1.898-.07-4.99v-7.378c0-4.708.21-10.188.42-11.945-.841.14-1.966.211-3.933.211-1.055 0-2.39 0-3.373-.07.422 1.545.843 6.464.843 10.188v8.854c0 1.546-.07 2.038-.281 2.178-1.967 1.125-6.183 1.686-9.486 1.686-4.92 0-12.72-1.476-18.34-7.519-3.513-3.512-6.464-9.345-6.464-17.426 0-7.307 3.022-13.139 6.886-16.512M252.65 160.98c-1.406 0-3.092-.07-4.287-.14.422 2.037.703 8.924.703 20.307v12.367c0 9.907-.35 18.27-.632 20.377.702-.07 2.81-.211 4.005-.211 1.756 0 2.6.071 3.232.141-.35-2.248-.632-15.528-.632-20.377v-4.568c0-.281.07-.351.211-.351 4.92 0 10.048.141 12.437.281 2.46.141 3.724.422 4.637.913.071-1.896.352-4.918.563-5.832-.703.211-2.109.422-5.973.492-1.968.071-10.68.141-11.594.141-.21 0-.28-.07-.28-.352 0-6.113.07-12.858.14-18.971 0-.211.14-.281.21-.281 6.043 0 11.102.21 13.281.351 3.513.28 4.497.491 5.41.913.07-1.264.211-3.795.492-5.551-1.194.211-3.724.351-5.48.351H252.65zm54.527 49.89c-12.508 0-21.29-9.837-21.36-24.593 0-13 7.517-22.555 19.603-22.555 11.735 0 21.221 9.344 21.221 23.96 0 17.286-11.032 23.188-19.464 23.188m-.492-51.084c-17.848 0-27.545 13.49-27.545 28.037 0 12.648 8.362 27.122 26.702 27.052 17.004-.07 27.474-12.648 27.474-28.88 0-14.685-10.54-26.21-26.63-26.21m72.306 1.055c.352 2.53.772 10.26.772 20.307v8.291c0 8.081-.842 13.211-4.426 17.005-2.67 2.951-7.027 3.794-10.189 3.794-3.302 0-7.659-.492-10.96-3.654-2.952-2.74-4.99-6.394-4.99-15.67v-9.766c0-9.978.281-18.2.562-20.377-.843.14-2.459.21-4.427.21-1.054 0-2.248 0-2.88-.14.421 1.756.702 10.26.702 20.307v11.032c0 10.118 2.46 14.685 5.973 17.988 3.794 3.513 9.626 4.707 14.474 4.707 4.638 0 10.048-.702 14.265-4.427 5.902-5.199 6.675-12.928 6.675-21.149v-8.15c0-9.979.351-18.2.633-20.378-.352.07-1.898.21-3.373.21-.704 0-2.039 0-2.81-.14m61.907.14c-.915 0-2.109 0-2.742-.14.562 7.449.703 30.214.844 41.598-5.55-5.13-30.145-33.729-36.82-40.685-1.406-1.405-1.968-1.967-2.249-1.967-.422 0-.562.351-.562 4.145 0 12.578-.21 44.128-.773 49.96.491-.07 2.74-.211 3.443-.211.984 0 1.967 0 2.951.141-.562-5.551-.773-27.053-.913-42.16 7.8 8.292 27.685 32.112 33.447 37.944 3.864 4.005 5.13 5.27 5.621 5.27.422 0 .563-.562.563-6.605 0-3.162-.07-6.394-.07-12.367 0-14.264.42-30.917.772-35.133-.492.07-2.248.21-3.513.21m52.07 44.831c-3.935 3.372-9.485 4.777-15.248 4.777-5.762 0-9.978-.842-10.961-1.616-.281-.21-.352-.983-.422-2.389-.07-1.897-.14-7.659-.14-15.107v-10.68c0-7.238 0-14.053.14-15.389 0-.21.07-.35.28-.492 1.055-.28 3.866-.562 6.466-.562 8.994 0 17.215 2.25 22.064 8.151 3.653 4.497 4.989 9.908 4.989 15.951 0 7.87-3.162 13.983-7.168 17.356m-19.745-45.11c-4.637 0-8.643.28-10.33.28-1.123 0-2.67-.07-3.371-.14.28 1.615.632 7.026.632 20.165v12.93c0 10.47-.282 16.863-.422 19.814 3.02-.21 5.833.141 9.205.493 2.53.211 5.2.351 8.15.351 12.228 0 18.832-4.708 22.205-8.15 3.935-4.147 7.378-10.752 7.378-19.746 0-8.362-3.162-14.123-6.675-17.778-6.957-7.096-17.637-8.22-26.772-8.22m66.262 30.425h-15.669c-.14 0-.21-.07-.14-.281l7.66-20.448 8.29 20.448c.07.21 0 .28-.14.28m-5.692-28.457c-.984-2.319-1.335-2.881-1.687-2.881-.422 0-.772.844-1.616 2.88l-13.913 34.501c-2.81 6.816-5.48 13-7.238 16.725a38 38 0 013.725-.212c1.476 0 2.108 0 2.811.14.842-3.302 4.075-12.296 6.254-18.41.07-.14.14-.21.35-.21h18.481c.211 0 .211.07.281.21 2.39 5.694 6.254 15.249 7.378 18.482.843-.142 2.81-.212 4.567-.212.773 0 1.968.07 3.233.14-1.828-2.74-5.762-11.874-8.924-19.392-6.043-14.264-12.93-30.005-13.702-31.761m26.421-1.687c-6.043 0-8.643-.21-10.33-.632-.14 1.476-.772 4.708-1.123 5.832 1.827-.633 4.778-.913 9.416-1.124 4.637-.14 6.464-.14 9.696-.14v28.598c0 9.135-.211 17.988-.562 20.377 1.195-.14 2.67-.211 4.287-.211 1.054 0 2.178 0 2.88.141-.281-2.529-.562-11.383-.562-20.307v-28.598c5.34 0 8.643.14 11.173.281 4.637.28 6.604.632 7.729 1.335.07-2.109.35-4.568.703-6.114-1.265.352-6.395.562-10.47.562h-22.837zm45.744 20.167c0-9.978.282-17.777.493-20.377-.492.07-2.25.21-4.216.21-.843 0-2.32 0-2.951-.07.49 1.757.632 10.189.632 20.167v12.437c0 9.135-.211 17.988-.491 20.377.632-.07 2.67-.211 4.075-.211 1.124 0 2.459.071 3.092.141-.422-2.037-.633-11.383-.633-20.307v-12.367zm38.719 29.723c-12.507 0-21.29-9.837-21.36-24.593 0-13 7.518-22.555 19.604-22.555 11.735 0 21.22 9.344 21.22 23.96 0 17.286-11.031 23.188-19.464 23.188m-.491-51.084c-17.848 0-27.545 13.49-27.545 28.037 0 12.648 8.362 27.122 26.7 27.052 17.006-.07 27.476-12.648 27.476-28.88 0-14.685-10.54-26.21-26.631-26.21m82.565.985c-.491.07-2.248.21-3.513.21-.914 0-2.108 0-2.741-.14.563 7.449.703 30.214.844 41.598-5.551-5.13-30.145-33.729-36.82-40.685-1.406-1.405-1.967-1.967-2.25-1.967-.42 0-.561.351-.561 4.145 0 12.578-.211 44.128-.772 49.96.49-.07 2.74-.211 3.442-.211.984 0 1.968 0 2.952.141-.562-5.551-.773-27.053-.914-42.16 7.8 8.292 27.686 32.112 33.447 37.944 3.865 4.005 5.129 5.269 5.62 5.269.423 0 .564-.561.564-6.604 0-3.162-.07-6.395-.07-12.367 0-14.264.42-30.917.772-35.133" fill="#231F20"/></g></svg>