<?xml version="1.0" encoding="UTF-8" standalone="yes"?>
<svg xmlns="http://www.w3.org/2000/svg" xmlns:xlink="http://www.w3.org/1999/xlink" width="16px" height="16px" viewBox="0 0 16 16" version="1.1" fill="#000000">
  <g id="surface395345">
    <path style=" stroke:none;fill-rule:nonzero;fill:#000000;fill-opacity:1;" d="M 8 3 C 6.097656 3 4.371094 3.765625 3.109375 5 L 0 5 C 0.347656 5.402344 0.742188 6.027344 0.914062 6.492188 C 0.351562 7.179688 0 8.046875 0 9 C 0 11.203125 1.796875 13 4 13 C 5.308594 13 6.460938 12.359375 7.191406 11.382812 L 8 13 L 8.808594 11.382812 C 9.539062 12.359375 10.691406 13 12 13 C 14.203125 13 16 11.203125 16 9 C 16 8.058594 15.65625 7.203125 15.109375 6.515625 C 15.355469 5.929688 15.613281 5.515625 16 5 L 12.886719 5 C 11.625 3.765625 9.902344 3 8 3 Z M 8 4 C 9.265625 4 10.433594 4.394531 11.402344 5.0625 C 9.480469 5.351562 8 7.003906 8 9 C 8 7 6.515625 5.351562 4.59375 5.0625 C 5.5625 4.390625 6.734375 4 8 4 Z M 4 6 C 5.664062 6 7 7.335938 7 9 C 7 10.664062 5.664062 12 4 12 C 2.335938 12 1 10.664062 1 9 C 1 7.335938 2.335938 6 4 6 Z M 12 6 C 13.664062 6 15 7.335938 15 9 C 15 10.664062 13.664062 12 12 12 C 10.335938 12 9 10.664062 9 9 C 9 7.335938 10.335938 6 12 6 Z M 4 8 C 3.449219 8 3 8.449219 3 9 C 3 9.550781 3.449219 10 4 10 C 4.550781 10 5 9.550781 5 9 C 5 8.449219 4.550781 8 4 8 Z M 12 8 C 11.449219 8 11 8.449219 11 9 C 11 9.550781 11.449219 10 12 10 C 12.550781 10 13 9.550781 13 9 C 13 8.449219 12.550781 8 12 8 Z M 12 8 "/>
  </g>
</svg>
