<svg xmlns="http://www.w3.org/2000/svg" width="16" height="16" viewBox="0 0 16 16"><path d="M8 3a6.977 6.977 0 0 0-4.89 2H0c.348.402.742 1.027.914 1.492A3.95 3.95 0 0 0 0 9c0 2.203 1.797 4 4 4a3.98 3.98 0 0 0 3.191-1.617L8 13l.809-1.617A3.98 3.98 0 0 0 12 13c2.203 0 4-1.797 4-4 0-.941-.344-1.797-.89-2.484.245-.586.503-1 .89-1.516h-3.113A6.967 6.967 0 0 0 8 3zm0 1c1.266 0 2.434.395 3.402 1.063C9.48 5.351 8 7.002 8 9c0-2-1.484-3.648-3.406-3.938A5.95 5.95 0 0 1 8 4zM4 6c1.664 0 3 1.336 3 3s-1.336 3-3 3a2.99 2.99 0 0 1-3-3c0-1.664 1.336-3 3-3zm8 0c1.664 0 3 1.336 3 3s-1.336 3-3 3a2.99 2.99 0 0 1-3-3c0-1.664 1.336-3 3-3zM4 8c-.55 0-1 .45-1 1s.45 1 1 1 1-.45 1-1-.45-1-1-1zm8 0c-.55 0-1 .45-1 1s.45 1 1 1 1-.45 1-1-.45-1-1-1zm0 0"/></svg>