<svg width="102" height="102" viewBox="0 0 102 102" xmlns="http://www.w3.org/2000/svg"><title>Accessible</title><g transform="translate(1 1)" stroke="#4B5763" fill="none" fill-rule="evenodd"><circle cx="50" cy="50" r="50"/><g fill-rule="nonzero"><path d="M72.555 47.636a3.624 3.624 0 0 0-2.791-1.087l-12.613.702 6.941-7.905a4.24 4.24 0 0 0 .89-3.969 3.601 3.601 0 0 0-1.614-2.29c-.026-.018-16.591-9.641-16.591-9.641a3.617 3.617 0 0 0-4.225.428l-8.091 7.218a3.617 3.617 0 1 0 4.815 5.399l6.135-5.472 5.071 2.945-8.951 10.195a18.445 18.445 0 0 0-9.674 4.782l4.674 4.675a11.848 11.848 0 0 1 7.994-3.094c6.558 0 11.894 5.335 11.894 11.894 0 3.074-1.173 5.88-3.094 7.993l4.674 4.675a18.428 18.428 0 0 0 5.025-12.668c0-2.922-.678-5.685-1.884-8.141l4.882-.272-1.187 14.567a3.618 3.618 0 0 0 7.21.588l1.525-18.704a3.617 3.617 0 0 0-1.015-2.818zM65.856 32.14a6.055 6.055 0 1 0 0-12.109 6.055 6.055 0 0 0 0 12.11zM44.525 74.31c-6.558 0-11.894-5.336-11.894-11.894 0-2.472.759-4.77 2.054-6.673l-4.725-4.726a18.415 18.415 0 0 0-3.934 11.399c0 10.217 8.282 18.499 18.5 18.499 4.3 0 8.255-1.472 11.397-3.934l-4.725-4.725a11.827 11.827 0 0 1-6.673 2.053z"/></g></g></svg>