<?xml version="1.0" encoding="UTF-8"?>
<svg width="102px" height="102px" viewBox="0 0 102 102" version="1.1" xmlns="http://www.w3.org/2000/svg" xmlns:xlink="http://www.w3.org/1999/xlink">
    <title>Accessible</title>
    <g id="Icon" stroke="none" stroke-width="1" fill="none" fill-rule="evenodd">
        <g id="Accessible" transform="translate(1.000000, 1.000000)" stroke="#4B5763">
            <circle id="Oval" cx="50" cy="50" r="50"></circle>
            <g id="Accessibility-Icon_final" transform="translate(26.000000, 20.000000)" fill-rule="nonzero">
                <path d="M46.5554259,27.6358241 C45.825591,26.8869738 44.8058179,26.4916034 43.7637346,26.5486497 L31.1513256,27.2507145 L38.0922407,19.3456605 C39.0810432,18.219608 39.3635448,16.7185185 38.9812593,15.3771775 C38.7795262,14.4580355 38.2229012,13.621733 37.3677716,13.0874182 C37.3415077,13.0686852 20.7766188,3.44574691 20.7766188,3.44574691 C19.4239815,2.65999537 17.7195586,2.83311111 16.5522747,3.87425309 L8.46054938,11.0922099 C6.96972068,12.4219722 6.83915432,14.7085309 8.1690108,16.1994537 C9.49896142,17.6901883 11.7856142,17.8211312 13.2763488,16.4908981 L19.4109907,11.0186898 L24.482463,13.9637284 L15.5305247,24.1591065 C11.8184676,24.7644938 8.47852932,26.4750355 5.85665895,28.9412994 L10.5314429,33.6160833 C12.6446975,31.6945833 15.4506034,30.5217454 18.525267,30.5217454 C25.0834259,30.5217454 30.4189491,35.8573627 30.4189491,42.4156157 C30.4189491,45.4902793 29.2461111,48.2959969 27.3247994,50.4092515 L31.9993009,55.0840355 C35.1133133,51.7736559 37.0244583,47.319338 37.0244583,42.4156157 C37.0244583,39.4941111 36.3462099,36.7313194 35.1402361,34.2745633 L40.022213,34.0026049 L38.8345957,48.5701204 C38.6722114,50.5612809 40.1550386,52.306841 42.1462932,52.4694136 C42.245983,52.4775093 42.3454846,52.4813688 42.4440448,52.4813688 C44.3084985,52.4813688 45.891392,51.048716 46.0453981,49.1578102 L47.5697392,30.4544383 C47.654838,29.4122608 47.2848843,28.3844861 46.5554259,27.6358241 Z" id="Shape"></path>
                <path d="M39.8555926,12.1402238 C43.1995787,12.1402238 45.910125,9.42939506 45.910125,6.08522068 C45.910125,2.74123457 43.1995787,0.0301234568 39.8555926,0.0301234568 C36.5112299,0.0301234568 33.8004954,2.74123457 33.8004954,6.08522068 C33.8004954,9.42939506 36.5111358,12.1402238 39.8555926,12.1402238 Z" id="Shape"></path>
                <path d="M18.5253611,54.309392 C11.967108,54.309392 6.63149074,48.9737747 6.63149074,42.4155216 C6.63149074,39.943892 7.38984877,37.6466019 8.68525154,35.742517 L3.9600108,31.0173704 C1.49788889,34.159341 0.0259814815,38.1145509 0.0259814815,42.4155216 C0.0259814815,52.6325509 8.30833179,60.9148071 18.5253611,60.9148071 C22.8265201,60.9148071 26.7813534,59.4428997 29.9232299,56.9806836 L25.1980833,52.2557253 C23.2940926,53.5507515 20.9968025,54.309392 18.5253611,54.309392 Z" id="Shape"></path>
            </g>
        </g>
    </g>
</svg>
