<svg width="102" height="102" viewBox="0 0 102 102" xmlns="http://www.w3.org/2000/svg"><title>Affordable</title><g transform="translate(1 1)" stroke="#4B5763" fill="none" fill-rule="evenodd"><circle cx="50" cy="50" r="50"/><path d="M72.077 33.606L57.745 35.88c-.719-1.823-1.367-3.088-1.945-3.794-.578-.707-1.535-1.42-2.87-2.139V41.08c7.808 2.08 13.021 4.277 15.641 6.588 3.468 3.108 5.201 7.05 5.201 11.828 0 2.8-.623 5.368-1.868 7.705-1.246 2.337-2.838 4.29-4.778 5.856-1.939 1.567-4 2.703-6.183 3.41-2.183.706-4.854 1.123-8.013 1.252V85h-5.625v-7.281c-3.776-.334-6.838-.944-9.189-1.83-2.35-.886-4.379-2.113-6.087-3.68-1.708-1.566-3.024-3.255-3.949-5.066-.924-1.81-1.618-4-2.08-6.568l15.564-1.811c.463 2.543 1.086 4.379 1.869 5.509.783 1.13 2.074 2.132 3.872 3.005v-13.6c-5.188-1.438-8.868-2.684-11.038-3.737s-4.051-2.741-5.644-5.066c-1.592-2.324-2.388-5.156-2.388-8.495 0-4.572 1.598-8.392 4.796-11.461 3.198-3.07 7.956-4.771 14.274-5.105V16h5.625v3.814c5.753.36 10.151 1.72 13.195 4.084 3.043 2.363 5.027 5.599 5.952 9.708zm-24.772-3.852c-1.644.54-2.787 1.207-3.429 2.003-.642.796-.963 1.734-.963 2.813 0 1.13.327 2.112.982 2.947.655.834 1.792 1.534 3.41 2.1v-9.863zm5.625 37.91c2.183-.489 3.782-1.291 4.796-2.409 1.015-1.117 1.522-2.369 1.522-3.756 0-1.207-.43-2.318-1.29-3.332-.861-1.015-2.537-1.959-5.028-2.832v12.328z"/></g></svg>