<svg width="48" height="48" viewBox="0 0 48 48" fill="none" xmlns="http://www.w3.org/2000/svg">
<path d="M32.0891 30.7903L32.3081 31.2509L32.7643 31.0228L34.4526 30.1787C34.5959 30.1071 34.7552 30.1701 34.8124 30.2812L35.467 31.6371L35.467 31.6372L35.4701 31.6434C35.5342 31.7716 35.4936 31.8933 35.3654 31.9574L32.2702 33.505C31.7845 33.7479 31.1881 33.5461 30.927 33.03L27.9753 26.7519L27.8402 26.4646H27.5228H21.0042C20.4763 26.4646 20.0586 26.1081 19.9996 25.6364L19.9997 25.6364L19.9984 25.6274C19.7872 24.155 19.6056 22.8902 19.4495 21.8029C19.0163 18.7856 18.7795 17.1359 18.6503 16.2145C18.5621 15.5847 18.5253 15.3039 18.5103 15.1605C18.501 15.0717 18.5013 15.057 18.5021 15.017C18.5024 15.0025 18.5028 14.9848 18.5028 14.9591C18.5028 13.557 19.6695 12.4256 21.1179 12.5038L21.1178 12.504L21.1297 12.5043C22.4107 12.5432 23.4586 13.5914 23.4586 14.9122V14.9197L23.4589 14.9273C23.4978 16.2125 22.5639 17.2705 21.3466 17.4668L20.8577 17.5457L20.9319 18.0353L21.1663 19.5829L21.2308 20.008H21.6607H27.7573C27.802 20.008 27.869 20.0302 27.9272 20.0859C27.9823 20.1388 28.0076 20.2005 28.0076 20.2584V21.7591C28.0076 21.784 27.9901 21.8509 27.9196 21.9214C27.8491 21.9919 27.7822 22.0094 27.7573 22.0094H22.0828H21.5164L21.5866 22.5714L21.7742 24.0721L21.829 24.5101H22.2704H28.5076C28.8759 24.5101 29.2129 24.7253 29.3655 25.0611L29.3655 25.0612L29.3691 25.0689L32.0891 30.7903ZM20.2538 33.4674C22.9778 33.4674 25.2943 31.5753 25.8355 28.9653H26.2682L27.2515 31.0455C25.9731 33.6713 23.2978 35.4687 20.2538 35.4687C15.9341 35.4687 12.5 32.0347 12.5 27.7149C12.5 24.6778 14.2186 22.0634 16.7674 20.7936C16.8166 21.1145 16.8672 21.4573 16.9212 21.824C16.9717 22.1669 17.0253 22.5308 17.0838 22.9171C15.5092 23.9691 14.5014 25.7264 14.5014 27.7149C14.5014 30.8987 17.0701 33.4674 20.2538 33.4674Z" stroke="#C0B8A9"/>
<circle cx="24" cy="24" r="23.5" stroke="#C0B8A9"/>
</svg>
