<svg width="48" height="48" viewBox="0 0 48 48" fill="none" xmlns="http://www.w3.org/2000/svg">
<path d="M26.6773 23.4482L26.6788 23.4486C29.1337 24.1681 30.6544 26.8335 29.7232 29.4578L29.7231 29.4578L29.7211 29.4637C29.0973 31.2935 27.2462 32.457 25.2616 32.5001L24.7725 32.5108V33V35.25C24.7725 35.3078 24.7473 35.3694 24.6922 35.4222C24.6341 35.4779 24.5672 35.5 24.5225 35.5H23.0225C22.8768 35.5 22.7725 35.3957 22.7725 35.25V33V32.5H22.2725C20.8804 32.5 19.5856 32.0664 18.5067 31.2033L18.5006 31.1984L18.4944 31.1938C18.4188 31.1371 18.3872 31.0669 18.382 31.0061C18.377 30.9474 18.3949 30.8826 18.4523 30.8242L20.0897 29.2336L20.0897 29.2337L20.0948 29.2286C20.1523 29.171 20.2703 29.1314 20.4152 29.2069C20.9792 29.5936 21.638 29.75 22.2725 29.75H25.3663C26.3702 29.75 27.2725 28.9384 27.2725 27.8906C27.2725 27.0644 26.7074 26.2958 25.8693 26.0946L21.1011 24.6922L21.0988 24.6915C19.1607 24.1316 17.6879 22.505 17.5206 20.5817L17.5204 20.579C17.2663 17.8265 19.4249 15.5 22.1319 15.5H22.2725H22.7725V15V12.75C22.7725 12.7053 22.7947 12.6384 22.8503 12.5803C22.9031 12.5252 22.9647 12.5 23.0225 12.5H24.5225C24.5474 12.5 24.6141 12.5175 24.6846 12.5879C24.755 12.6584 24.7725 12.7251 24.7725 12.75V15V15.4841L25.2564 15.4997C26.6132 15.5435 27.9543 15.9801 28.9824 16.7896C29.0739 16.8729 29.1102 16.9636 29.116 17.0337C29.1217 17.1012 29.1017 17.1658 29.0459 17.2226L27.4085 18.8132L27.4085 18.8132L27.4033 18.8183C27.3311 18.8905 27.2211 18.899 27.1467 18.8516C26.5972 18.4688 25.9374 18.25 25.2256 18.25H22.1319C21.0841 18.25 20.2725 19.1523 20.2725 20.1562C20.2725 20.9544 20.766 21.7448 21.6284 21.9522L26.6773 23.4482Z" stroke="#C0B8A9"/>
<circle cx="24" cy="24" r="23.5" stroke="#C0B8A9"/>
</svg>
