<svg width="24" height="24" viewBox="0 0 24 24" fill="none" xmlns="http://www.w3.org/2000/svg">
<path fill-rule="evenodd" clip-rule="evenodd" d="M21.1262 9.61679C21.2506 9.52978 21.3949 9.47898 21.5336 9.41593C22.1913 9.11763 23.2538 9.24667 23.7047 9.77019C24.2187 10.3672 23.9392 11.0088 23.7767 11.223C23.7291 11.269 23.6829 11.3135 23.6354 11.3595C23.0923 11.7475 19.7557 14.1285 19.2506 14.4249C18.7007 14.7476 17.5475 14.7444 16.8942 14.1021C16.605 13.8174 16.569 13.5536 16.6055 13.2351C16.6454 12.8855 16.8997 12.6164 17.1807 12.3797L21.1262 9.61679ZM2.8738 9.51959L6.8193 12.2825C7.1002 12.5192 7.3546 12.7883 7.39455 13.1379C7.43101 13.4564 7.39501 13.7202 7.10576 14.0049C6.45248 14.6473 5.2992 14.6504 4.74935 14.3277C4.24431 14.0313 0.907743 11.6504 0.364592 11.2623C0.31704 11.2163 0.270872 11.1718 0.22332 11.1258C0.0608106 10.9116 -0.218737 10.27 0.295339 9.67304C0.746161 9.14941 1.8087 9.02049 2.46639 9.31873C2.60513 9.38178 2.74938 9.43257 2.8738 9.51959ZM13.8354 9.45783L13.8165 11.936C13.8151 12.0336 13.8049 12.1314 13.7775 12.2253C13.5769 12.9126 12.8709 13.2829 12.0286 13.2829C11.1597 13.2829 10.4351 12.9596 10.263 12.2465C10.2399 12.1515 10.2332 12.0536 10.2332 11.9561L10.235 9.45783H10.2357C10.2438 8.51418 11.0494 8 12.0431 8C13.0418 8 13.837 8.44258 13.837 9.39534C13.837 9.41609 13.8361 9.43696 13.8354 9.45783ZM17.2376 15.1468C18.2785 15.6452 19.058 16.2882 19.6265 16.9986L4.04418 17C4.04592 16.9977 4.04771 16.9954 4.04951 16.993H4.02986C5.34883 15.2785 7.94509 14.0986 11.8167 14.0986C14.1286 14.0986 15.8998 14.503 17.2376 15.1468Z" fill="white"/>
</svg>
