<svg width="24" height="24" viewBox="0 0 24 24" fill="none" xmlns="http://www.w3.org/2000/svg">
  <path d="M12.0268 5.8125C8.59821 5.8125 5.86607 8.59821 5.86607 11.9732C5.86607 15.4018 8.59821 18.1339 12.0268 18.1339C15.4018 18.1339 18.1875 15.4018 18.1875 11.9732C18.1875 8.59821 15.4018 5.8125 12.0268 5.8125ZM12.0268 15.9911C9.83036 15.9911 8.00893 14.2232 8.00893 11.9732C8.00893 9.77679 9.77679 8.00893 12.0268 8.00893C14.2232 8.00893 15.9911 9.77679 15.9911 11.9732C15.9911 14.2232 14.2232 15.9911 12.0268 15.9911ZM19.8482 5.59821C19.8482 4.79464 19.2054 4.15179 18.4018 4.15179C17.5982 4.15179 16.9554 4.79464 16.9554 5.59821C16.9554 6.40179 17.5982 7.04464 18.4018 7.04464C19.2054 7.04464 19.8482 6.40179 19.8482 5.59821ZM23.9196 7.04464C23.8125 5.11607 23.3839 3.40179 21.9911 2.00893C20.5982 0.616071 18.8839 0.1875 16.9554 0.0803571C14.9732 -0.0267857 9.02679 -0.0267857 7.04464 0.0803571C5.11607 0.1875 3.45536 0.616071 2.00893 2.00893C0.616071 3.40179 0.1875 5.11607 0.0803571 7.04464C-0.0267857 9.02679 -0.0267857 14.9732 0.0803571 16.9554C0.1875 18.8839 0.616071 20.5446 2.00893 21.9911C3.45536 23.3839 5.11607 23.8125 7.04464 23.9196C9.02679 24.0268 14.9732 24.0268 16.9554 23.9196C18.8839 23.8125 20.5982 23.3839 21.9911 21.9911C23.3839 20.5446 23.8125 18.8839 23.9196 16.9554C24.0268 14.9732 24.0268 9.02679 23.9196 7.04464ZM21.3482 19.0446C20.9732 20.1161 20.1161 20.9196 19.0982 21.3482C17.4911 21.9911 13.7411 21.8304 12.0268 21.8304C10.2589 21.8304 6.50893 21.9911 4.95536 21.3482C3.88393 20.9196 3.08036 20.1161 2.65179 19.0446C2.00893 17.4911 2.16964 13.7411 2.16964 11.9732C2.16964 10.2589 2.00893 6.50893 2.65179 4.90179C3.08036 3.88393 3.88393 3.08036 4.95536 2.65179C6.50893 2.00893 10.2589 2.16964 12.0268 2.16964C13.7411 2.16964 17.4911 2.00893 19.0982 2.65179C20.1161 3.02679 20.9196 3.88393 21.3482 4.90179C21.9911 6.50893 21.8304 10.2589 21.8304 11.9732C21.8304 13.7411 21.9911 17.4911 21.3482 19.0446Z" fill="white"/>
</svg>
