<svg width="24" height="24" viewBox="0 0 24 24" fill="none" xmlns="http://www.w3.org/2000/svg">
  <path d="M5.35714 23.9464V7.92857H0.375V23.9464H5.35714ZM2.83929 5.78571C4.44643 5.78571 5.73214 4.44643 5.73214 2.83929C5.73214 1.28571 4.44643 0 2.83929 0C1.28571 0 0 1.28571 0 2.83929C0 4.44643 1.28571 5.78571 2.83929 5.78571ZM24 23.9464V15.1607C24 10.875 23.0357 7.55357 18 7.55357C15.5893 7.55357 13.9821 8.89286 13.2857 10.125H13.2321V7.92857H8.46429V23.9464H13.4464V16.0179C13.4464 13.9286 13.8214 11.9464 16.3929 11.9464C18.9643 11.9464 19.0179 14.3036 19.0179 16.1786V23.9464H24Z" fill="white"/>
</svg>
