<svg width="48" height="48" viewBox="0 0 48 48" fill="none" xmlns="http://www.w3.org/2000/svg">
  <path fill-rule="evenodd" clip-rule="evenodd" d="M0 48H48V0H0V48Z" fill="#075D92"/>
  <path fill-rule="evenodd" clip-rule="evenodd" d="M35.7302 34.6607L28.4276 27.4948C29.0492 26.7227 29.4681 25.7842 29.6171 24.7577H39.8702C39.6746 28.5697 38.1453 32.0207 35.7302 34.6607M36.8814 35.871C36.8814 36.1843 36.6266 36.4394 36.3128 36.4394C36.2584 36.4394 36.2093 36.4225 36.1588 36.4085C35.9742 36.3556 35.8335 36.2169 35.7775 36.0337C35.7622 35.9814 35.7447 35.9289 35.7447 35.871C35.7447 35.557 35.9987 35.3024 36.3128 35.3024C36.3446 35.3024 36.3721 35.3153 36.403 35.321C36.6384 35.3597 36.8178 35.5367 36.8609 35.7708C36.8674 35.8045 36.8814 35.8355 36.8814 35.871M24.8843 39.8044V29.5443C25.9841 29.3717 26.978 28.8865 27.7728 28.1781L35.0774 35.347C32.4105 37.936 28.8411 39.5863 24.8843 39.8044M13.0582 35.4697L20.3394 28.2804C21.1771 28.9869 22.2207 29.4559 23.3688 29.5828V39.8171C19.3772 39.6602 15.7676 38.041 13.0582 35.4697M11.9396 36.7546C11.886 36.7546 11.837 36.738 11.7873 36.7242C11.5497 36.6564 11.3719 36.4466 11.3719 36.1867C11.3719 35.8725 11.6263 35.6183 11.9396 35.6183C12.2023 35.6183 12.4137 35.7996 12.4789 36.0416C12.4918 36.0891 12.5082 36.1355 12.5082 36.1867C12.5082 36.5004 12.2535 36.7546 11.9396 36.7546M8.13001 24.7577H18.3828C18.5399 25.8369 18.9945 26.8177 19.6693 27.6108L12.3918 34.7955C9.90583 32.1386 8.32866 28.6344 8.13001 24.7577M7.45639 23.9373C7.45639 24.2505 7.20195 24.5052 6.88866 24.5052C6.57471 24.5052 6.31983 24.2505 6.31983 23.9373C6.31983 23.6231 6.57471 23.3689 6.88866 23.3689C7.20195 23.3689 7.45639 23.6231 7.45639 23.9373M12.3887 13.0817L19.6861 20.243C18.977 21.071 18.5023 22.1039 18.3634 23.2424H8.12344C8.29365 19.3173 9.87717 15.767 12.3887 13.0817M11.9396 11.2453C12.2535 11.2453 12.5082 11.4997 12.5082 11.8134C12.5082 11.8307 12.4999 11.8456 12.4984 11.8627C12.4723 12.1523 12.2365 12.3822 11.9396 12.3822C11.6263 12.3822 11.3719 12.1276 11.3719 11.8134C11.3719 11.5207 11.5972 11.2875 11.8812 11.2569C11.9013 11.2551 11.919 11.2453 11.9396 11.2453M23.3688 8.05678V18.291C22.2301 18.417 21.1928 18.8784 20.3588 19.5761L13.0543 12.4078C15.7636 9.83414 19.3746 8.2143 23.3688 8.05678M35.0089 12.4649L27.7271 19.654C26.9401 18.9684 25.9626 18.4984 24.8843 18.3295V8.06969C28.8076 8.28606 32.3494 9.91246 35.0089 12.4649M36.2264 11.2628C36.2557 11.2577 36.2818 11.2453 36.3128 11.2453C36.6266 11.2453 36.8814 11.4997 36.8814 11.8134C36.8814 11.8727 36.8642 11.9268 36.8473 11.9808C36.7909 12.1598 36.6537 12.295 36.4745 12.3494C36.4224 12.3652 36.3697 12.3822 36.3128 12.3822C35.9987 12.3822 35.7447 12.1276 35.7447 11.8134C35.7447 11.78 35.7589 11.7513 35.7635 11.7194C35.8053 11.4818 35.9871 11.3008 36.2264 11.2628M24.1262 7.26743C23.8127 7.26743 23.5583 7.01255 23.5583 6.69904C23.5583 6.38488 23.8127 6.13044 24.1262 6.13044C24.4399 6.13044 24.6948 6.38488 24.6948 6.69904C24.6948 7.01255 24.4399 7.26743 24.1262 7.26743M24.1262 40.4172C24.4399 40.4172 24.6948 40.6718 24.6948 40.9851C24.6948 41.2989 24.4399 41.5537 24.1262 41.5537C23.8127 41.5537 23.5583 41.2989 23.5583 40.9851C23.5583 40.6718 23.8127 40.4172 24.1262 40.4172M26.2729 23.9373C26.2729 24.2274 26.2134 24.5024 26.1143 24.7577C26.0714 24.8677 26.0176 24.9705 25.9587 25.0718C25.7977 25.3493 25.5846 25.5897 25.3262 25.777C25.1877 25.8763 25.0427 25.9649 24.8843 26.0316C24.6126 26.1467 24.3141 26.2104 24 26.2104C23.7797 26.2104 23.5705 26.169 23.3688 26.1104C23.164 26.0509 22.97 25.9684 22.7936 25.8568C22.5237 25.6862 22.2887 25.465 22.1113 25.1996C22.0194 25.0627 21.9467 24.9132 21.8857 24.7577C21.7864 24.5024 21.7273 24.2274 21.7273 23.9373C21.7273 23.6929 21.7761 23.4625 21.8468 23.2424C21.9159 23.0282 22.0078 22.8256 22.1334 22.6443C22.3154 22.3815 22.5536 22.1649 22.8269 21.9991C22.9947 21.8971 23.1769 21.8195 23.3688 21.7637C23.5705 21.7053 23.7797 21.6635 24 21.6635C24.3141 21.6635 24.6126 21.7272 24.8843 21.8422C25.0267 21.9024 25.1608 21.9777 25.286 22.0645C25.5498 22.2457 25.7668 22.4835 25.9344 22.7567C26.0265 22.9077 26.0981 23.0705 26.1534 23.2424C26.2241 23.4625 26.2729 23.6929 26.2729 23.9373M39.8767 23.2424H29.6366C29.5023 22.1444 29.0599 21.1424 28.3913 20.33L35.6683 13.1445C38.1464 15.8225 39.7083 19.3477 39.8767 23.2424M41.8059 23.9373C41.8059 24.2505 41.5515 24.5052 41.2375 24.5052C40.9242 24.5052 40.6696 24.2505 40.6696 23.9373C40.6696 23.6231 40.9242 23.3689 41.2375 23.3689C41.5515 23.3689 41.8059 23.6231 41.8059 23.9373M44.9005 23.2424H42.2934C42.1234 18.689 40.2924 14.5624 37.3864 11.4485L39.2053 9.65277C39.5022 9.35939 39.596 8.96931 39.412 8.78378C39.2274 8.5976 38.838 8.68511 38.5393 8.97915L36.7217 10.7731C33.6251 7.78003 29.478 5.86637 24.8843 5.64825V3.09992C24.8843 2.68139 24.5452 2.34229 24.1262 2.34229C23.7079 2.34229 23.3688 2.68139 23.3688 3.09992V5.64147C18.7025 5.80008 14.4816 7.70302 11.334 10.7202L9.54069 8.96012C9.24206 8.66717 8.85176 8.58054 8.66842 8.76759C8.48574 8.95399 8.57916 9.34276 8.87757 9.63636L10.6672 11.3923C7.73052 14.5125 5.87746 18.6614 5.70681 23.2424H3.09963C2.68133 23.2424 2.34222 23.5813 2.34222 24C2.34222 24.4186 2.68133 24.7577 3.09963 24.7577H5.7101C5.91028 29.294 7.76071 33.3979 10.6755 36.4905L8.79465 38.3478C8.49712 38.6414 8.40523 39.0306 8.58791 39.2167C8.77256 39.4025 9.16242 39.3156 9.46084 39.0216L11.3432 37.1629C14.4897 40.175 18.7077 42.074 23.3688 42.2322V44.9002C23.3688 45.3187 23.7079 45.6578 24.1262 45.6578C24.5452 45.6578 24.8843 45.3187 24.8843 44.9002V42.2256C29.5136 42.0055 33.6901 40.0654 36.7941 37.032L38.7126 38.9135C39.0099 39.2065 39.4015 39.2933 39.5847 39.1065C39.7673 38.9196 39.6739 38.5309 39.3753 38.2377L37.4549 36.3529C40.2955 33.2773 42.0932 29.2262 42.2901 24.7577H44.9005C45.3186 24.7577 45.6577 24.4186 45.6577 24C45.6577 23.5813 45.3186 23.2424 44.9005 23.2424" fill="white"/>
</svg>
