<svg width="48" height="48" viewBox="0 0 48 48" fill="none" xmlns="http://www.w3.org/2000/svg">
<path d="M26.0714 21.4286V21.9286H26.5714H34.2857C34.9203 21.9286 35.5 22.5083 35.5 23.1429V24.8571C35.5 25.5352 34.9305 26.0714 34.2857 26.0714H26.5714H26.0714V26.5714V34.2857C26.0714 34.9638 25.5019 35.5 24.8571 35.5H23.1429C22.4547 35.5 21.9286 34.9739 21.9286 34.2857V26.5714V26.0714H21.4286H13.7143C13.0261 26.0714 12.5 25.5453 12.5 24.8571V23.1429C12.5 22.4981 13.0362 21.9286 13.7143 21.9286H21.4286H21.9286V21.4286V13.7143C21.9286 13.0695 22.4648 12.5 23.1429 12.5H24.8571C25.4917 12.5 26.0714 13.0797 26.0714 13.7143V21.4286Z" stroke="#C0B8A9"/>
<circle cx="24" cy="24" r="23.5" stroke="#C0B8A9"/>
</svg>
