<svg width="48" height="48" viewBox="0 0 48 48" fill="none" xmlns="http://www.w3.org/2000/svg">
<path d="M22.9 20.2C22.9 22.246 21.2143 23.9 19.2 23.9C17.1511 23.9 15.5 22.2489 15.5 20.2C15.5 18.1857 17.154 16.5 19.2 16.5C21.2114 16.5 22.9 18.1886 22.9 20.2ZM19.2 26.7C20.144 26.7 21.0433 26.4736 21.8609 26.1H22.05C24.1739 26.1 25.9 27.8261 25.9 29.95V31C25.9 31.7296 25.3057 32.3 24.6 32.3H13.8C13.0636 32.3 12.5 31.7364 12.5 31V29.95C12.5 27.8205 14.1943 26.1 16.3125 26.1H16.5016C17.3208 26.4742 18.2214 26.7 19.2 26.7ZM33.1 20.8C33.1 22.5114 31.7114 23.9 30 23.9C28.2886 23.9 26.9 22.5114 26.9 20.8C26.9 19.0886 28.2886 17.7 30 17.7C31.7114 17.7 33.1 19.0886 33.1 20.8ZM30 26.4C30.5976 26.4 31.1875 26.2865 31.7347 26.1H31.8C33.8114 26.1 35.5 27.7886 35.5 29.8C35.5 30.5296 34.9057 31.1 34.2 31.1H28.1V29.95C28.1 28.5867 27.6241 27.348 26.8817 26.3582C27.2824 26.1932 27.725 26.1 28.2 26.1H28.2278C28.7769 26.2871 29.3684 26.4 30 26.4Z" stroke="#C0B8A9"/>
<circle cx="24" cy="24" r="23.5" stroke="#C0B8A9"/>
</svg>
