<svg width="24" height="24" viewBox="0 0 24 24" fill="none" xmlns="http://www.w3.org/2000/svg">
  <path d="M22 8.45833L24 6.33333H19.625C17.4583 4.875 14.8333 4 12 4C9.16667 4 6.5 4.875 4.33333 6.33333H0L1.95833 8.45833C0.75 9.58333 0 11.125 0 12.875C0 16.2083 2.70833 18.875 6 18.875C7.58333 18.875 9 18.2917 10.0417 17.2917L12 19.375L13.9167 17.2917C14.9583 18.2917 16.4167 18.9167 17.9583 18.9167C21.2917 18.9167 23.9583 16.2083 23.9583 12.9167C23.9583 12.9167 23.9583 12.9167 23.9583 12.875C23.9583 11.125 23.2083 9.58333 22 8.45833ZM6 16.9583C3.75 16.9583 1.91667 15.125 1.91667 12.9167C1.91667 10.6667 3.75 8.83333 6 8.83333C8.20833 8.83333 10.0417 10.6667 10.0417 12.9167C10.0417 15.125 8.20833 16.9583 6 16.9583ZM12 12.7917C12 10.125 10.0417 7.83333 7.45833 6.83333C8.875 6.25 10.375 5.95833 11.9583 5.95833C13.5833 5.95833 15.0833 6.25 16.5 6.83333C13.9167 7.83333 12 10.125 12 12.7917ZM17.9583 16.9583C15.75 16.9583 13.9167 15.125 13.9167 12.9167C13.9167 10.6667 15.75 8.83333 17.9583 8.83333C20.2083 8.83333 22.0417 10.6667 22.0417 12.9167C22.0417 15.125 20.2083 16.9583 17.9583 16.9583ZM6 10.7917C4.79167 10.7917 3.83333 11.7083 3.83333 12.9167C3.83333 14.0833 4.79167 15.0417 6 15.0417C7.16667 15.0417 8.125 14.0833 8.125 12.9167C8.125 11.7083 7.16667 10.7917 6 10.7917ZM17.9583 10.7917C16.7917 10.7917 15.8333 11.7083 15.8333 12.9167C15.8333 14.0833 16.7917 15.0417 17.9583 15.0417C19.1667 15.0417 20.0833 14.0833 20.0833 12.9167C20.0833 11.7083 19.1667 10.7917 17.9583 10.7917Z" fill="white"/>
</svg>
