<svg width="24" height="24" viewBox="0 0 24 24" fill="none" xmlns="http://www.w3.org/2000/svg">
  <path d="M21.5577 6.83757C22.4971 6.13307 23.3425 5.28767 24 4.30137C23.1546 4.6771 22.1683 4.9589 21.182 5.05284C22.2153 4.44227 22.9667 3.50294 23.3425 2.32877C22.4031 2.89237 21.3229 3.31507 20.2427 3.5499C19.3033 2.5636 18.0352 2 16.6262 2C13.9022 2 11.6947 4.20744 11.6947 6.93151C11.6947 7.30724 11.7417 7.68297 11.8356 8.05871C7.74951 7.82387 4.08611 5.85127 1.64384 2.89237C1.22114 3.59687 0.986301 4.44227 0.986301 5.3816C0.986301 7.07241 1.8317 8.57534 3.19374 9.46771C2.3953 9.42074 1.59687 9.23288 0.939335 8.85714V8.90411C0.939335 11.2994 2.63014 13.272 4.88454 13.7417C4.50881 13.8356 4.03914 13.9295 3.61644 13.9295C3.28767 13.9295 3.00587 13.8826 2.6771 13.8356C3.28767 15.8082 5.11937 17.2172 7.27984 17.2642C5.58904 18.5793 3.47554 19.3777 1.17417 19.3777C0.751468 19.3777 0.375734 19.3307 0 19.2838C2.16047 20.6928 4.74364 21.4912 7.56164 21.4912C16.6262 21.4912 21.5577 14.0235 21.5577 7.49511C21.5577 7.26027 21.5577 7.07241 21.5577 6.83757Z" fill="white"/>
</svg>
