<svg width="165" height="48" viewBox="0 0 165 48" fill="none" xmlns="http://www.w3.org/2000/svg">
  <path fill-rule="evenodd" clip-rule="evenodd" d="M0 48H48V0H0V48Z" fill="#075D92"/>
  <path fill-rule="evenodd" clip-rule="evenodd" d="M35.7302 34.6607L28.4276 27.4948C29.0492 26.7227 29.4681 25.7842 29.6171 24.7577H39.8702C39.6746 28.5697 38.1453 32.0207 35.7302 34.6607M36.8814 35.871C36.8814 36.1843 36.6266 36.4394 36.3128 36.4394C36.2584 36.4394 36.2094 36.4225 36.1588 36.4085C35.9742 36.3556 35.8335 36.2169 35.7775 36.0337C35.7622 35.9814 35.7447 35.9289 35.7447 35.871C35.7447 35.557 35.9987 35.3024 36.3128 35.3024C36.3446 35.3024 36.3721 35.3153 36.403 35.321C36.6384 35.3597 36.8178 35.5367 36.8609 35.7708C36.8674 35.8045 36.8814 35.8355 36.8814 35.871M24.8843 39.8044V29.5443C25.9841 29.3717 26.978 28.8865 27.7728 28.1781L35.0774 35.347C32.4105 37.936 28.8411 39.5863 24.8843 39.8044M13.0582 35.4697L20.3394 28.2804C21.1771 28.9869 22.2207 29.4559 23.3688 29.5828V39.8171C19.3772 39.6602 15.7676 38.041 13.0582 35.4697M11.9396 36.7546C11.886 36.7546 11.837 36.738 11.7873 36.7242C11.5497 36.6564 11.3719 36.4466 11.3719 36.1867C11.3719 35.8725 11.6263 35.6183 11.9396 35.6183C12.2024 35.6183 12.4137 35.7996 12.4789 36.0416C12.4918 36.0891 12.5082 36.1355 12.5082 36.1867C12.5082 36.5004 12.2535 36.7546 11.9396 36.7546M8.13001 24.7577H18.3828C18.5399 25.8369 18.9945 26.8177 19.6693 27.6108L12.3918 34.7955C9.90583 32.1386 8.32866 28.6344 8.13001 24.7577M7.45639 23.9373C7.45639 24.2505 7.20195 24.5052 6.88866 24.5052C6.57471 24.5052 6.31984 24.2505 6.31984 23.9373C6.31984 23.6231 6.57471 23.3689 6.88866 23.3689C7.20195 23.3689 7.45639 23.6231 7.45639 23.9373M12.3888 13.0817L19.6861 20.243C18.977 21.071 18.5023 22.1039 18.3634 23.2424H8.12345C8.29366 19.3173 9.87717 15.767 12.3888 13.0817M11.9396 11.2453C12.2535 11.2453 12.5082 11.4997 12.5082 11.8134C12.5082 11.8307 12.4999 11.8456 12.4984 11.8627C12.4723 12.1523 12.2365 12.3822 11.9396 12.3822C11.6263 12.3822 11.3719 12.1276 11.3719 11.8134C11.3719 11.5207 11.5972 11.2875 11.8812 11.2569C11.9013 11.2551 11.919 11.2453 11.9396 11.2453M23.3688 8.05678V18.291C22.2301 18.417 21.1928 18.8784 20.3589 19.5761L13.0543 12.4078C15.7636 9.83414 19.3746 8.2143 23.3688 8.05678M35.0089 12.4649L27.7271 19.654C26.9401 18.9684 25.9626 18.4984 24.8843 18.3295V8.06969C28.8076 8.28606 32.3494 9.91246 35.0089 12.4649M36.2264 11.2628C36.2557 11.2577 36.2818 11.2453 36.3128 11.2453C36.6266 11.2453 36.8814 11.4997 36.8814 11.8134C36.8814 11.8727 36.8642 11.9268 36.8473 11.9808C36.7909 12.1598 36.6537 12.295 36.4745 12.3494C36.4224 12.3652 36.3697 12.3822 36.3128 12.3822C35.9987 12.3822 35.7447 12.1276 35.7447 11.8134C35.7447 11.78 35.7589 11.7513 35.7635 11.7194C35.8053 11.4818 35.9871 11.3008 36.2264 11.2628M24.1262 7.26743C23.8127 7.26743 23.5583 7.01255 23.5583 6.69904C23.5583 6.38488 23.8127 6.13044 24.1262 6.13044C24.4399 6.13044 24.6948 6.38488 24.6948 6.69904C24.6948 7.01255 24.4399 7.26743 24.1262 7.26743M24.1262 40.4172C24.4399 40.4172 24.6948 40.6718 24.6948 40.9851C24.6948 41.2989 24.4399 41.5537 24.1262 41.5537C23.8127 41.5537 23.5583 41.2989 23.5583 40.9851C23.5583 40.6718 23.8127 40.4172 24.1262 40.4172M26.2729 23.9373C26.2729 24.2274 26.2134 24.5024 26.1143 24.7577C26.0714 24.8677 26.0176 24.9705 25.9587 25.0718C25.7977 25.3493 25.5846 25.5897 25.3262 25.777C25.1877 25.8763 25.0427 25.9649 24.8843 26.0316C24.6126 26.1467 24.3141 26.2104 24 26.2104C23.7797 26.2104 23.5705 26.169 23.3688 26.1104C23.164 26.0509 22.97 25.9684 22.7936 25.8568C22.5237 25.6862 22.2887 25.465 22.1113 25.1996C22.0194 25.0627 21.9467 24.9132 21.8857 24.7577C21.7864 24.5024 21.7273 24.2274 21.7273 23.9373C21.7273 23.6929 21.7761 23.4625 21.8468 23.2424C21.9159 23.0282 22.0078 22.8256 22.1334 22.6443C22.3154 22.3815 22.5536 22.1649 22.8269 21.9991C22.9947 21.8971 23.1769 21.8195 23.3688 21.7637C23.5705 21.7053 23.7797 21.6635 24 21.6635C24.3141 21.6635 24.6126 21.7272 24.8843 21.8422C25.0267 21.9024 25.1608 21.9777 25.286 22.0645C25.5498 22.2457 25.7668 22.4835 25.9344 22.7567C26.0265 22.9077 26.0981 23.0705 26.1534 23.2424C26.2241 23.4625 26.2729 23.6929 26.2729 23.9373M39.8767 23.2424H29.6366C29.5023 22.1444 29.0599 21.1424 28.3913 20.33L35.6683 13.1445C38.1464 15.8225 39.7083 19.3477 39.8767 23.2424M41.8059 23.9373C41.8059 24.2505 41.5515 24.5052 41.2375 24.5052C40.9242 24.5052 40.6696 24.2505 40.6696 23.9373C40.6696 23.6231 40.9242 23.3689 41.2375 23.3689C41.5515 23.3689 41.8059 23.6231 41.8059 23.9373M44.9005 23.2424H42.2934C42.1234 18.689 40.2924 14.5624 37.3864 11.4485L39.2053 9.65277C39.5022 9.35939 39.596 8.96931 39.4121 8.78378C39.2274 8.5976 38.838 8.68511 38.5393 8.97915L36.7217 10.7731C33.6251 7.78003 29.478 5.86637 24.8843 5.64825V3.09992C24.8843 2.68139 24.5452 2.34229 24.1262 2.34229C23.7079 2.34229 23.3688 2.68139 23.3688 3.09992V5.64147C18.7025 5.80008 14.4816 7.70302 11.334 10.7202L9.54069 8.96012C9.24206 8.66717 8.85176 8.58054 8.66842 8.76759C8.48574 8.95399 8.57916 9.34276 8.87758 9.63636L10.6672 11.3923C7.73052 14.5125 5.87747 18.6614 5.70682 23.2424H3.09964C2.68133 23.2424 2.34222 23.5813 2.34222 24C2.34222 24.4186 2.68133 24.7577 3.09964 24.7577H5.7101C5.91028 29.294 7.76071 33.3979 10.6755 36.4905L8.79466 38.3478C8.49712 38.6414 8.40523 39.0306 8.58791 39.2167C8.77256 39.4025 9.16242 39.3156 9.46084 39.0216L11.3432 37.1629C14.4897 40.175 18.7077 42.074 23.3688 42.2322V44.9002C23.3688 45.3187 23.7079 45.6578 24.1262 45.6578C24.5452 45.6578 24.8843 45.3187 24.8843 44.9002V42.2256C29.5136 42.0055 33.6901 40.0654 36.7941 37.032L38.7126 38.9135C39.0099 39.2065 39.4016 39.2933 39.5847 39.1065C39.7673 38.9196 39.6739 38.5309 39.3753 38.2377L37.4549 36.3529C40.2955 33.2773 42.0932 29.2262 42.2901 24.7577H44.9005C45.3186 24.7577 45.6577 24.4186 45.6577 24C45.6577 23.5813 45.3186 23.2424 44.9005 23.2424" fill="white"/>
  <path fill-rule="evenodd" clip-rule="evenodd" d="M60.0159 0.900845C62.7019 0.900845 64.8736 3.04005 64.8736 6.38586C64.8736 10.3429 62.3483 11.6939 60.4181 11.6939C57.5548 11.6939 55.5442 9.4421 55.5282 6.06424C55.5282 3.08835 57.2492 0.900845 60.0159 0.900845M60.1125 12.6107C64.0049 12.5947 66.4017 9.71541 66.4017 5.99967C66.4017 2.63806 63.9889 5.45457e-05 60.3054 5.45457e-05C56.2198 5.45457e-05 54 3.08834 54 6.41813C54 9.31344 55.9142 12.6267 60.1125 12.6107" fill="#231F20"/>
  <path fill-rule="evenodd" clip-rule="evenodd" d="M70.2143 1.23863C70.2143 1.17431 70.2143 1.14203 70.2786 1.12601C70.5039 1.07771 70.9542 1.06168 71.453 1.06168C73.3026 1.06168 74.3966 2.10713 74.3966 3.81232C74.3966 4.9704 73.8174 5.80685 73.174 6.27315C72.965 6.41805 72.7077 6.46612 72.2411 6.46612C71.3886 6.46612 70.5842 6.41805 70.2626 6.35373C70.2303 6.33747 70.2143 6.30542 70.2143 6.20882V1.23863ZM68.8633 7.7208C68.8633 9.81193 68.799 11.8387 68.7024 12.3856C68.8793 12.3533 69.3619 12.3373 69.6514 12.3373C69.9248 12.3373 70.2143 12.3373 70.3592 12.3696C70.2787 11.6618 70.2143 9.92456 70.2143 7.89775V7.39918C70.2143 7.33485 70.2143 7.30257 70.2626 7.30257C70.9704 7.31883 72.1285 7.33485 72.4662 7.31883C72.5467 7.31883 72.6111 7.35087 72.6754 7.43145C73.4152 8.4286 74.9112 10.6484 75.796 11.5331C76.4555 12.2247 76.8414 12.4337 77.5652 12.4337C77.9512 12.4337 78.4017 12.4177 78.6109 12.3373C78.3051 12.2087 77.8065 11.7904 77.131 11.0343C76.0212 9.84421 74.8469 8.2196 73.8174 6.8523C75.1204 5.95152 75.7797 4.82549 75.7797 3.42614C75.7797 2.26806 75.1845 1.31898 74.3483 0.788126C73.6565 0.353875 72.6271 0.209201 71.5333 0.209201C70.9704 0.209201 69.7318 0.273526 69.4102 0.273526C69.1689 0.273526 68.9599 0.273526 68.6701 0.241478C68.831 0.772102 68.8633 2.58968 68.8633 4.88982V7.7208Z" fill="#231F20"/>
  <path fill-rule="evenodd" clip-rule="evenodd" d="M79.3994 7.7209C79.3994 9.98898 79.319 11.8066 79.2707 12.3695C79.4477 12.3534 79.8176 12.3374 80.2841 12.3374C80.8953 12.3374 82.1017 12.4338 84.3375 12.4338C84.9487 12.4338 85.0936 12.4178 85.1579 12.4017C85.2223 12.0799 85.3509 11.501 85.4635 11.1471C85.013 11.3723 84.3213 11.4847 82.7935 11.4847C82.1017 11.4847 81.6192 11.4364 81.2492 11.4044C81.1043 11.3883 80.9274 11.3561 80.8793 11.3078C80.7987 11.2274 80.7667 10.7771 80.7667 7.60827V6.45019C80.7667 6.41814 80.7987 6.38587 80.831 6.38587C81.1206 6.38587 83.0025 6.41814 83.5494 6.45019C84.1606 6.49849 84.4179 6.56282 84.6431 6.67544C84.6269 6.35359 84.6914 5.71034 84.7718 5.34042C84.6108 5.38872 84.2251 5.43679 83.3884 5.46907C82.9379 5.48509 81.04 5.48509 80.831 5.48509C80.7987 5.48509 80.7667 5.45281 80.7667 5.40451V1.23873C80.7667 1.19042 80.815 1.17417 80.831 1.17417C82.2143 1.17417 83.1474 1.20645 83.6297 1.25475C84.4018 1.31907 84.7235 1.39942 84.9167 1.51205C84.9167 0.981197 84.997 0.43432 85.0453 0.193045C84.7557 0.25737 84.0962 0.273394 83.7584 0.273394H80.1875C79.8659 0.273394 79.4317 0.273394 79.2384 0.241346C79.3351 0.69162 79.3994 2.28418 79.3994 4.88991V7.7209Z" fill="#231F20"/>
  <path fill-rule="evenodd" clip-rule="evenodd" d="M93.3615 12.6107C94.7448 12.6107 96.3211 12.3857 97.3826 11.9031C97.3666 11.7422 97.3666 11.4686 97.3666 10.7608V9.07213C97.3666 7.99417 97.4149 6.73972 97.4632 6.33752C97.2702 6.36979 97.0127 6.38582 96.5624 6.38582C96.3211 6.38582 96.0155 6.38582 95.7903 6.36979C95.8869 6.72369 95.9833 7.8495 95.9833 8.70197V10.7288C95.9833 11.0827 95.9675 11.1953 95.9192 11.2274C95.4687 11.4849 94.5036 11.6135 93.7477 11.6135C92.6217 11.6135 90.8361 11.2757 89.5494 9.89233C88.7452 9.08815 88.0697 7.75312 88.0697 5.90327C88.0697 4.23036 88.7612 2.89533 89.646 2.12343C90.5949 1.28675 91.8498 0.949099 93.1042 0.949099C95.6296 0.949099 96.9969 1.83362 97.3666 2.2681C97.3666 1.70497 97.4792 0.932846 97.5438 0.691799C97.1576 0.611221 95.5653 1.93669e-05 93.6028 1.93669e-05C92.509 1.93669e-05 90.6432 0.0483203 88.9865 1.22242C87.7961 2.02683 86.4932 3.60313 86.4932 6.22489C86.4932 8.09077 87.201 9.58673 88.1015 10.5518C89.3724 11.9512 91.3347 12.6107 93.3615 12.6107" fill="#231F20"/>
  <path fill-rule="evenodd" clip-rule="evenodd" d="M100.97 6.06417C100.97 3.08828 102.691 0.900778 105.457 0.900778C108.144 0.900778 110.315 3.04021 110.315 6.3858C110.315 10.3428 107.79 11.6939 105.859 11.6939C102.997 11.6939 100.986 9.44203 100.97 6.06417M111.843 5.99985C111.843 2.63801 109.43 0 105.747 0C101.661 0 99.4415 3.08828 99.4415 6.41807C99.4415 9.31338 101.356 12.6267 105.554 12.6107C109.446 12.5946 111.843 9.71536 111.843 5.99985" fill="#231F20"/>
  <path fill-rule="evenodd" clip-rule="evenodd" d="M115.624 12.3695C115.495 11.0988 115.447 6.17667 115.415 2.71846C117.2 4.61639 121.752 10.0694 123.071 11.4044C123.956 12.3212 124.245 12.6108 124.358 12.6108C124.454 12.6108 124.487 12.4821 124.487 11.0988C124.487 10.375 124.47 9.63511 124.47 8.2678C124.47 5.00256 124.567 1.19045 124.647 0.225348C124.535 0.241372 124.133 0.27342 123.843 0.27342C123.634 0.27342 123.361 0.27342 123.216 0.241372C123.345 1.94633 123.377 7.15779 123.409 9.76376C122.138 8.58942 116.508 2.04293 114.98 0.450371C114.659 0.128746 114.53 9.61304e-05 114.466 9.61304e-05C114.369 9.61304e-05 114.337 0.0804451 114.337 0.948947C114.337 3.82823 114.289 11.0505 114.16 12.3855C114.273 12.3695 114.787 12.3372 114.948 12.3372C115.173 12.3372 115.399 12.3372 115.624 12.3695" fill="#231F20"/>
  <path fill-rule="evenodd" clip-rule="evenodd" d="M58.4717 29.199C57.5549 29.199 56.9274 29.0383 56.7667 28.8773C56.7184 28.813 56.6864 28.1215 56.6864 25.3385V23.9552C56.6864 23.9232 56.7024 23.9069 56.7505 23.8909C56.8954 23.8749 57.6515 23.8749 58.1661 23.9069C58.8416 23.9392 59.5171 24.0518 60.0803 24.5021C60.9811 25.1939 61.142 25.9337 61.142 26.6575C61.142 28.411 59.839 29.199 58.4717 29.199V29.199ZM56.6864 18.8403C56.6864 18.792 56.7024 18.7598 56.7345 18.7437C56.8471 18.7117 57.217 18.6794 57.7479 18.6794C59.3725 18.6794 60.2089 19.5962 60.2089 20.9633C60.2089 21.6711 59.8873 22.4432 59.2278 22.8775C59.0346 23.0064 58.9059 23.0224 58.6164 23.0224C58.3591 23.0224 57.0561 23.0064 56.7505 22.9901C56.7024 22.9741 56.6864 22.942 56.6864 22.9098V18.8403ZM59.9516 23.2314C60.6432 22.8454 61.4957 21.993 61.4957 20.6417C61.4957 19.4513 60.8201 17.8269 58.0855 17.8269C57.2814 17.8269 56.4932 17.8913 55.898 17.8913C55.6728 17.8913 55.3834 17.875 55.1742 17.859C55.2868 18.4381 55.3351 20.2074 55.3351 22.5076V25.3385C55.3351 27.4297 55.2868 29.3439 55.2225 29.9871C55.4638 29.9711 55.9143 29.9551 56.1556 29.9711C56.5255 29.9871 57.2976 30.0837 58.4074 30.0837C61.2544 30.0837 62.5894 28.3144 62.5894 26.4646C62.5894 24.6307 61.3027 23.6336 59.9516 23.2314V23.2314Z" fill="#231F20"/>
  <path fill-rule="evenodd" clip-rule="evenodd" d="M70.3747 29.3116C67.5114 29.3116 65.5009 27.0598 65.4848 23.6819C65.4848 20.706 67.2058 18.5185 69.9725 18.5185C72.6588 18.5185 74.8303 20.6577 74.8303 24.0036C74.8303 27.9606 72.3049 29.3116 70.3747 29.3116M70.2621 17.6178C66.1764 17.6178 63.9566 20.706 63.9566 24.0358C63.9566 26.9311 65.8708 30.2444 70.0691 30.2284C73.9616 30.2126 76.3583 27.3331 76.3583 23.6174C76.3583 20.2558 73.9455 17.6178 70.2621 17.6178" fill="#231F20"/>
  <path fill-rule="evenodd" clip-rule="evenodd" d="M83.8544 24.7917H80.2673C80.235 24.7917 80.219 24.7756 80.235 24.7273L81.9885 20.0465L83.8864 24.7273C83.9025 24.7756 83.8864 24.7917 83.8544 24.7917M82.5514 18.2772C82.3262 17.7464 82.2458 17.6177 82.1655 17.6177C82.0689 17.6177 81.9885 17.8107 81.7953 18.2772L78.6106 26.175C77.9672 27.7353 77.356 29.1509 76.9538 30.0034C77.0824 29.9871 77.4846 29.9551 77.8062 29.9551C78.1441 29.9551 78.289 29.9551 78.4497 29.9871C78.6427 29.2312 79.3825 27.1721 79.8814 25.7728C79.8974 25.7407 79.9134 25.7247 79.9617 25.7247H84.1923C84.2403 25.7247 84.2403 25.7407 84.2564 25.7728C84.8035 27.076 85.688 29.2633 85.9453 30.0034C86.1385 29.9711 86.5888 29.9551 86.9907 29.9551C87.1679 29.9551 87.4413 29.9711 87.7308 29.9871C87.3126 29.3599 86.4118 27.2687 85.688 25.5478C84.3047 22.2825 82.7284 18.6794 82.5514 18.2772" fill="#231F20"/>
  <path fill-rule="evenodd" clip-rule="evenodd" d="M90.353 25.3386C90.353 27.4297 90.3047 29.4565 90.2243 30.0032C90.4979 29.9711 90.8355 29.9551 91.2057 29.9551C91.4467 29.9551 91.704 29.9551 91.865 29.9871C91.8006 29.4082 91.7363 27.3814 91.7363 25.3386V18.7919C92.9587 18.7919 93.7148 18.8241 94.294 18.8564C95.3554 18.9205 95.8057 19.0011 96.063 19.162C96.0793 18.6795 96.1436 18.1163 96.2239 17.7624C95.9346 17.843 94.7603 17.8911 93.8274 17.8911H88.5997C87.2164 17.8911 86.6212 17.843 86.2353 17.7464C86.203 18.0843 86.0583 18.8241 85.978 19.0814C86.3962 18.9368 87.0717 18.8724 88.1334 18.8241C89.1947 18.7919 89.6131 18.7919 90.353 18.7919V25.3386Z" fill="#231F20"/>
  <path fill-rule="evenodd" clip-rule="evenodd" d="M97.6881 22.4915V25.3387C97.6881 27.4298 97.6398 29.4564 97.5757 30.0033C97.7204 29.9873 98.1869 29.955 98.5085 29.955C98.7658 29.955 99.0714 29.971 99.2163 29.9873C99.1197 29.521 99.0714 27.3815 99.0714 25.3387V22.5075C99.0714 20.2236 99.1357 18.4381 99.184 17.8429C99.0714 17.8591 98.6692 17.8912 98.2189 17.8912C98.026 17.8912 97.6881 17.8912 97.5434 17.8749C97.6558 18.2771 97.6881 20.2074 97.6881 22.4915" fill="#231F20"/>
  <path fill-rule="evenodd" clip-rule="evenodd" d="M103.977 20.3361C105.763 22.2343 110.315 27.687 111.634 29.022C112.519 29.9388 112.808 30.2284 112.921 30.2284C113.017 30.2284 113.05 30.0998 113.05 28.7164C113.05 27.9926 113.033 27.2528 113.033 25.8855C113.033 22.6202 113.13 18.8081 113.21 17.843C113.098 17.859 112.696 17.8911 112.406 17.8911C112.197 17.8911 111.923 17.8911 111.779 17.859C111.907 19.564 111.94 24.7757 111.972 27.3814C110.701 26.2071 105.071 19.6606 103.543 18.068C103.221 17.7464 103.093 17.6178 103.028 17.6178C102.932 17.6178 102.9 17.6981 102.9 18.5668C102.9 21.4461 102.851 28.6681 102.723 30.0032C102.835 29.9872 103.35 29.9551 103.511 29.9551C103.736 29.9551 103.961 29.9551 104.186 29.9872C104.058 28.7164 104.01 23.7943 103.977 20.3361" fill="#231F20"/>
  <path fill-rule="evenodd" clip-rule="evenodd" d="M118.616 19.741C119.565 18.9046 120.819 18.5667 122.074 18.5667C124.599 18.5667 125.967 19.4515 126.336 19.8857C126.336 19.3228 126.449 18.5507 126.513 18.3094C126.127 18.2291 124.535 17.6179 122.572 17.6179C121.479 17.6179 119.613 17.6662 117.956 18.8403C116.766 19.6444 115.463 21.2207 115.463 23.8427C115.463 25.7086 116.171 27.2046 117.071 28.1694C118.342 29.569 120.305 30.2283 122.331 30.2283C123.714 30.2283 125.291 30.0033 126.352 29.5209C126.336 29.36 126.336 29.0865 126.336 28.3787V26.6897C126.336 25.612 126.385 24.3576 126.433 23.9553C126.24 23.9874 125.983 24.0037 125.532 24.0037C125.291 24.0037 124.985 24.0037 124.76 23.9874C124.857 24.3413 124.953 25.4673 124.953 26.3198V28.3466C124.953 28.7005 124.937 28.8131 124.889 28.8452C124.439 29.1027 123.473 29.2311 122.717 29.2311C121.591 29.2311 119.806 28.8933 118.519 27.5099C117.715 26.706 117.039 25.3707 117.039 23.5209C117.039 21.8482 117.731 20.5132 118.616 19.741" fill="#231F20"/>
  <path fill-rule="evenodd" clip-rule="evenodd" d="M56.1716 35.6626C55.8498 35.6626 55.4638 35.6466 55.1903 35.6306C55.2869 36.0969 55.3512 37.6734 55.3512 40.2792V43.1101C55.3512 45.378 55.2708 47.2924 55.2065 47.7747C55.3672 47.7587 55.8498 47.7264 56.1233 47.7264C56.5253 47.7264 56.7185 47.7427 56.8632 47.7587C56.7828 47.2441 56.7185 44.2041 56.7185 43.0941V42.0484C56.7185 41.9841 56.7345 41.9681 56.7668 41.9681C57.8928 41.9681 59.0669 42.0004 59.6138 42.0324C60.1767 42.0647 60.4663 42.129 60.6753 42.2414C60.6915 41.8074 60.7559 41.1156 60.8042 40.9064C60.6432 40.9547 60.3214 41.003 59.4368 41.019C58.9863 41.0353 56.9918 41.0513 56.7828 41.0513C56.7345 41.0513 56.7185 41.0353 56.7185 40.9707C56.7185 39.5714 56.7345 38.0273 56.7505 36.628C56.7505 36.5797 56.7828 36.5637 56.7988 36.5637C58.1822 36.5637 59.3402 36.6117 59.839 36.644C60.6432 36.7081 60.8685 36.7564 61.0775 36.853C61.0935 36.5637 61.1258 35.9843 61.1901 35.5823C60.9168 35.6306 60.3376 35.6626 59.9354 35.6626H56.1716Z" fill="#231F20"/>
  <path fill-rule="evenodd" clip-rule="evenodd" d="M68.6536 47.0831C65.7903 47.0831 63.7798 44.8313 63.7637 41.4534C63.7637 38.4775 65.4847 36.2903 68.2514 36.2903C70.9377 36.2903 73.1092 38.4292 73.1092 41.7753C73.1092 45.7321 70.5838 47.0831 68.6536 47.0831M68.541 35.3893C64.4553 35.3893 62.2355 38.4775 62.2355 41.8073C62.2355 44.7026 64.1497 48.016 68.348 47.9999C72.2405 47.9841 74.6372 45.1046 74.6372 41.3891C74.6372 38.0273 72.2244 35.3893 68.541 35.3893" fill="#231F20"/>
  <path fill-rule="evenodd" clip-rule="evenodd" d="M85.0931 35.6307C85.1737 36.2096 85.2698 37.9791 85.2698 40.2793V42.1772C85.2698 44.027 85.0771 45.2014 84.2566 46.0699C83.6454 46.7454 82.648 46.9384 81.9242 46.9384C81.1683 46.9384 80.171 46.8258 79.4151 46.1019C78.7396 45.4747 78.273 44.6382 78.273 42.5148V40.2793C78.273 37.9952 78.3374 36.113 78.4017 35.6147C78.2087 35.6465 77.8388 35.6627 77.3883 35.6627C77.147 35.6627 76.8737 35.6627 76.7288 35.6307C76.8254 36.0327 76.8897 37.9791 76.8897 40.2793V42.8046C76.8897 45.1208 77.4526 46.1663 78.257 46.9224C79.1255 47.7265 80.4605 47.9999 81.5703 47.9999C82.632 47.9999 83.8704 47.8392 84.8358 46.9865C86.1868 45.7963 86.3638 44.027 86.3638 42.1451V40.2793C86.3638 37.9952 86.4441 36.113 86.5087 35.6147C86.4281 35.6307 86.0742 35.6627 85.7366 35.6627C85.5754 35.6627 85.2698 35.6627 85.0931 35.6307" fill="#231F20"/>
  <path fill-rule="evenodd" clip-rule="evenodd" d="M99.2645 35.6627C99.0553 35.6627 98.782 35.6627 98.6371 35.6306C98.7657 37.3358 98.798 42.547 98.8303 45.153C97.5596 43.9787 91.9297 37.4319 90.4014 35.8396C90.0798 35.518 89.9511 35.3893 89.8868 35.3893C89.7902 35.3893 89.7582 35.4697 89.7582 36.3382C89.7582 39.2175 89.7099 46.4397 89.5812 47.7747C89.6936 47.7587 90.2084 47.7264 90.3694 47.7264C90.5946 47.7264 90.8196 47.7264 91.0449 47.7587C90.9163 46.488 90.868 41.5659 90.8359 38.1077C92.6212 40.0058 97.1734 45.4586 98.4924 46.7936C99.3769 47.7104 99.6665 48 99.7791 48C99.8757 48 99.908 47.8713 99.908 46.488C99.908 45.7642 99.8918 45.0243 99.8918 43.657C99.8918 40.3918 99.9881 36.5797 100.069 35.6146C99.9561 35.6306 99.5541 35.6627 99.2645 35.6627" fill="#231F20"/>
  <path fill-rule="evenodd" clip-rule="evenodd" d="M111.184 45.9251C110.283 46.697 109.013 47.0187 107.693 47.0187C106.374 47.0187 105.409 46.8259 105.184 46.6487C105.12 46.6007 105.104 46.4237 105.088 46.1019C105.072 45.6676 105.056 44.3486 105.056 42.6437V40.1986C105.056 38.542 105.056 36.9819 105.088 36.6761C105.088 36.628 105.104 36.5957 105.152 36.5635C105.393 36.4991 106.037 36.4348 106.632 36.4348C108.691 36.4348 110.573 36.9496 111.683 38.3007C112.519 39.3301 112.825 40.5688 112.825 41.9521C112.825 43.7537 112.101 45.153 111.184 45.9251M106.664 35.5986C105.603 35.5986 104.686 35.6627 104.3 35.6627C104.042 35.6627 103.688 35.6467 103.528 35.6306C103.592 36.0006 103.672 37.2392 103.672 40.2469V43.2066C103.672 45.6033 103.608 47.067 103.576 47.7425C104.267 47.6944 104.911 47.7748 105.683 47.8553C106.262 47.9036 106.873 47.9357 107.549 47.9357C110.348 47.9357 111.859 46.858 112.632 46.0698C113.532 45.1207 114.321 43.6088 114.321 41.5499C114.321 39.6357 113.597 38.3169 112.793 37.4803C111.2 35.8559 108.755 35.5986 106.664 35.5986" fill="#231F20"/>
  <path fill-rule="evenodd" clip-rule="evenodd" d="M121.833 42.5632H118.246C118.213 42.5632 118.197 42.5471 118.213 42.4988L119.967 37.818L121.865 42.4988C121.881 42.5471 121.865 42.5632 121.833 42.5632M120.53 36.0487C120.304 35.5181 120.224 35.3892 120.144 35.3892C120.047 35.3892 119.967 35.5824 119.774 36.0487L116.589 43.9465C115.945 45.5068 115.334 46.9224 114.932 47.7749C115.061 47.7586 115.463 47.7266 115.785 47.7266C116.122 47.7266 116.267 47.7266 116.428 47.7586C116.621 47.0027 117.361 44.9436 117.86 43.5443C117.876 43.5122 117.892 43.4962 117.94 43.4962H122.17C122.219 43.4962 122.219 43.5122 122.235 43.5443C122.782 44.8475 123.666 47.0348 123.924 47.7749C124.117 47.7426 124.567 47.7266 124.969 47.7266C125.146 47.7266 125.42 47.7426 125.709 47.7586C125.291 47.1314 124.39 45.0402 123.666 43.3193C122.283 40.054 120.706 36.4509 120.53 36.0487" fill="#231F20"/>
  <path fill-rule="evenodd" clip-rule="evenodd" d="M126.578 35.6627C125.194 35.6627 124.599 35.6146 124.213 35.518C124.181 35.8559 124.036 36.5957 123.956 36.853C124.374 36.7081 125.05 36.644 126.111 36.5957C127.173 36.5637 127.591 36.5637 128.331 36.5637V43.1102C128.331 45.2013 128.283 47.2279 128.202 47.7747C128.476 47.7427 128.814 47.7264 129.184 47.7264C129.425 47.7264 129.682 47.7264 129.843 47.7587C129.779 47.1798 129.714 45.153 129.714 43.1102V36.5637C130.937 36.5637 131.693 36.5957 132.272 36.628C133.334 36.6921 133.784 36.7727 134.041 36.9336C134.057 36.4508 134.122 35.8879 134.202 35.534C133.913 35.6146 132.738 35.6627 131.805 35.6627H126.578Z" fill="#231F20"/>
  <path fill-rule="evenodd" clip-rule="evenodd" d="M137.049 40.2792C137.049 37.9951 137.114 36.2098 137.162 35.6146C137.049 35.6306 136.647 35.6626 136.197 35.6626C136.004 35.6626 135.666 35.6626 135.521 35.6466C135.634 36.0488 135.666 37.979 135.666 40.2631V43.1101C135.666 45.2013 135.618 47.2279 135.554 47.7747C135.698 47.7587 136.165 47.7264 136.487 47.7264C136.744 47.7264 137.049 47.7427 137.194 47.7587C137.098 47.2924 137.049 45.153 137.049 43.1101V40.2792Z" fill="#231F20"/>
  <path fill-rule="evenodd" clip-rule="evenodd" d="M145.913 47.0831C143.049 47.0831 141.039 44.8313 141.023 41.4534C141.023 38.4775 142.744 36.2903 145.511 36.2903C148.197 36.2903 150.368 38.4292 150.368 41.7753C150.368 45.7321 147.843 47.0831 145.913 47.0831M145.8 35.3893C141.714 35.3893 139.495 38.4775 139.495 41.8073C139.495 44.7026 141.409 48.016 145.607 47.9999C149.5 47.9841 151.896 45.1046 151.896 41.3891C151.896 38.0273 149.484 35.3893 145.8 35.3893" fill="#231F20"/>
  <path fill-rule="evenodd" clip-rule="evenodd" d="M164.701 35.6146C164.588 35.6306 164.186 35.6627 163.896 35.6627C163.687 35.6627 163.414 35.6627 163.269 35.6306C163.398 37.3358 163.43 42.547 163.462 45.153C162.191 43.9787 156.561 37.4319 155.033 35.8396C154.712 35.518 154.583 35.3893 154.519 35.3893C154.422 35.3893 154.39 35.4697 154.39 36.3382C154.39 39.2175 154.342 46.4397 154.213 47.7747C154.326 47.7587 154.84 47.7264 155.001 47.7264C155.226 47.7264 155.452 47.7264 155.677 47.7587C155.548 46.488 155.5 41.5659 155.468 38.1077C157.253 40.0058 161.805 45.4586 163.124 46.7936C164.009 47.7104 164.298 47.9998 164.411 47.9998C164.508 47.9998 164.54 47.8713 164.54 46.488C164.54 45.7642 164.524 45.0241 164.524 43.657C164.524 40.3918 164.62 36.5797 164.701 35.6146" fill="#231F20"/>
</svg>
