<svg width="24" height="24" viewBox="0 0 24 24" fill="none" xmlns="http://www.w3.org/2000/svg">
  <path d="M4.96875 11.25C4.82812 11.1562 4.6875 11.1562 4.5 11.1562C4.03125 11.1562 3.65625 11.4375 3.51562 11.8594C3.1875 12.7969 3 13.7812 3 14.8125C3 15.1406 3.04688 15.5156 3.09375 15.8438C3.14062 16.4062 3.60938 16.8281 4.125 16.8281C4.21875 16.8281 4.3125 16.7812 4.40625 16.7812L9.46875 15.5156C10.4062 15.2812 10.5469 13.9688 9.65625 13.5L4.96875 11.25ZM7.03125 22.4531C8.15625 23.2031 9.42188 23.7188 10.7812 23.9531C10.8281 23.9531 10.875 24 10.9688 24C11.5312 24 12 23.5312 12 22.9219L12.1875 17.7656C12.2344 16.7344 11.0156 16.2656 10.3594 17.0156L6.84375 20.8594C6.70312 21.0469 6.5625 21.2812 6.5625 21.5625C6.5625 21.9375 6.75 22.2656 7.03125 22.4531ZM13.875 17.2969L16.6406 21.7031C16.8281 22.0312 17.1562 22.2188 17.5312 22.2188C17.8125 22.2188 18.0469 22.125 18.2344 21.9844C19.2656 21.0938 20.1094 20.0156 20.6719 18.7969C20.7656 18.6562 20.7656 18.5156 20.7656 18.3281C20.7656 17.8594 20.4844 17.4844 20.0625 17.2969L15.0938 15.7031C14.1562 15.4219 13.3125 16.4531 13.875 17.2969ZM20.8125 11.1094C20.25 9.84375 19.4531 8.76562 18.4688 7.875C18.2812 7.6875 18 7.59375 17.7656 7.59375C17.3906 7.59375 17.0625 7.78125 16.875 8.0625L13.9688 12.375C13.4062 13.2188 14.1562 14.2969 15.1406 14.0156L20.1562 12.5625C20.5781 12.4219 20.9062 12 20.9062 11.5312C20.9062 11.3906 20.8594 11.25 20.8125 11.1094ZM5.90625 1.40625C5.53125 1.54688 5.29688 1.92188 5.29688 2.34375C5.29688 2.53125 5.34375 2.71875 5.4375 2.90625L10.3125 11.3438C10.875 12.2812 12.2812 11.9062 12.2812 10.8281V1.03125C12.2812 0.46875 11.8125 0 11.25 0C11.2031 0 11.2031 0 11.1562 0C9.28125 0.140625 7.5 0.609375 5.90625 1.40625Z" fill="white"/>
</svg>
